<svg width="61" height="60" viewBox="0 0 61 60" fill="none" xmlns="http://www.w3.org/2000/svg">
<rect x="0.300293" width="60" height="60" rx="30" fill="#2D374B"/>
<g clip-path="url(#clip0_949_14464)">
<path d="M28.3003 8.52465C29.5381 7.82512 31.0632 7.82512 32.301 8.52465L48.3009 17.567C49.5383 18.2663 50.3005 19.5584 50.3005 20.9568V39.0432C50.3005 40.4416 49.5383 41.7337 48.3009 42.433L32.301 51.4753C31.0632 52.1749 29.5381 52.1749 28.3003 51.4753L12.3004 42.433C11.063 41.7337 10.3008 40.4416 10.3008 39.0432V20.9568C10.3008 19.5584 11.063 18.2663 12.3004 17.567L28.3003 8.52465Z" fill="#96BEDC"/>
<path d="M29.7003 10.8703C30.113 10.637 30.6215 10.637 31.0342 10.8703L46.8674 19.8211C47.2798 20.0542 47.5338 20.4849 47.5338 20.9509V38.8537C47.5338 39.3198 47.2798 39.7504 46.8674 39.9836L31.0342 48.9344C30.6215 49.1676 30.113 49.1676 29.7003 48.9344L13.8671 39.9836C13.4547 39.7504 13.2007 39.3198 13.2007 38.8537V20.9509C13.2007 20.4849 13.4547 20.0542 13.8671 19.8211L29.7003 10.8703Z" fill="#2D374B"/>
<path d="M14.6911 43.7842L11.8363 42.1708C10.8872 41.6344 10.3003 40.6286 10.3003 39.5384L21.0255 23.4777C22.1952 21.7262 24.189 20.6704 26.3271 20.6704H29.4168L14.6911 43.7842Z" fill="white"/>
<path d="M21.5068 47.6361L16.3723 44.7343L31.3335 20.6704H37.8168L21.5068 47.6361Z" fill="white"/>
<path fill-rule="evenodd" clip-rule="evenodd" d="M42.354 42.5347L36.6633 45.7518L30.4668 36.2631L34.2668 30.0326L42.354 42.5347ZM47.5336 36.0983V38.8535C47.5336 39.3196 47.2795 39.7502 46.8672 39.9834L43.9758 41.6179L35.3668 28.0917L38.6667 22.6768L47.5336 36.0983Z" fill="#28A0F0"/>
</g>
<defs>
<clipPath id="clip0_949_14464">
<rect width="40" height="44" fill="white" transform="translate(10.3003 8)"/>
</clipPath>
</defs>
</svg>
