<svg width="61" height="60" viewBox="0 0 61 60" fill="none" xmlns="http://www.w3.org/2000/svg">
<rect x="0.100098" width="60" height="60" rx="30" fill="#D64F4A"/>
<path fill-rule="evenodd" clip-rule="evenodd" d="M22.5633 42.5002H16.7003C15.3102 42.5002 14.6152 42.5002 14.1989 42.2258C13.7491 41.9295 13.4652 41.432 13.4352 40.8874C13.4073 40.3833 13.7515 39.7688 14.44 38.5398L14.4403 38.5393L27.277 15.6249C27.9756 14.3776 28.3249 13.754 28.7695 13.5219C29.2496 13.2711 29.8191 13.2707 30.2996 13.5208C30.7444 13.7522 31.0946 14.3754 31.795 15.6215L34.7556 20.8885L34.7557 20.8886C35.2651 21.7947 35.5197 22.2478 35.6317 22.7258C35.7536 23.2462 35.7539 23.7883 35.6324 24.3088C35.5209 24.7869 35.2665 25.2403 34.7579 26.1469L27.0817 39.8299C26.5657 40.7498 26.3077 41.2098 25.9542 41.5536C25.5694 41.9278 25.1027 42.2036 24.5927 42.3582C24.1241 42.5002 23.6038 42.5002 22.5633 42.5002ZM43.4805 42.5002H36.6831C35.2804 42.5002 34.579 42.5002 34.1615 42.2235C33.7103 41.9245 33.4273 41.4234 33.4006 40.8761C33.3759 40.3696 33.7289 39.7525 34.4349 38.5184L37.828 32.5868C38.525 31.3683 38.8736 30.7591 39.3148 30.5309C39.7917 30.2843 40.3556 30.2839 40.8329 30.5297C41.2746 30.7572 41.6238 31.366 42.3225 32.5832L42.3226 32.5836L45.727 38.5151C46.4357 39.7499 46.79 40.3674 46.7658 40.8743C46.7396 41.422 46.4567 41.9237 46.0053 42.2232C45.5878 42.5002 44.8854 42.5002 43.4805 42.5002Z" fill="white"/>
</svg>
