<svg width="61" height="60" viewBox="0 0 61 60" fill="none" xmlns="http://www.w3.org/2000/svg">
<rect x="0.900391" width="60" height="60" rx="30" fill="#FF0420"/>
<path fill-rule="evenodd" clip-rule="evenodd" d="M17.7635 36.7117C18.9043 37.5523 20.3678 37.9726 22.1541 37.9726C24.3158 37.9726 26.042 37.4697 27.333 36.464C28.6239 35.4433 29.5321 33.9046 30.0575 31.8481C30.3727 30.5872 30.6429 29.2887 30.8681 27.9527C30.9432 27.4724 30.9807 27.0746 30.9807 26.7593C30.9807 25.7086 30.7179 24.8079 30.1926 24.0574C29.6672 23.2918 28.9467 22.7213 28.031 22.3461C27.1153 21.9559 26.0796 21.7607 24.9237 21.7607C20.6756 21.7607 18.0411 23.8247 17.0204 27.9527C16.6602 29.4688 16.3825 30.7673 16.1873 31.8481C16.1123 32.3284 16.0747 32.7338 16.0747 33.064C16.0747 34.6402 16.6376 35.8561 17.7635 36.7117ZM24.6085 33.9872C24.023 34.4825 23.3101 34.7302 22.4694 34.7302C21.0284 34.7302 20.3078 34.0397 20.3078 32.6587C20.3078 32.3284 20.3378 32.0132 20.3979 31.7131C20.6681 30.257 20.9383 29.026 21.2085 28.0203C21.4637 26.9996 21.884 26.2415 22.4694 25.7461C23.0699 25.2507 23.7903 25.003 24.6311 25.003C26.057 25.003 26.7701 25.6861 26.7701 27.052C26.7701 27.3824 26.7401 27.7051 26.6801 28.0203C26.4999 29.071 26.2371 30.302 25.8919 31.7131C25.6368 32.7338 25.209 33.4918 24.6085 33.9872ZM31.6345 37.5893C31.7245 37.6944 31.8522 37.747 32.0173 37.747H35.0796C35.2296 37.747 35.3723 37.6944 35.5074 37.5893C35.6424 37.4842 35.725 37.3492 35.7551 37.184L36.7908 32.2529H39.8305C41.797 32.2529 43.3432 31.8401 44.469 31.0145C45.6099 30.1889 46.3679 28.9129 46.7431 27.1866C46.8333 26.7814 46.8783 26.391 46.8783 26.0158C46.8783 24.7098 46.3679 23.7117 45.3471 23.0211C44.3413 22.3306 43.0054 21.9853 41.3392 21.9853H35.3497C35.1996 21.9853 35.0571 22.0379 34.9219 22.1429C34.7868 22.248 34.7043 22.3831 34.6743 22.5482L31.567 37.184C31.537 37.3342 31.5594 37.4692 31.6345 37.5893ZM41.6319 28.6277C41.1665 28.9729 40.6186 29.1456 39.9882 29.1456H37.3987L38.2543 25.1152H40.9564C41.5719 25.1152 42.0071 25.2352 42.2623 25.4754C42.5176 25.7005 42.6451 26.0308 42.6451 26.4661C42.6451 26.6612 42.6226 26.8864 42.5776 27.1416C42.4275 27.7871 42.1122 28.2825 41.6319 28.6277Z" fill="white"/>
</svg>
