<svg width="61" height="60" viewBox="0 0 61 60" fill="none" xmlns="http://www.w3.org/2000/svg">
<rect x="0.700195" width="60" height="60" rx="30" fill="#037A5B"/>
<path fill-rule="evenodd" clip-rule="evenodd" d="M13.5721 16.6561L30.771 33.379L47.7547 17.004L47.107 16.3082C42.8982 11.779 36.8518 9.1665 30.5558 9.1665H30.5192C24.2942 9.1665 18.5017 11.6061 14.2564 15.9603L13.5721 16.6561ZM30.7731 30.6269L16.3801 16.6561C20.193 13.0686 25.1937 11.1165 30.5558 11.1165H30.5924C35.989 11.1165 41.1704 13.2436 44.9854 16.9353L30.7731 30.6269Z" fill="white"/>
<path d="M46.5325 21.1165L48.1162 19.5832L48.5102 20.2103C50.4875 23.3727 51.533 26.9989 51.5334 30.6957C51.4987 41.8103 42.1774 50.8332 30.7 50.8332H30.6634C19.186 50.8332 9.83023 41.7394 9.86681 30.6269C9.86996 26.9259 10.928 23.2976 12.9244 20.1415L13.2838 19.5498L15.1902 21.3957C14.8309 21.9165 14.506 22.4748 14.2908 23.1019C12.7805 27.1082 14.9385 31.5332 19.1128 32.9957C21.596 33.8311 24.2232 33.4478 26.2738 32.1248L30.7 36.4457L35.7738 31.5332C36.2429 31.8478 36.7808 32.0915 37.3575 32.2998C41.4243 33.6936 45.8848 31.6373 47.3243 27.7353C48.1872 25.4373 47.7913 23.0332 46.5325 21.1165Z" fill="white"/>
<path d="M16.6685 26.1686C16.6676 25.264 16.9704 24.3837 17.5313 23.6603L23.5045 29.4082C22.7859 29.9644 21.8864 30.279 20.9139 30.279C18.5749 30.279 16.6685 28.4332 16.6685 26.1686Z" fill="white"/>
<path d="M38.3645 29.0582C39.0487 29.5103 39.8406 29.754 40.74 29.754C43.0789 29.754 44.9854 27.9082 44.9854 25.6436C44.9854 24.8082 44.7336 24.0061 44.2667 23.3436L38.3645 29.0582Z" fill="white"/>
</svg>
