<svg width="61" height="60" viewBox="0 0 61 60" fill="none" xmlns="http://www.w3.org/2000/svg">
<rect x="0.5" width="60" height="60" rx="30" fill="#8247E5"/>
<rect x="0.5" width="60" height="60" rx="30" fill="url(#paint0_linear_949_14452)"/>
<path fill-rule="evenodd" clip-rule="evenodd" d="M39.9727 14.2369C39.3989 13.921 38.7011 13.921 38.1273 14.2369L29.5773 18.9428C28.9741 19.2748 28.6 19.9046 28.6 20.5882V23.6486L32.4 25.7647V21.6958L39.05 18.0357L45.7 21.6958V28.8924L39.05 32.5525L22.8727 23.6486C22.2989 23.3328 21.6011 23.3328 21.0273 23.6486L12.4773 28.3545C11.8741 28.6865 11.5 29.3164 11.5 30V39.4118C11.5 40.0954 11.8741 40.7252 12.4773 41.0572L21.0273 45.7631C21.6011 46.079 22.2989 46.079 22.8727 45.7631L31.4227 41.0572C32.0259 40.7252 32.4 40.0954 32.4 39.4118V36.3514L28.6 34.2353V38.3042L21.95 41.9643L15.3 38.3042V31.1076L21.95 27.4475L38.1273 36.3514C38.7011 36.6672 39.3989 36.6672 39.9727 36.3514L48.5227 31.6455C49.1259 31.3135 49.5 30.6836 49.5 30V20.5882C49.5 19.9046 49.1259 19.2748 48.5227 18.9428L39.9727 14.2369Z" fill="white"/>
<defs>
<linearGradient id="paint0_linear_949_14452" x1="-10.4649" y1="4.93137" x2="51.4754" y2="42.8359" gradientUnits="userSpaceOnUse">
<stop stop-color="#A229C5"/>
<stop offset="1" stop-color="#7B3FE4"/>
</linearGradient>
</defs>
</svg>
