<svg width="61" height="60" viewBox="0 0 61 60" fill="none" xmlns="http://www.w3.org/2000/svg">
<rect x="0.5" width="60" height="60" rx="30" fill="#0A15EE"/>
<path d="M28.6703 9.54568C29.697 9.04011 31.2593 9.04011 32.286 9.54568L42.7629 14.7045C43.3813 15.009 43.7209 15.4627 43.7818 15.9311H43.7917V41.8623C43.7781 42.3731 43.4353 42.8806 42.7629 43.2118L32.286 48.3706C31.2593 48.8762 29.697 48.8762 28.6703 48.3706L18.1934 43.2118C17.5239 42.8822 17.2025 42.371 17.1866 41.8623C17.185 41.8122 17.1848 41.7704 17.1864 41.7358L17.1863 16.0977C17.1852 16.0696 17.1851 16.0416 17.186 16.0136L17.1866 15.9311L17.1913 15.9311C17.2379 15.4576 17.562 15.0155 18.1934 14.7045L28.6703 9.54568ZM42.1424 30.398L32.286 35.2513C31.2593 35.7569 29.697 35.7569 28.6703 35.2513L18.8355 30.4088V41.8109L28.6703 46.628C29.2256 46.9048 29.802 47.1745 30.3656 47.2088L30.4782 47.2122C31.0655 47.2141 31.6356 46.936 32.2138 46.6729L42.1424 41.7695V30.398ZM15.4826 41.2985C15.4826 42.2918 15.6064 42.9449 15.8523 43.4051C16.0562 43.7864 16.362 44.0777 16.9204 44.4324L16.9523 44.4525C17.0749 44.5295 17.2099 44.6102 17.3742 44.7048L17.568 44.8156L18.1631 45.1505L17.3096 46.466L16.6435 46.0909L16.5316 46.0269C16.339 45.9158 16.1794 45.8209 16.0305 45.7272C14.4389 44.7268 13.8454 43.6364 13.8337 41.3675L13.8335 41.2985H15.4826ZM29.6534 23.4476C29.5771 23.4721 29.5056 23.5003 29.4405 23.5324L18.9636 28.6913C18.9526 28.6967 18.9421 28.702 18.9321 28.7073L18.9233 28.7122L18.9397 28.7209L18.9636 28.733L29.4405 33.8919C29.5056 33.924 29.5771 33.9522 29.6534 33.9766V23.4476ZM31.303 23.4476V33.9766C31.3792 33.9522 31.4507 33.924 31.5159 33.8919L41.9928 28.733C42.0038 28.7276 42.0143 28.7222 42.0242 28.717L42.0331 28.7122L42.0166 28.7034L41.9928 28.6913L31.5159 23.5324C31.4507 23.5003 31.3792 23.4721 31.303 23.4476ZM42.1424 17.7706L32.7441 22.3984L42.1424 27.0263V17.7706ZM18.8355 17.7814V27.0155L28.212 22.3984L18.8355 17.7814ZM31.5159 10.9051C30.9711 10.6368 29.9853 10.6368 29.4405 10.9051L18.9636 16.064C18.9526 16.0694 18.9421 16.0748 18.9321 16.0801L18.9233 16.0849L18.9397 16.0936L18.9636 16.1057L29.4405 21.2646C29.9853 21.5329 30.9711 21.5329 31.5159 21.2646L41.9928 16.1057C42.0038 16.1003 42.0143 16.095 42.0242 16.0896L42.0331 16.0849L42.0166 16.0761L41.9928 16.064L31.5159 10.9051ZM43.6908 11.4708L44.3568 11.8459L44.4688 11.9099C44.6614 12.0208 44.821 12.116 44.9699 12.2096C46.5614 13.2099 47.155 14.3005 47.1665 16.5692L47.1668 16.6383H45.5178C45.5178 15.6448 45.3939 14.9918 45.148 14.5317C44.9442 14.1504 44.6383 13.859 44.0799 13.5045L44.048 13.4843C43.9255 13.4073 43.7905 13.3266 43.6261 13.2318L43.4323 13.1211L42.8373 12.7863L43.6908 11.4708Z" fill="white"/>
</svg>
