<svg width="61" height="60" viewBox="0 0 61 60" fill="none" xmlns="http://www.w3.org/2000/svg">
<g clip-path="url(#clip0_949_14499)">
<circle cx="30.3003" cy="30" r="30" fill="url(#paint0_linear_949_14499)"/>
<circle cx="30.3003" cy="30" r="30" fill="url(#paint1_linear_949_14499)"/>
<path d="M31.3773 0.0189738L16.0897 40.2632L49.5182 6.96276C50.9259 8.13838 52.2243 9.4406 53.3957 10.8519L34.2476 30L53.3363 49.2194C52.2198 50.5561 50.9892 51.7941 49.6595 52.9185L30.3003 33.6842L11.0738 53.0301C9.62255 51.8173 8.28772 50.4698 7.08845 49.007L23.9845 4.73684L0.351074 28.2389C1.26272 12.4901 14.3229 0 30.3002 0C30.6608 0 31.0198 0.00635996 31.3773 0.0189738Z" fill="white"/>
</g>
<defs>
<linearGradient id="paint0_linear_949_14499" x1="51.9301" y1="9.73685" x2="13.2459" y2="50.7895" gradientUnits="userSpaceOnUse">
<stop stop-color="#FF8C00"/>
<stop offset="1" stop-color="#780000"/>
</linearGradient>
<linearGradient id="paint1_linear_949_14499" x1="21.5353" y1="21.1842" x2="51.9301" y2="51.5789" gradientUnits="userSpaceOnUse">
<stop stop-color="#D30168" stop-opacity="0"/>
<stop offset="1" stop-color="#D30168"/>
</linearGradient>
<clipPath id="clip0_949_14499">
<rect width="60" height="60" fill="white" transform="translate(0.300293)"/>
</clipPath>
</defs>
</svg>
