<svg width="61" height="60" viewBox="0 0 61 60" fill="none" xmlns="http://www.w3.org/2000/svg">
<rect x="0.100098" width="60" height="60" rx="30" fill="#F0B90B"/>
<path d="M20.8905 17.6554L30.1003 12.2036L39.3101 17.6554L35.924 19.6695L30.1003 16.2317L24.2762 19.6695L20.8905 17.6554ZM39.3101 24.531L35.924 22.5169L30.1003 25.9548L24.2762 22.5169L20.8905 24.531V28.5592L26.7142 31.9967V38.8725L30.1003 40.8866L33.4863 38.8725V31.9967L39.3101 28.5592V24.531ZM39.3101 35.4346V31.4065L35.924 33.4205V37.4487L39.3101 35.4346ZM41.7141 36.8584L35.8903 40.296V44.3241L45.1001 38.8725V27.9689L41.7141 29.9827V36.8584ZM38.328 21.0931L41.7141 23.1072V27.1354L45.1001 25.1213V21.0931L41.7141 19.0792L38.328 21.0931ZM26.7142 41.7546V45.7828L30.1003 47.7968L33.4863 45.7828V41.7546L30.1003 43.7687L26.7142 41.7546ZM20.8905 35.4346L24.2762 37.4487V33.4205L20.8905 31.4065V35.4346ZM26.7142 21.0931L30.1003 23.1072L33.4863 21.0931L30.1003 19.0792L26.7142 21.0931ZM18.4861 23.1072L21.8722 21.0931L18.4861 19.0792L15.1001 21.0931V25.1213L18.4861 27.1354V23.1072ZM18.4861 29.9827L15.1001 27.9689V38.8725L24.3102 44.3241V40.296L18.4861 36.8584V29.9827Z" fill="white"/>
</svg>
