<svg width="61" height="60" viewBox="0 0 61 60" fill="none" xmlns="http://www.w3.org/2000/svg">
<rect x="0.700195" width="60" height="60" rx="30" fill="#CCE1FF"/>
<path fill-rule="evenodd" clip-rule="evenodd" d="M20.956 20.3326L18.8094 18.9326C17.0967 17.8157 11.64 13.8419 7.65474 10.9083C5.26549 9.14947 3.34592 7.72098 3.0779 7.50169L3.07093 7.49598C2.78585 7.25842 2.5488 6.95042 2.47824 6.56238C2.44325 6.36992 2.45645 6.19147 2.49633 6.0386C2.51578 5.96405 2.54071 5.89874 2.56672 5.84316C2.57973 5.81538 2.59304 5.78994 2.60617 5.76686C2.61273 5.75531 2.61926 5.74433 2.6257 5.7339L2.63529 5.71868L2.64002 5.71138L2.64237 5.7078C2.64237 5.7078 2.40797 6.00352 2.83469 6.28669C2.94111 6.35777 3.31041 6.14808 3.47676 6.25898C3.47676 6.25898 3.35958 6.43476 3.71114 6.72773C3.73963 6.75105 3.79092 6.79109 3.86317 6.84648C3.87474 6.85534 3.88684 6.8646 3.89947 6.87425C3.95685 6.91808 4.02515 6.9699 4.10366 7.0292C4.23406 7.12768 4.39263 7.24677 4.57615 7.38405C5.39726 7.9983 6.71771 8.97676 8.24756 10.1029C11.5231 12.5142 15.7586 15.6027 18.1075 17.2435C18.6254 17.6053 19.0516 17.8967 19.3556 18.095L17.5392 10.9465C13.2099 9.36369 7.40121 7.30015 5.04961 6.48943C4.81612 6.40893 4.61671 6.34079 4.45621 6.28669C4.33454 6.24568 4.23523 6.21275 4.16039 6.18862L4.15393 6.18654C4.07402 6.16084 4.02318 6.14561 4.00411 6.14179C3.59395 6.0832 3.47676 6.25898 3.47676 6.25898C3.31041 6.14808 2.94111 6.35777 2.83469 6.28669C2.40882 6.00225 2.64567 5.70284 2.64567 5.70284L2.6486 5.69848L2.65262 5.6926L2.661 5.68058C2.66675 5.67246 2.67283 5.66412 2.67926 5.65558C2.6921 5.63852 2.70633 5.62068 2.72203 5.60228C2.75347 5.56546 2.79078 5.52647 2.83469 5.48719C2.9234 5.40781 3.03538 5.33052 3.17282 5.26805C3.45495 5.13981 3.78435 5.10025 4.14553 5.15184L4.173 5.15577L4.20022 5.16121C4.28331 5.17783 4.38856 5.2116 4.44255 5.22893L4.4497 5.23123C4.5311 5.25731 4.63786 5.29267 4.7655 5.33567C5.02164 5.42194 5.37477 5.54328 5.80427 5.69241C6.66398 5.99092 7.83804 6.40368 9.17209 6.87647C11.8402 7.82203 15.154 9.00971 17.8826 10.0072L18.3784 10.1885L20.956 20.3326Z" fill="#CCE1FF"/>
<path d="M22.2268 18.7983L20.3518 32.9194V36.2007L17.1878 40.6538L18.9456 46.9819L23.1643 48.3296L25.7424 46.8647L31.5432 46.1616L36.1135 41.8843V35.4975L41.9729 29.4624L45.7815 31.9819L49.5315 39.0718V48.1538L45.0504 56.3522C54.3746 51.2638 60.7002 41.3709 60.7002 30.0005C60.7002 14.9865 49.6709 2.54849 35.2725 0.34668L24.3362 7.13816L20.8206 12.5288L9.55877 8.71574C9.30517 8.96764 9.05604 9.22405 8.81152 9.48482L22.2268 18.7983Z" fill="white"/>
<path d="M60.6153 27.7298C57.0348 18.1562 47.2301 13.2594 46.6016 12.9975C49.0625 21.0835 43.6133 25.5952 39.9219 25.6538C37.8711 25.6538 35.1172 27.0014 35.1172 27.0014L32.3047 33.9155L31.1328 34.56L32.7149 30.3999C32.7149 30.3999 27.9688 32.9194 27.6172 33.1538C27.2656 33.3882 26.0352 35.8491 25.0977 38.4272C24.6028 36.8876 23.5403 35.9156 23.3629 35.7533C23.3513 35.7427 23.3435 35.7355 23.3398 35.7319C23.346 35.7625 23.3648 35.8428 23.3933 35.9638C23.6374 37.0028 24.5861 41.041 24.2188 42.353C23.8086 43.8764 21.2305 45.2241 21.2305 45.2241L25.4492 46.1616L25.7422 46.2202L28.3203 42.9975L28.8477 38.6616L30.0781 37.4897C30.0781 37.4897 33.4766 36.6108 33.418 39.7749C33.418 40.7597 32.7079 41.1568 31.7468 41.6944C31.2211 41.9885 30.6203 42.3245 30.0195 42.8218C29.0234 43.6421 27.7344 44.8725 27.0898 45.6929L29.2578 46.8647C29.2578 46.8647 31.6016 46.1616 34.5898 42.9975C37.6367 39.7749 35.4688 37.021 35.4688 37.021L40.0977 29.521L44.3164 28.935L51.7578 36.1421L51.9922 44.8139C51.1195 46.6386 49.7366 49.6717 48.6979 51.9499C48.2024 53.0369 47.7851 53.952 47.5391 54.4819C51.8164 51.6694 55.0391 47.3335 56.4453 42.353C56.5625 41.8843 57.0899 41.5913 57.6758 41.2983C57.7578 41.2515 57.8444 41.2046 57.9311 41.1578C58.2779 40.9703 58.625 40.7827 58.6719 40.5952C58.9063 39.2475 59.0235 37.8999 59.0235 36.5522C59.0235 36.3178 58.5547 35.7905 58.1446 35.4389C57.6758 34.9702 57.207 34.5014 57.1485 34.0327C56.6211 28.8764 54.1602 24.0132 50.3516 20.4389L50.7617 20.0288C54.6875 23.6616 57.1485 28.6421 57.7344 33.9741C57.7344 34.2671 58.1445 34.6772 58.5547 35.0288C59.082 35.5561 59.6094 36.0835 59.6094 36.6108C59.6094 37.1513 59.5921 37.6918 59.5575 38.2289C60.3016 35.6142 60.7 32.8539 60.7 30.0005C60.7 29.2366 60.6714 28.4794 60.6153 27.7298Z" fill="#94A6C3"/>
<path d="M58.3508 41.6581C57.3404 44.0517 56.0283 46.2868 54.4621 48.3157C55.585 46.5446 56.4585 44.6181 57.0313 42.5874C57.0766 42.4515 57.4021 42.2455 57.7099 42.0507C57.8003 41.9936 57.889 41.9374 57.9688 41.8843C58.002 41.8643 58.0352 41.8446 58.0683 41.825L58.1699 41.7651C58.231 41.7292 58.2914 41.6936 58.3508 41.6581Z" fill="#94A6C3"/>
<path d="M39.8633 6.90373C39.8633 6.90373 43.2618 6.72795 46.3672 7.37248C41.1845 16.1606 32.5895 13.6289 31.8823 13.4206C31.8539 13.4123 31.8382 13.4076 31.836 13.4076C38.7501 12.06 39.8633 6.90373 39.8633 6.90373Z" fill="#94A6C3"/>
<path d="M36.0549 4.73536C36.0549 4.73536 36.5822 7.07911 35.2346 8.66114C33.5354 10.5947 32.0705 10.5361 32.1291 10.5361L36.0549 4.73536Z" fill="#152943"/>
<path d="M22.5197 38.0167L22.051 40.3605C22.051 40.3605 22.9885 40.2433 22.9885 41.298C22.9885 42.1183 22.051 43.2316 21.2892 43.2902C20.5275 43.3488 20.2345 42.4113 20.4103 41.8839C20.5861 41.4152 22.5197 38.0167 22.5197 38.0167Z" fill="#152943"/>
<path d="M33.008 22.5479C34.1213 21.2588 33.5353 18.8565 31.4845 18.4463C32.0119 17.2159 32.7736 14.7549 32.7736 14.7549C32.7736 14.7549 26.797 24.1299 26.2697 24.3057C25.7424 24.4815 25.215 22.4307 25.215 22.4307C24.1017 26.7081 27.09 27.294 27.4416 25.9463C29.0822 25.5362 31.8947 23.7784 33.008 22.5479Z" fill="#152943"/>
<path fill-rule="evenodd" clip-rule="evenodd" d="M50.703 52.3585C46.686 55.9547 41.6943 58.4842 36.1729 59.502C43.2564 57.3213 48.3595 51.1322 48.3595 43.8174C48.3595 38.6612 45.84 34.0323 41.797 30.9854C41.797 30.9854 39.7463 33.6221 38.633 35.087C37.7541 36.3175 36.9924 37.5479 37.1681 38.9542C37.4025 40.4776 36.9338 42.001 36.0549 43.1143C35.6832 43.5479 34.886 44.2434 34.0266 44.9931L34.0257 44.9939C33.2593 45.6624 32.4436 46.374 31.8361 46.9815C30.9572 47.8018 29.7267 47.9776 28.7892 47.9776C28.567 47.9776 28.3618 47.9604 28.174 47.9446C28.0152 47.9313 27.8687 47.919 27.7345 47.919H27.5588C26.8556 47.919 26.5627 48.0948 25.5666 48.9737C25.3322 49.2081 24.8048 49.3253 24.2189 49.3253C22.5783 49.3253 20.1173 48.5635 19.1213 48.212C17.7736 47.6846 16.2502 42.9385 16.133 41.8253C16.0631 41.1613 16.9101 39.5596 17.655 38.1511C18.1592 37.1978 18.6165 36.333 18.7111 35.9073C18.9455 34.8526 20.0002 26.2393 20.1173 25.2432C20.2345 24.2471 20.1759 23.544 19.3556 22.1964C18.7697 21.2003 18.7697 20.2042 19.3556 18.0948C17.673 16.9974 12.2454 13.0457 8.24756 10.1027C8.24754 10.1028 8.24758 10.1027 8.24756 10.1027C5.84145 8.33152 3.9533 6.92567 3.71113 6.72753C3.35957 6.43457 3.47676 6.25878 3.47676 6.25878C3.47676 6.25878 3.59395 6.083 4.0041 6.1416C4.29707 6.20019 12.09 8.95407 17.5392 10.9463C16.4293 7.49967 17.0521 4.73741 17.9558 2.83368C21.8239 1.01595 26.1434 0 30.7001 0C44.2147 0 55.6421 8.93633 59.3956 21.2223C55.7341 14.4186 48.8854 9.58112 40.8595 8.7198C40.4494 9.36433 40.0392 9.95027 39.6291 10.419C40.508 12.587 42.7931 18.2706 42.7931 18.5636C42.7931 18.9151 41.6799 21.7862 41.5627 21.9034C41.4455 21.962 40.0978 22.0792 39.5705 22.0792C38.9845 23.4854 38.3986 24.8331 38.2814 25.0089C38.1056 25.2432 37.5783 25.419 36.465 25.712C36.3462 25.7476 36.2147 25.7859 36.0806 25.8248C35.5537 25.9781 34.9763 26.146 34.883 26.2393C34.59 26.5909 33.008 30.751 31.9533 33.6807C33.3595 33.4464 34.59 33.7393 34.883 33.8565C37.1681 29.5206 38.9845 27.1768 39.4533 27.1768C39.5031 27.1706 39.6106 27.1743 39.7651 27.1796C41.0664 27.2244 45.7188 27.3846 47.6564 22.7237C49.7342 17.6447 46.809 13.3047 46.6089 13.0079L46.6017 12.9971L46.6109 13.0016C46.8694 13.127 51.4254 15.3373 52.5783 22.255C55.215 25.5948 56.9142 29.6378 57.383 33.9151C57.383 34.1341 57.645 34.4187 57.8997 34.6952C57.9856 34.7886 58.0708 34.8811 58.1447 34.9698C58.672 35.4971 59.1994 36.0245 59.1994 36.5518C59.1994 37.7659 59.112 38.9799 58.9374 40.1563C58.8119 40.5051 58.6801 40.851 58.5422 41.1937C58.2904 41.4366 57.9246 41.6423 57.5588 41.8253C57.479 41.8784 57.3902 41.9346 57.2999 41.9917C56.9921 42.1865 56.6666 42.3925 56.6213 42.5284C55.5819 46.2605 53.4761 49.6498 50.703 52.3585ZM34.4142 41.6495C34.2337 41.8751 33.6013 42.4484 32.9989 42.9944L32.9977 42.9956C32.8184 43.1581 32.6418 43.3181 32.4806 43.4659C32.2363 43.6899 31.9845 43.9142 31.7358 44.1357C31.2691 44.5515 30.8121 44.9587 30.4298 45.3409C30.1955 45.5753 29.7267 45.6924 29.0236 45.6924H27.2658C28.1447 44.5206 30.7228 41.8253 31.6017 41.2393C32.6564 40.5362 33.1838 39.8331 32.5392 38.6026C31.8947 37.3721 30.1955 37.6651 30.1955 37.6651C30.1955 37.6651 31.1916 37.2549 32.0705 37.2549C30.9572 36.962 29.5509 37.255 28.9064 37.8995C28.4377 38.3292 28.3335 39.488 28.2293 40.6469C28.1772 41.2263 28.1252 41.8057 28.0275 42.294C27.7651 43.6583 26.9389 44.4117 25.6751 45.5641C25.5276 45.6986 25.3742 45.8385 25.215 45.9854C24.3947 46.7471 23.8088 46.9815 23.34 46.9815C22.3439 46.8057 21.172 46.5128 20.3517 46.2198C19.7658 45.4581 18.8869 42.9385 18.6525 41.8839C18.779 41.4623 19.1787 40.7066 19.5238 40.0542C19.6582 39.8 19.7844 39.5614 19.883 39.3643L19.9806 39.1772C20.6242 37.9448 21.0018 37.2217 21.1134 36.5518C21.3478 35.5557 22.1095 29.4034 22.4025 26.8253C23.1642 27.8214 24.2189 29.462 23.9845 30.5167C25.6838 28.1143 24.4533 25.7706 23.8673 24.8331C23.34 23.8956 22.6369 22.0206 23.2228 20.0284C23.8088 18.0362 25.9181 12.5284 25.9181 12.5284C25.9181 12.5284 26.6213 13.7589 27.6173 13.5245C28.6134 13.2901 36.6408 1.2198 36.6408 1.2198C36.6408 1.2198 38.8088 5.9659 36.5236 9.42293C34.1799 12.88 31.8947 13.5245 31.8947 13.5245C31.8947 13.5245 35.1174 14.1104 38.1056 11.9425C39.3361 14.8136 40.508 17.8018 40.5666 18.212C40.5377 18.2793 40.4504 18.4872 40.3236 18.7892L40.3121 18.8167C39.6584 20.3738 38.0074 24.3066 37.8127 24.5987C37.6955 24.7159 36.8752 24.9503 36.2892 25.0675C35.2931 25.3604 34.7072 25.5362 34.4728 25.712C34.0627 26.0635 32.1877 31.2198 31.3088 33.7393C30.2541 34.0323 29.1994 34.6182 28.4377 35.7901C28.8478 35.4971 30.1369 35.3214 31.0744 35.2042C31.8947 35.1456 34.4142 36.4932 35.0588 39.0128V39.13C35.1759 40.0675 34.883 40.9464 34.4142 41.6495ZM28.9064 42.3526C29.3214 41.7532 29.3735 40.8271 29.4055 40.2599C29.4141 40.1063 29.4213 39.979 29.4338 39.8917C29.4923 39.4815 29.6095 38.7198 30.0783 38.6026C30.547 38.4854 31.6603 38.6612 31.6603 39.4815C31.6603 40.006 31.2713 40.2527 30.8378 40.5277C30.6417 40.652 30.4365 40.7821 30.2541 40.9464C29.987 41.2135 29.5453 41.68 29.2378 42.0049C29.0737 42.1782 28.9472 42.3118 28.9064 42.3526ZM52.2853 31.1612C52.8713 28.1729 52.9299 25.5948 52.7541 23.4854C55.0392 26.5323 56.4455 30.2237 56.8556 34.0323C56.9142 34.501 57.383 34.9698 57.8517 35.4385C58.2619 35.7901 58.7306 36.2589 58.7306 36.5518C58.7306 37.8995 58.6134 39.2471 58.3791 40.5948C58.3235 40.7614 57.8468 41.0334 57.4479 41.2609L57.383 41.2979C56.797 41.5909 56.2697 41.8839 56.1525 42.3526C54.8635 46.8643 52.1095 50.8487 48.4181 53.6612C53.8674 47.9776 56.5041 38.6026 52.2853 31.1612ZM22.1682 16.2197C22.5783 15.458 22.2268 14.9307 21.8752 14.6377L21.758 14.5205C21.0549 14.1689 16.6604 12.5283 12.3244 11.0049C16.133 13.5244 20.3518 15.9854 21.0549 16.3369C21.5822 16.5713 21.9338 16.6299 22.1682 16.2197Z" fill="#152943"/>
<path d="M27.9102 24.8335L30.957 19.6187C30.957 19.6187 32.7148 20.4976 31.8359 21.9038C30.7227 23.5444 27.9102 24.8335 27.9102 24.8335Z" fill="#FFD923"/>
<path d="M47.838 5.37371C49.2355 6.34806 50.5462 7.43833 51.756 8.63057C46.081 6.62509 41.3228 6.86019 40.9766 6.90347H40.8594C41.1524 6.78629 41.4453 6.72769 41.7383 6.6691C43.4503 6.11685 45.6307 5.6687 47.838 5.37371Z" fill="#D82122"/>
<path d="M28.3862 0.0878906C25.5987 3.66808 26.3282 8.89572 26.3282 8.89572C23.5555 4.67223 24.9872 1.90341 26.9042 0.237849C27.3946 0.175924 27.8887 0.125841 28.3862 0.0878906Z" fill="#D82122"/>
<path d="M35.4553 0.37473C35.7191 0.41674 35.9818 0.46219 36.2432 0.511031C35.2441 1.75026 34.2601 3.08618 33.5695 4.02359L33.4766 4.14972C31.25 5.67315 30.3125 7.138 30.3125 7.138C31.1459 4.29684 33.008 1.92102 35.4553 0.37473Z" fill="#D82122"/>
<path d="M37.2177 0.709921C38.0332 0.890577 38.8362 1.10442 39.6253 1.34996C38.943 1.54081 38.3014 1.75338 37.6953 1.98175C37.6221 1.68859 37.4342 1.2121 37.2177 0.709921Z" fill="#D82122"/>
<path d="M23.8086 12.5286C17.1433 12.3007 19.1186 4.76154 19.341 3.91273C19.3474 3.88851 19.3523 3.86975 19.3555 3.85675C19.3555 3.91534 19.8243 10.1263 23.8086 12.5286Z" fill="#D82122"/>
</svg>
