<svg width="61" height="60" viewBox="0 0 61 60" fill="none" xmlns="http://www.w3.org/2000/svg">
<g clip-path="url(#clip0_949_14564)">
<circle cx="30.9004" cy="30" r="30" fill="#D9ECFF"/>
<g clip-path="url(#clip1_949_14564)">
<path fill-rule="evenodd" clip-rule="evenodd" d="M30.9004 24.9239C27.7698 24.9239 25.3566 26.6948 24.0113 27.9351C23.8109 28.1199 23.5003 28.1201 23.3058 27.9291L21.1942 25.8553C20.9946 25.6593 20.9928 25.3384 21.1973 25.1476C22.8064 23.6458 26.1992 21 30.9004 21C35.6016 21 38.9944 23.6458 40.6035 25.1476C40.808 25.3384 40.8062 25.6593 40.6066 25.8553L38.495 27.9291C38.3005 28.1201 37.9899 28.1199 37.7895 27.9351C36.4442 26.6948 34.031 24.9239 30.9004 24.9239ZM15.2787 31.9426C15.0709 31.7555 15.0569 31.4343 15.2478 31.2299L17.2652 29.0685C17.4512 28.8692 17.7626 28.8557 17.9652 29.0381L23.9221 34.4007C24.111 34.5708 24.3974 34.5721 24.5878 34.4038L30.5693 29.1169C30.7584 28.9497 31.0424 28.9497 31.2315 29.1169L37.213 34.4038C37.4034 34.5721 37.6898 34.5708 37.8787 34.4007L43.8356 29.0381C44.0382 28.8557 44.3496 28.8692 44.5356 29.0685L46.553 31.2299C46.7438 31.4343 46.7299 31.7555 46.522 31.9426L37.9033 39.7016C37.7144 39.8716 37.4281 39.8729 37.2377 39.7046L31.2315 34.3959C31.0424 34.2288 30.7584 34.2288 30.5693 34.3959L24.5631 39.7046C24.3727 39.8729 24.0863 39.8716 23.8975 39.7016L15.2787 31.9426Z" fill="#278FFC"/>
</g>
</g>
<defs>
<clipPath id="clip0_949_14564">
<rect width="60" height="60" fill="white" transform="translate(0.900391)"/>
</clipPath>
<clipPath id="clip1_949_14564">
<rect width="32" height="32" fill="white" transform="translate(14.9004 14)"/>
</clipPath>
</defs>
</svg>
