<svg width="61" height="60" viewBox="0 0 61 60" fill="none" xmlns="http://www.w3.org/2000/svg">
<g clip-path="url(#clip0_949_14558)">
<circle cx="30.5" cy="30" r="30" fill="#D8E6F4"/>
<path fill-rule="evenodd" clip-rule="evenodd" d="M42.8624 17.6135C43.3032 17.6135 43.7205 17.7932 44.0275 18.098C44.3344 18.4105 44.5077 18.8324 44.4997 19.262C44.4211 23.9186 44.24 27.4813 43.9016 30.3017C43.5709 33.1223 43.075 35.2161 42.3272 36.9116C41.8234 38.0444 41.2015 38.982 40.4694 39.7789C39.4855 40.8337 38.3599 41.5994 37.1319 42.326C36.6069 42.6376 36.061 42.9453 35.4885 43.2681C34.2668 43.9567 32.9235 44.7138 31.4013 45.7247C30.8503 46.0918 30.134 46.0918 29.583 45.7247C28.0374 44.702 26.6764 43.9355 25.4436 43.2413C25.1694 43.087 24.9016 42.9362 24.6395 42.787C23.1991 41.9588 21.9003 41.1696 20.7667 40.0289C20.0111 39.2789 19.3577 38.3647 18.8382 37.2787C18.1297 35.8255 17.6495 34.0676 17.2953 31.7941C16.823 28.7548 16.5869 24.778 16.5003 19.262C16.4924 18.8324 16.6577 18.4105 16.9647 18.098C17.2717 17.7932 17.6968 17.6135 18.1376 17.6135H18.8146C20.9005 17.6214 25.5054 17.4182 29.4885 14.3399C30.0788 13.8867 30.9055 13.8867 31.4958 14.3399C35.4789 17.4182 40.0838 17.6214 42.1777 17.6135H42.8624ZM39.2022 35.8725C39.7138 34.8254 40.1389 33.3801 40.4616 31.3018C40.8473 28.8173 41.0835 25.4421 41.1937 20.8481C38.7377 20.7777 34.5185 20.309 30.4961 17.6214C26.4737 20.3011 22.2545 20.77 19.8064 20.8481C19.8929 24.6452 20.0661 27.5985 20.3416 29.919C20.6564 32.5598 21.1052 34.349 21.664 35.6068C22.034 36.4428 22.4434 37.0444 22.9314 37.5756C23.5848 38.2867 24.4112 38.8727 25.5369 39.5445C26.0039 39.8226 26.5187 40.1118 27.0791 40.4267C28.0775 40.9875 29.2206 41.6297 30.4961 42.4354C31.7481 41.6428 32.8747 41.0073 33.8615 40.4505C34.159 40.2827 34.4436 40.1221 34.7153 39.9664C36.1007 39.1773 37.124 38.5211 37.8875 37.7554C38.3993 37.2319 38.8165 36.6616 39.2022 35.8725Z" fill="#3375BB"/>
</g>
<defs>
<clipPath id="clip0_949_14558">
<rect width="60" height="60" fill="white" transform="translate(0.5)"/>
</clipPath>
</defs>
</svg>
