<svg width="61" height="60" viewBox="0 0 61 60" fill="none" xmlns="http://www.w3.org/2000/svg">
<g clip-path="url(#clip0_949_14522)">
<circle cx="30.1001" cy="30" r="30" fill="#FFD3A2"/>
<g clip-path="url(#clip1_949_14522)">
<path fill-rule="evenodd" clip-rule="evenodd" d="M36.9438 41.6545L32.7462 42.7811V41.2995L32.4116 40.96H30.0086V42.6885V43.9078H32.5789L35.7423 42.5188L36.9438 41.6545Z" fill="#CDBDB2"/>
<path fill-rule="evenodd" clip-rule="evenodd" d="M23.2561 41.6545L27.3625 42.7811V41.2995L27.7123 40.96H30.1001V42.6885V43.9078H27.5298L24.3663 42.5188L23.2561 41.6545Z" fill="#CDBDB2"/>
<path fill-rule="evenodd" clip-rule="evenodd" d="M32.412 38.4439L32.7466 41.2991L32.3207 40.9596H27.8797L27.3626 41.2991L27.7124 38.4439L28.3968 38.0117L31.8188 38.0889L32.412 38.4439Z" fill="#393939"/>
<path fill-rule="evenodd" clip-rule="evenodd" d="M34.7241 19.0742L32.6709 23.9358L31.728 38.0886H28.3972L27.363 23.9358L25.4771 19.0742H34.7241Z" fill="#F89C35"/>
<path fill-rule="evenodd" clip-rule="evenodd" d="M43.6971 29.7545L46.1001 36.7923L40.1078 36.4373H36.2599V33.3968L36.4272 27.1616L37.2941 27.8407L43.6971 29.7545Z" fill="#F89D35"/>
<path fill-rule="evenodd" clip-rule="evenodd" d="M39.1636 30.542L32.1523 30.7118L32.9279 34.3541L36.2587 33.4898L39.1636 30.542Z" fill="#D87C30"/>
<path fill-rule="evenodd" clip-rule="evenodd" d="M39.1636 30.6187L36.2587 33.3967V36.1748L39.1636 30.6187Z" fill="#EA8D3A"/>
<path fill-rule="evenodd" clip-rule="evenodd" d="M36.2593 33.4893L32.8373 34.3535L31.727 38.0885L32.5027 38.5207L36.2593 36.2673V33.4893Z" fill="#F89D35"/>
<path fill-rule="evenodd" clip-rule="evenodd" d="M36.2594 36.2676L36.9438 41.6539L32.4116 38.4437L36.2594 36.2676Z" fill="#EB8F35"/>
<path fill-rule="evenodd" clip-rule="evenodd" d="M32.1555 30.7114L31.7301 38.0887L33.0063 34.3229L32.1555 30.7114Z" fill="#EA8E3A"/>
<path fill-rule="evenodd" clip-rule="evenodd" d="M40.1997 36.3602L36.2606 36.2676L36.945 41.6539L40.1997 36.3602Z" fill="#D87C30"/>
<path fill-rule="evenodd" clip-rule="evenodd" d="M44.2142 44L36.9443 41.6541L40.199 36.3604L46.1001 36.7925L44.2142 44Z" fill="#EB8F35"/>
<path fill-rule="evenodd" clip-rule="evenodd" d="M32.6694 23.936L36.3499 27.0691L39.1636 30.5417L32.1523 30.804L32.6694 23.936Z" fill="#E8821E"/>
<path fill-rule="evenodd" clip-rule="evenodd" d="M36.9438 41.6541L32.4116 38.4438L32.7462 41.2219V42.7807L35.8336 42.1788L36.9438 41.6541Z" fill="#DFCEC3"/>
<path fill-rule="evenodd" clip-rule="evenodd" d="M23.2562 41.6541L27.7124 38.4438L27.3626 41.2219V42.7807L24.2904 42.1788L23.2562 41.6541Z" fill="#DFCEC3"/>
<path fill-rule="evenodd" clip-rule="evenodd" d="M34.0404 32.27L33.0975 34.2764L36.4282 33.3967L34.0404 32.27Z" fill="#393939"/>
<path fill-rule="evenodd" clip-rule="evenodd" d="M44.3076 15L32.6728 23.9361L34.6347 19.0745L44.3076 15Z" fill="#E88F35"/>
<path fill-rule="evenodd" clip-rule="evenodd" d="M44.3057 15L45.8418 19.769L44.9901 24.9856L45.5832 25.3252L44.7315 26.1123L45.4159 26.7142L44.473 27.5785L45.0661 28.1032L43.6973 29.8318L37.2792 27.8409C34.1461 25.2943 32.5948 23.9979 32.6556 23.9361C32.7165 23.8744 36.61 20.8957 44.3057 15Z" fill="#8E5A30"/>
<path fill-rule="evenodd" clip-rule="evenodd" d="M16.5031 29.7545L14.1001 36.7923L20.0924 36.4373H23.9403V33.3968L23.773 27.1616L22.9213 27.8407L16.5031 29.7545Z" fill="#F89D35"/>
<path fill-rule="evenodd" clip-rule="evenodd" d="M21.0366 30.542L28.0479 30.7118L27.2875 34.3541L23.9415 33.4898L21.0366 30.542Z" fill="#D87C30"/>
<path fill-rule="evenodd" clip-rule="evenodd" d="M21.0366 30.6187L23.9415 33.3967V36.1748L21.0366 30.6187Z" fill="#EA8D3A"/>
<path fill-rule="evenodd" clip-rule="evenodd" d="M23.9409 33.4893L27.3629 34.3535L28.4732 38.0885L27.7127 38.5207L23.9409 36.2673V33.4893Z" fill="#F89D35"/>
<path fill-rule="evenodd" clip-rule="evenodd" d="M23.9408 36.2676L23.2563 41.6539L27.7126 38.5209L23.9408 36.2676Z" fill="#EB8F35"/>
<path fill-rule="evenodd" clip-rule="evenodd" d="M28.0457 30.7114L28.4711 38.0887L27.1948 34.3229L28.0457 30.7114Z" fill="#EA8E3A"/>
<path fill-rule="evenodd" clip-rule="evenodd" d="M20.0024 36.3602L23.9416 36.2676L23.2572 41.6539L20.0024 36.3602Z" fill="#D87C30"/>
<path fill-rule="evenodd" clip-rule="evenodd" d="M15.986 44L23.2559 41.6541L20.0012 36.3604L14.1001 36.7925L15.986 44Z" fill="#EB8F35"/>
<path fill-rule="evenodd" clip-rule="evenodd" d="M27.5308 23.936L23.8503 27.0691L21.0366 30.5417L28.0479 30.804L27.5308 23.936Z" fill="#E8821E"/>
<path fill-rule="evenodd" clip-rule="evenodd" d="M26.1608 32.27L27.1037 34.2764L23.7729 33.3967L26.1608 32.27Z" fill="#393939"/>
<path fill-rule="evenodd" clip-rule="evenodd" d="M15.8955 15L27.5303 23.9361L25.5684 19.0745L15.8955 15Z" fill="#E88F35"/>
<path fill-rule="evenodd" clip-rule="evenodd" d="M15.8945 15L14.3584 19.769L15.2101 24.9856L14.617 25.3252L15.4687 26.1123L14.7842 26.7142L15.7272 27.5785L15.1341 28.1032L16.5029 29.8318L22.921 27.8409C26.0541 25.2943 27.6054 23.9979 27.5445 23.9361C27.4837 23.8744 23.6054 20.8957 15.8945 15Z" fill="#8E5A30"/>
</g>
</g>
<defs>
<clipPath id="clip0_949_14522">
<rect width="60" height="60" fill="white" transform="translate(0.100098)"/>
</clipPath>
<clipPath id="clip1_949_14522">
<rect width="32" height="32" fill="white" transform="translate(14.1001 14)"/>
</clipPath>
</defs>
</svg>
