<svg width="70" height="32" viewBox="0 0 70 32" fill="none" xmlns="http://www.w3.org/2000/svg">
<path d="M23.533 4.73388C23.533 4.73388 24.783 4.78388 26.083 4.93388C23.158 2.63388 20.383 1.95888 18.133 1.95888C15.033 1.95888 12.933 3.23388 12.808 3.30888L13.783 1.75888C13.783 1.75888 9.883 1.38388 8.508 5.50888C8.158 4.63388 7.833 3.35888 7.833 3.35888C7.833 3.35888 5.808 5.13388 6.758 8.08388C4.433 7.23388 1.108 6.05888 0.983 6.03388C0.808 6.00888 0.758 6.08388 0.758 6.08388C0.758 6.08388 0.708 6.15888 0.858 6.28388C1.133 6.50888 6.383 10.3839 7.533 11.1339C7.283 12.0339 7.283 12.4589 7.533 12.8839C7.883 13.4589 7.908 13.7589 7.858 14.1839C7.808 14.6089 7.358 18.2839 7.258 18.7339C7.158 19.1839 6.108 20.7839 6.158 21.2589C6.208 21.7339 6.858 23.7589 7.433 23.9839C7.858 24.1339 8.908 24.4589 9.608 24.4589C9.858 24.4589 10.083 24.4089 10.183 24.3089C10.608 23.9339 10.733 23.8589 11.033 23.8589C11.058 23.8589 11.083 23.8589 11.108 23.8589C11.233 23.8589 11.383 23.8839 11.558 23.8839C11.958 23.8839 12.483 23.8089 12.858 23.4589C13.408 22.9089 14.358 22.1589 14.658 21.8089C15.033 21.3339 15.233 20.6839 15.133 20.0339C15.058 19.4339 15.383 18.9089 15.758 18.3839C16.233 17.7589 17.108 16.6339 17.108 16.6339C18.833 17.9339 19.908 19.9089 19.908 22.1089C19.908 26.0089 16.508 29.1589 12.308 29.1589C11.658 29.1589 11.033 29.0839 10.408 28.9339C12.333 29.6089 13.958 29.8339 15.283 29.8339C18.108 29.8339 19.608 28.8089 19.608 28.8089C19.608 28.8089 19.083 29.4839 18.233 30.2589C18.258 30.2589 18.258 30.2589 18.258 30.2589C22.933 29.6089 25.208 25.7589 25.208 25.7589C25.208 25.7589 25.033 27.0089 24.808 27.8589C31.033 23.1839 29.983 17.3339 29.958 17.1339C30.008 17.2089 30.633 17.9589 30.958 18.3589C31.958 8.05888 23.533 4.73388 23.533 4.73388Z" fill="#1B314F"/>
<path fill-rule="evenodd" clip-rule="evenodd" d="M13.3542 21.758L13.3543 21.7579L13.3544 21.7578C13.6114 21.5249 13.8812 21.2803 13.9582 21.1841C14.1582 20.8841 14.2832 20.5091 14.2332 20.1091V20.0591C13.9582 18.9841 12.8832 18.4091 12.5332 18.4341C12.1332 18.4841 11.5832 18.5591 11.4082 18.6841C11.7332 18.1841 12.1832 17.9341 12.6332 17.8091C13.0082 16.7341 13.8082 14.5341 13.9832 14.3841C14.0832 14.3091 14.3332 14.2341 14.7582 14.1091C15.0082 14.0591 15.3582 13.9591 15.4082 13.9091C15.4913 13.7844 16.1958 12.1063 16.4746 11.442L16.4757 11.4396C16.5319 11.3057 16.5706 11.2135 16.5832 11.1841C16.5582 11.0091 16.0582 9.73408 15.5332 8.50908C14.2582 9.43408 12.8832 9.18408 12.8832 9.18408C12.8832 9.18408 13.8582 8.90908 14.8582 7.43408C15.8332 5.95908 14.9082 3.93408 14.9082 3.93408C14.9082 3.93408 11.4832 9.08408 11.0582 9.18408C10.6332 9.28408 10.3332 8.75908 10.3332 8.75908C10.3332 8.75908 9.43318 11.1091 9.18318 11.9591C8.93318 12.8091 9.23318 13.6091 9.45818 14.0091C9.70818 14.4091 10.2332 15.4091 9.50818 16.4341C9.60818 15.9841 9.15818 15.2841 8.83318 14.8591C8.70818 15.9591 8.38318 18.5841 8.28318 19.0091C8.23554 19.2949 8.07443 19.6034 7.79984 20.1293L7.75818 20.2091C7.71613 20.2932 7.66229 20.395 7.60492 20.5034C7.45766 20.7818 7.28716 21.1042 7.23318 21.2841C7.33318 21.7341 7.70818 22.8091 7.95818 23.1341C8.30818 23.2591 8.80818 23.3841 9.23318 23.4591C9.43318 23.4591 9.68318 23.3591 10.0332 23.0341C10.1011 22.9714 10.1665 22.9117 10.2294 22.8544L10.2295 22.8543C10.7687 22.3626 11.1212 22.0412 11.2332 21.4591C11.2749 21.2508 11.2971 21.0035 11.3193 20.7563C11.3637 20.2619 11.4082 19.7674 11.6082 19.5841C11.8832 19.3091 12.4832 19.1841 12.9582 19.3091C12.5832 19.3091 12.1582 19.4841 12.1582 19.4841C12.1582 19.4841 12.8832 19.3591 13.1582 19.8841C13.4332 20.4091 13.2082 20.7091 12.7582 21.0091C12.3832 21.2591 11.2832 22.4091 10.9082 22.9091H11.6582C11.9582 22.9091 12.1582 22.8591 12.2582 22.7591C12.4213 22.596 12.6164 22.4222 12.8156 22.2447L12.8157 22.2446L12.8162 22.2442C12.9221 22.1498 13.0291 22.0545 13.1332 21.9591C13.202 21.896 13.2773 21.8278 13.3538 21.7584L13.3542 21.758ZM14.3082 7.10905C14.8832 6.43405 14.6582 5.43405 14.6582 5.43405L12.9832 7.90905C12.9582 7.90905 13.5832 7.93405 14.3082 7.10905ZM8.68319 20.6341L8.88319 19.6341C8.88319 19.6341 8.05819 21.0841 7.98319 21.2841C7.90819 21.5091 8.03319 21.9091 8.35819 21.8841C8.68319 21.8591 9.08319 21.3841 9.08319 21.0341C9.08319 20.5841 8.68319 20.6341 8.68319 20.6341ZM13.3582 13.0341C13.8332 12.4841 13.5832 11.4591 12.7082 11.2841C12.9332 10.7591 13.2582 9.70907 13.2582 9.70907C13.2582 9.70907 10.7082 13.7091 10.4832 13.7841C10.2582 13.8591 10.0332 12.9841 10.0332 12.9841C9.55818 14.8091 10.8332 15.0591 10.9832 14.4841C11.6832 14.3091 12.8832 13.5591 13.3582 13.0341Z" fill="white"/>
<path d="M11.8211 20.5912C11.8075 20.8332 11.7852 21.2283 11.6082 21.4841C11.6256 21.4667 11.6794 21.4098 11.7496 21.3357L11.7498 21.3355C11.881 21.1969 12.0692 20.9981 12.1832 20.8841C12.261 20.814 12.3486 20.7585 12.4322 20.7055C12.6172 20.5881 12.7832 20.4829 12.7832 20.2591C12.7832 19.9091 12.3082 19.8341 12.1082 19.8841C11.9082 19.9341 11.8582 20.2591 11.8332 20.4341C11.8279 20.4714 11.8248 20.5257 11.8211 20.5912Z" fill="white"/>
<path d="M21.5832 16.7091C21.8332 15.4341 21.8582 14.3341 21.7832 13.4341C22.7582 14.7341 23.3582 16.3091 23.5332 17.9341C23.5582 18.1341 23.7582 18.3341 23.9582 18.5341C24.1332 18.6841 24.3332 18.8841 24.3332 19.0091C24.3332 19.5841 24.2832 20.1591 24.1832 20.7341C24.1595 20.8052 23.9561 20.9212 23.7859 21.0183L23.7582 21.0341C23.5082 21.1591 23.2832 21.2841 23.2332 21.4841C22.6832 23.4091 21.5082 25.1091 19.9332 26.3091C22.2582 23.8841 23.3832 19.8841 21.5832 16.7091Z" fill="white"/>
<path d="M23.4332 21.5591C22.8832 23.5341 21.6332 25.2841 20.0082 26.5341C23.4582 24.8841 25.8332 21.3591 25.8332 17.3091C25.8332 12.0341 21.8332 7.68408 16.7082 7.13408C16.5332 7.40908 16.3582 7.65908 16.1832 7.85908C16.5582 8.78408 17.5332 11.2091 17.5332 11.3341C17.5332 11.4841 17.0582 12.7091 17.0082 12.7591C16.9582 12.7841 16.3832 12.8341 16.1582 12.8341C15.9082 13.4341 15.6582 14.0091 15.6082 14.0841C15.5332 14.1841 15.3082 14.2591 14.8332 14.3841C14.7827 14.3992 14.7271 14.4154 14.6701 14.432L14.6695 14.4322L14.6692 14.4322L14.6691 14.4323C14.4442 14.4977 14.198 14.5692 14.1582 14.6091C14.0332 14.7591 13.3582 16.5341 12.9082 17.7841C13.5082 17.6841 14.0332 17.8091 14.1582 17.8591C15.1332 16.0091 15.9082 15.0091 16.1082 15.0091C16.1294 15.0064 16.1752 15.008 16.2412 15.0103C16.7964 15.0294 18.7814 15.0977 19.6082 13.1091C20.4947 10.942 19.2466 9.09033 19.1613 8.96366L19.1582 8.95908L19.1621 8.961C19.2724 9.01451 21.2163 9.95755 21.7082 12.9091C22.8332 14.3341 23.5582 16.0591 23.7582 17.8841C23.7582 17.9775 23.87 18.099 23.9786 18.217L23.9788 18.2171L23.979 18.2173C24.0156 18.257 24.0517 18.2964 24.0832 18.3341C24.3082 18.5591 24.5332 18.7841 24.5332 19.0091C24.5332 19.6091 24.4832 20.2091 24.3832 20.7841C24.3332 20.9841 24.0832 21.1341 23.8332 21.2591C23.7993 21.2817 23.7616 21.3055 23.7232 21.3298L23.7228 21.3301L23.7227 21.3301C23.5914 21.4132 23.4525 21.5011 23.4332 21.5591Z" fill="white"/>
<path d="M8.7332 10.3341C8.9082 10.0091 8.7582 9.78408 8.6082 9.65908L8.5582 9.60908C8.2582 9.45908 6.3832 8.75908 4.5332 8.10908C6.1582 9.18408 7.9582 10.2341 8.2582 10.3841C8.4832 10.4841 8.6332 10.5091 8.7332 10.3341Z" fill="white"/>
<path d="M13.3542 21.7576L13.3541 21.7577L13.3527 21.759C13.2765 21.828 13.2015 21.896 13.1331 21.9588C13.029 22.0542 12.9219 22.1496 12.8161 22.2439L12.8156 22.2443L12.8154 22.2444C12.6162 22.4219 12.4212 22.5957 12.2581 22.7588C12.1581 22.8588 11.9581 22.9088 11.6581 22.9088H10.9081C11.0585 22.7083 11.3255 22.4032 11.6155 22.0936C11.7753 21.9457 11.9366 21.8044 12.083 21.6838C12.3394 21.4716 12.5957 21.3282 12.82 21.2028C13.2301 20.9734 13.533 20.8039 13.533 20.3838C13.5488 19.5318 12.9772 19.3669 12.5532 19.3611C12.6797 19.3318 12.8221 19.3088 12.9581 19.3088C12.4831 19.1838 11.8831 19.3088 11.6081 19.5838C11.4081 19.7671 11.3636 20.2616 11.3192 20.756C11.297 21.0032 11.2747 21.2505 11.2331 21.4588C11.1211 22.0409 10.7686 22.3623 10.2294 22.854L10.2277 22.8555C10.1653 22.9124 10.1004 22.9716 10.0331 23.0338C10.0174 23.0484 10.0018 23.0625 9.98652 23.0762L8.33301 22.7088C8.33301 22.7088 9.43301 22.1338 9.60801 21.4838C9.76475 20.924 9.35995 19.201 9.2558 18.7577C9.24367 18.7061 9.23562 18.6718 9.23301 18.6588C9.23455 18.6603 9.23789 18.6634 9.24286 18.6679C9.31855 18.7372 9.77187 19.1519 9.98301 19.8088C10.383 18.7088 10.908 17.6588 11.058 17.5588C11.1869 17.4728 12.7001 16.6671 13.1235 16.4419C12.9384 16.9444 12.761 17.4421 12.6331 17.8088C12.1831 17.9338 11.7331 18.1838 11.4081 18.6838C11.5831 18.5588 12.1331 18.4838 12.5331 18.4338C12.8831 18.4088 13.9581 18.9838 14.2331 20.0588V20.1088C14.2831 20.5088 14.1581 20.8838 13.9581 21.1838C13.881 21.2801 13.6112 21.5246 13.3542 21.7576Z" fill="#94A6C3"/>
<path d="M13.1092 17.758C13.6222 17.7112 14.0473 17.8145 14.1581 17.8588C15.1331 16.0088 15.9081 15.0088 16.1081 15.0088C16.1293 15.0061 16.1751 15.0077 16.2411 15.01C16.7963 15.0291 18.7813 15.0974 19.6081 13.1088C20.4946 10.9417 19.2465 9.09003 19.1611 8.96337L19.1581 8.95879L19.162 8.96071C19.27 9.01313 21.1378 9.91924 21.6763 12.7311C22.9185 14.1809 23.6973 15.9916 23.908 17.9088C23.908 18.0338 24.083 18.2088 24.258 18.3588C24.483 18.5838 24.708 18.8088 24.708 19.0338C24.708 19.6338 24.658 20.2338 24.558 20.8088C24.5137 20.9858 24.3128 21.1041 24.0938 21.2329L24.0937 21.233L24.0935 21.2331C24.0652 21.2498 24.0366 21.2666 24.008 21.2838C23.974 21.3064 23.9362 21.3303 23.8977 21.3547L23.8976 21.3548C23.7662 21.4379 23.6273 21.5258 23.608 21.5838C23.099 23.3884 22.0333 25.0003 20.609 26.2214C22.9598 24.8986 24.7324 22.6749 25.4646 20.0303C25.7077 18.9879 25.7493 17.8959 25.558 16.7838C24.658 11.6838 19.4581 9.08379 19.1581 8.95879C20.2081 12.4088 17.883 14.3338 16.308 14.3588C15.433 14.3588 14.258 14.9338 14.258 14.9338L13.1092 17.758Z" fill="#94A6C3"/>
<path d="M13.1501 9.06967C13.0556 9.0928 12.9582 9.11421 12.858 9.13374C12.859 9.13374 12.8657 9.13571 12.8778 9.13926C12.8933 9.14385 12.9179 9.15109 12.9507 9.16016C12.9966 9.14248 13.0644 9.11366 13.1501 9.06967Z" fill="#94A6C3"/>
<path d="M13.1501 9.21019C13.6117 9.23345 14.5992 9.18629 15.5331 8.50879C15.628 8.7302 15.722 8.95325 15.8126 9.17114C14.6641 9.47928 13.6343 9.32048 13.1501 9.21019Z" fill="#94A6C3"/>
<path d="M16.5977 8.88791C17.2198 8.60158 17.8483 8.15346 18.4207 7.46808C17.8675 7.30966 17.2952 7.19679 16.7081 7.13379C16.5331 7.40879 16.3581 7.65879 16.1831 7.85879C16.2866 8.11416 16.4358 8.48385 16.5977 8.88791Z" fill="#94A6C3"/>
<path d="M21.5831 16.7088C21.8331 15.4338 21.8581 14.3338 21.7831 13.4338C22.7581 14.7338 23.3581 16.3088 23.5331 17.9338C23.5581 18.1338 23.7581 18.3338 23.9581 18.5338C24.1331 18.6838 24.3331 18.8838 24.3331 19.0088C24.3331 19.5838 24.2831 20.1588 24.1831 20.7338C24.1594 20.8049 23.956 20.9209 23.7858 21.0179L23.7581 21.0338C23.5081 21.1588 23.2831 21.2838 23.2331 21.4838C22.6831 23.4088 21.5081 25.1088 19.9331 26.3088C22.2581 23.8838 23.3831 19.8838 21.5831 16.7088Z" fill="#94A6C3"/>
<path d="M11.1826 14.0092L12.4826 11.7842C12.4826 11.7842 13.2326 12.1592 12.8576 12.7592C12.3826 13.4592 11.1826 14.0092 11.1826 14.0092Z" fill="#FFD923"/>
<path d="M27.2583 24.3088C26.8833 24.8088 26.4583 25.3338 25.9583 25.8338C29.1833 19.6338 26.1083 13.9588 25.9833 13.7338C26.2083 13.9588 26.4333 14.2088 26.6333 14.4338C29.1083 17.1838 29.4083 21.3088 27.2583 24.3088Z" fill="#D82122"/>
<path d="M30.2583 16.3338C29.1333 13.3088 27.5333 10.7338 24.0083 8.40876C20.6083 6.15876 16.9583 6.33376 16.7583 6.35876C16.7333 6.35876 16.7083 6.35876 16.7083 6.35876C16.8333 6.30876 16.9583 6.28376 17.0833 6.25876C17.8583 6.00876 18.8583 5.80876 19.8583 5.68376C22.5083 5.30876 25.1833 6.20876 27.0083 8.13376C27.0333 8.15876 27.0333 8.15876 27.0583 8.18376C29.1333 10.3838 30.2083 13.1338 30.2583 16.3338Z" fill="#D82122"/>
<path d="M23.2083 3.95883C19.4833 3.25883 17.0833 3.60883 15.3583 4.25883C15.3083 4.05883 15.1333 3.65883 14.9833 3.33383C14.4583 3.95883 13.9083 4.70883 13.5583 5.18383C12.6083 5.83383 12.2083 6.45883 12.2083 6.45883C12.7583 4.58383 14.3583 3.18383 16.3083 2.83383C16.8583 2.73383 17.4583 2.68383 18.1083 2.68383C19.8333 2.70883 21.5583 3.13383 23.2083 3.95883Z" fill="#D82122"/>
<path d="M9.43333 8.75883C6.50833 8.65883 7.48333 5.25883 7.53333 5.05883C7.53333 5.08383 7.73333 7.73383 9.43333 8.75883Z" fill="#D82122"/>
<path d="M12.3083 2.63379C10.0583 3.98379 10.5083 7.20879 10.5083 7.20879C8.35832 3.93379 12.1333 2.70879 12.3083 2.63379Z" fill="#D82122"/>
<path d="M38 10.1006H38.2052C39.554 10.1006 40.8096 10.7857 41.5353 11.9175L45.1111 17.4948V12.4604C45.1111 11.1571 46.1724 10.1006 47.4815 10.1006V21.8999H47.2763C45.9275 21.8999 44.6719 21.2148 43.9462 20.0829L40.3704 14.5056V19.54C40.3704 20.8433 39.3091 21.8999 38 21.8999V10.1006Z" fill="#C91D70"/>
<path d="M49.8519 21.8999V10.1006H59.3333C59.3333 11.4039 58.2721 12.4604 56.963 12.4604H52.2222V14.8203H56.963C56.963 16.1236 55.9017 17.1801 54.5926 17.1801H52.2222V19.54C52.2222 20.8433 51.161 21.8999 49.8519 21.8999Z" fill="#C91D70"/>
<path d="M62.8889 10.1006C61.5798 10.1006 60.5185 11.1571 60.5185 12.4604H64.0741V21.8999H66.4444V12.4604H67.6296C68.9387 12.4604 70 11.4039 70 10.1006H62.8889Z" fill="#C91D70"/>
</svg>
