<svg width="180" height="50" viewBox="0 0 180 50" fill="none" xmlns="http://www.w3.org/2000/svg">
<g clip-path="url(#clip0_3512_54365)">
<path d="M36.3374 7.27745C36.3374 7.27745 38.2675 7.35431 40.2749 7.5849C35.7583 4.04918 31.4734 3.01153 27.9991 3.01153C23.2124 3.01153 19.9697 4.97154 19.7767 5.08684L21.2822 2.70407C21.2822 2.70407 15.2601 2.1276 13.137 8.46883C12.5965 7.12372 12.0947 5.1637 12.0947 5.1637C12.0947 5.1637 8.96786 7.89235 10.4348 12.4273C6.8447 11.1206 1.71051 9.31433 1.51749 9.27589C1.24727 9.23746 1.17007 9.35276 1.17007 9.35276C1.17007 9.35276 1.09286 9.46805 1.32448 9.66021C1.74911 10.0061 9.85573 15.963 11.6315 17.116C11.2454 18.4995 11.2454 19.1528 11.6315 19.8062C12.1719 20.6901 12.2105 21.1513 12.1333 21.8046C12.0561 22.458 11.3612 28.1074 11.2068 28.7992C11.0524 29.491 9.4311 31.9506 9.5083 32.6808C9.58551 33.411 10.5892 36.524 11.4771 36.8698C12.1333 37.1004 13.7546 37.6 14.8355 37.6C15.2215 37.6 15.569 37.5232 15.7234 37.3695C16.3796 36.793 16.5726 36.6777 17.0359 36.6777C17.0745 36.6777 17.1131 36.6777 17.1517 36.6777C17.3447 36.6777 17.5763 36.7161 17.8465 36.7161C18.4642 36.7161 19.2749 36.6008 19.8539 36.0628C20.7032 35.2173 22.1701 34.0643 22.6333 33.5263C23.2124 32.7961 23.5212 31.7969 23.3668 30.7976C23.251 29.8753 23.7528 29.0682 24.3318 28.2611C25.0653 27.3004 26.4164 25.5709 26.4164 25.5709C29.08 27.5694 30.7399 30.6055 30.7399 33.9875C30.7399 39.9828 25.4899 44.8252 19.0046 44.8252C18.001 44.8252 17.0359 44.7099 16.0708 44.4793C19.0432 45.517 21.5524 45.8629 23.5984 45.8629C27.9605 45.8629 30.2767 44.2872 30.2767 44.2872C30.2767 44.2872 29.466 45.3248 28.1535 46.5162C28.1921 46.5162 28.1921 46.5162 28.1921 46.5162C35.4109 45.517 38.9238 39.5985 38.9238 39.5985C38.9238 39.5985 38.6535 41.5201 38.3061 42.8268C47.9182 35.64 46.2969 26.647 46.2583 26.3396C46.3355 26.4549 47.3006 27.6078 47.8024 28.2227C49.3465 12.3889 36.3374 7.27745 36.3374 7.27745Z" fill="#1B314F"/>
<path fill-rule="evenodd" clip-rule="evenodd" d="M20.6197 33.4475L20.6199 33.4473L20.6201 33.4472C21.0169 33.0891 21.4334 32.7132 21.5523 32.5652C21.8611 32.104 22.0541 31.5276 21.9769 30.9127V30.8358C21.5523 29.1832 19.8924 28.2993 19.3519 28.3377C18.7343 28.4146 17.885 28.5299 17.6148 28.7221C18.1166 27.9534 18.8115 27.5691 19.5063 27.3769C20.0854 25.7244 21.3207 22.3424 21.5909 22.1118C21.7453 21.9965 22.1313 21.8812 22.7876 21.6891C23.1736 21.6122 23.7141 21.4585 23.7913 21.3816C23.9196 21.19 25.0074 18.6103 25.438 17.5891L25.4396 17.5853C25.5263 17.3796 25.5861 17.2378 25.6056 17.1926C25.567 16.9235 24.795 14.9635 23.9843 13.0804C22.0155 14.5023 19.8924 14.118 19.8924 14.118C19.8924 14.118 21.3979 13.6953 22.942 11.4278C24.4475 9.16033 23.0192 6.04736 23.0192 6.04736C23.0192 6.04736 17.7306 13.9643 17.0744 14.118C16.4181 14.2717 15.9549 13.4647 15.9549 13.4647C15.9549 13.4647 14.5652 17.0773 14.1791 18.3839C13.7931 19.6906 14.2563 20.9204 14.6038 21.5353C14.9898 22.1502 15.8005 23.6875 14.681 25.2632C14.8354 24.5714 14.1405 23.4954 13.6387 22.842C13.4457 24.533 12.9438 28.5683 12.7894 29.2217C12.7159 29.6611 12.4671 30.1354 12.0431 30.9437L11.9788 31.0664C11.9138 31.1957 11.8307 31.3522 11.7421 31.5189C11.5147 31.9469 11.2515 32.4424 11.1681 32.719C11.3225 33.4107 11.9016 35.0633 12.2876 35.5629C12.828 35.7551 13.6001 35.9472 14.2563 36.0625C14.5652 36.0625 14.9512 35.9088 15.4916 35.4092C15.5965 35.3129 15.6975 35.2211 15.7946 35.133L15.7948 35.1328C16.6274 34.3769 17.1717 33.8828 17.3446 32.988C17.4089 32.6677 17.4432 32.2877 17.4775 31.9076C17.5462 31.1475 17.6148 30.3874 17.9236 30.1056C18.3483 29.6829 19.2747 29.4907 20.0082 29.6828C19.4291 29.6828 18.7729 29.9519 18.7729 29.9519C18.7729 29.9519 19.8924 29.7597 20.317 30.5668C20.7416 31.3738 20.3942 31.835 19.6994 32.2962C19.1203 32.6805 17.4218 34.4484 16.8427 35.217H18.0008C18.4641 35.217 18.7729 35.1402 18.9273 34.9864C19.1792 34.7357 19.4804 34.4685 19.788 34.1957L19.7882 34.1955L19.7889 34.1949C19.9524 34.0499 20.1177 33.9032 20.2784 33.7566C20.3846 33.6597 20.5009 33.5547 20.619 33.4482L20.6197 33.4475ZM22.0928 10.9281C22.9806 9.89049 22.6332 8.35322 22.6332 8.35322L20.0468 12.158C20.0082 12.158 20.9733 12.1964 22.0928 10.9281ZM13.4071 31.7198L13.7159 30.1825C13.7159 30.1825 12.442 32.4115 12.3262 32.719C12.2104 33.0649 12.4034 33.6798 12.9053 33.6414C13.4071 33.6029 14.0247 32.8727 14.0247 32.3347C14.0247 31.6429 13.4071 31.7198 13.4071 31.7198ZM20.6258 20.0365C21.3593 19.191 20.9733 17.6153 19.6222 17.3463C19.9696 16.5392 20.4714 14.9251 20.4714 14.9251C20.4714 14.9251 16.5339 21.0741 16.1865 21.1894C15.8391 21.3047 15.4916 19.9596 15.4916 19.9596C14.7582 22.7651 16.7269 23.1495 16.9586 22.2655C18.0394 21.9965 19.8924 20.8435 20.6258 20.0365Z" fill="white"/>
<path d="M18.2524 31.6538C18.2314 32.0259 18.197 32.6332 17.9236 33.0264C17.9505 32.9996 18.0336 32.9122 18.1419 32.7983L18.1422 32.798C18.3448 32.5849 18.6355 32.2793 18.8115 32.104C18.9317 31.9963 19.0669 31.911 19.196 31.8295C19.4817 31.6491 19.738 31.4873 19.738 31.1433C19.738 30.6052 19.0045 30.4899 18.6957 30.5668C18.3869 30.6436 18.3097 31.1433 18.2711 31.4123C18.2628 31.4696 18.2581 31.5531 18.2524 31.6538Z" fill="white"/>
<path d="M33.3262 25.686C33.7122 23.7259 33.7508 22.0349 33.635 20.6514C35.1405 22.6499 36.067 25.071 36.3372 27.5691C36.3758 27.8766 36.6847 28.184 36.9935 28.4915C37.2637 28.7221 37.5725 29.0295 37.5725 29.2217C37.5725 30.1056 37.4953 30.9895 37.3409 31.8735C37.3043 31.9827 36.9902 32.1611 36.7275 32.3103L36.6847 32.3346C36.2986 32.5268 35.9512 32.719 35.874 33.0264C35.0247 35.9856 33.2104 38.599 30.7784 40.4437C34.3685 36.7158 36.1056 30.5668 33.3262 25.686Z" fill="white"/>
<path d="M36.1828 33.1417C35.3336 36.1778 33.4034 38.868 30.8942 40.7896C36.2214 38.2531 39.8887 32.8343 39.8887 26.6083C39.8887 18.4992 33.7122 11.8121 25.7986 10.9666C25.5284 11.3894 25.2582 11.7737 24.988 12.0811C25.567 13.5031 27.0725 17.231 27.0725 17.4231C27.0725 17.6537 26.3391 19.5369 26.2619 19.6138C26.1847 19.6522 25.2968 19.729 24.9494 19.729C24.5633 20.6514 24.1773 21.5353 24.1001 21.6506C23.9843 21.8044 23.6369 21.9197 22.9034 22.1118C22.8254 22.1351 22.7395 22.16 22.6515 22.1854L22.6506 22.1857L22.6502 22.1858L22.65 22.1859C22.3028 22.2864 21.9226 22.3965 21.8611 22.4577C21.6681 22.6883 20.6258 25.4169 19.931 27.3385C20.8575 27.1848 21.6681 27.377 21.8611 27.4538C23.3666 24.6099 24.5633 23.0726 24.8722 23.0726C24.905 23.0685 24.9757 23.0709 25.0776 23.0744C25.9349 23.1038 29 23.2089 30.2766 20.1518C31.6455 16.8205 29.7183 13.9739 29.5865 13.7792L29.5817 13.7721L29.5878 13.7751C29.7581 13.8573 32.7596 15.307 33.5192 19.8443C35.2563 22.0349 36.3758 24.6867 36.6847 27.4922C36.6847 27.6359 36.8573 27.8226 37.0251 28.004L37.0254 28.0043L37.0256 28.0046C37.0821 28.0656 37.1379 28.126 37.1865 28.184C37.5339 28.5299 37.8813 28.8758 37.8813 29.2217C37.8813 30.144 37.8041 31.0664 37.6497 31.9503C37.5725 32.2578 37.1865 32.4884 36.8005 32.6805C36.7482 32.7152 36.6899 32.752 36.6307 32.7893L36.6301 32.7896L36.6299 32.7897C36.4271 32.9175 36.2127 33.0526 36.1828 33.1417Z" fill="white"/>
<path d="M13.4843 15.8859C13.7545 15.3863 13.5229 15.0404 13.2913 14.8482L13.2141 14.7713C12.7509 14.5408 9.85564 13.4647 6.99902 12.4654C9.50821 14.118 12.2876 15.7321 12.7509 15.9627C13.0983 16.1165 13.3299 16.1549 13.4843 15.8859Z" fill="white"/>
<path d="M20.6201 33.4475L20.6199 33.4477L20.6177 33.4497C20.5001 33.5558 20.3843 33.6603 20.2786 33.7568C20.1179 33.9034 19.9526 34.05 19.7891 34.1951L19.7884 34.1957L19.7881 34.1959C19.4805 34.4687 19.1793 34.7358 18.9274 34.9866C18.773 35.1403 18.4642 35.2172 18.001 35.2172H16.8429C17.0751 34.9089 17.4874 34.44 17.9353 33.964C18.182 33.7367 18.431 33.5194 18.6571 33.334C19.053 33.0079 19.4488 32.7875 19.7951 32.5946C20.4283 32.242 20.8961 31.9815 20.8961 31.3356C20.9205 30.0259 20.0378 29.7723 19.3832 29.7634C19.5784 29.7184 19.7985 29.683 20.0083 29.683C19.2749 29.4909 18.3484 29.683 17.9238 30.1058C17.6149 30.3876 17.5463 31.1477 17.4777 31.9078C17.4434 32.2878 17.4091 32.6679 17.3447 32.9882C17.1719 33.883 16.6275 34.3771 15.7949 35.133L15.7924 35.1353C15.696 35.2228 15.5957 35.3138 15.4918 35.4094C15.4675 35.4318 15.4436 35.4535 15.4199 35.4746L12.8667 34.9097C12.8667 34.9097 14.5652 34.0258 14.8355 33.0265C15.0775 32.166 14.4524 29.5173 14.2916 28.8359C14.2729 28.7565 14.2604 28.7038 14.2564 28.6838C14.2588 28.6861 14.2639 28.6908 14.2716 28.6978C14.3885 28.8043 15.0885 29.4418 15.4145 30.4516C16.0321 28.7606 16.8428 27.1465 17.0744 26.9928C17.2734 26.8607 19.61 25.622 20.2638 25.2759C19.9779 26.0484 19.704 26.8134 19.5065 27.3771C18.8116 27.5693 18.1168 27.9536 17.6149 28.7222C17.8852 28.5301 18.7344 28.4148 19.3521 28.3379C19.8925 28.2995 21.5524 29.1834 21.9771 30.836V30.9128C22.0543 31.5278 21.8613 32.1042 21.5524 32.5654C21.4335 32.7134 21.0169 33.0894 20.6201 33.4475Z" fill="#94A6C3"/>
<path d="M20.2417 27.299C21.0338 27.2271 21.6902 27.3859 21.8613 27.454C23.3668 24.61 24.5635 23.0728 24.8723 23.0728C24.9051 23.0687 24.9758 23.0711 25.0777 23.0746C25.935 23.104 29.0001 23.209 30.2767 20.152C31.6456 16.8206 29.7184 13.9741 29.5866 13.7793L29.5819 13.7723L29.5879 13.7753C29.7548 13.8558 32.6388 15.2488 33.4703 19.5714C35.3884 21.8001 36.591 24.5836 36.9163 27.5308C36.9163 27.723 37.1866 27.992 37.4568 28.2226C37.8042 28.5685 38.1516 28.9144 38.1516 29.2602C38.1516 30.1826 38.0744 31.105 37.92 31.9889C37.8517 32.261 37.5414 32.4429 37.2033 32.6409L37.203 32.6411L37.2028 32.6412C37.1591 32.6668 37.1149 32.6927 37.0707 32.7191C37.0183 32.7539 36.9599 32.7907 36.9005 32.8281L36.9002 32.8283C36.6974 32.956 36.4829 33.0911 36.4531 33.1803C35.6671 35.9545 34.0216 38.4325 31.8223 40.3096C35.4521 38.2761 38.1892 34.8577 39.3199 30.7921C39.6953 29.1897 39.7594 27.511 39.4641 25.8014C38.0744 17.9613 30.0451 13.9645 29.5819 13.7723C31.2032 19.0759 27.613 22.0351 25.181 22.0735C23.8299 22.0735 22.0156 22.9574 22.0156 22.9574L20.2417 27.299Z" fill="#94A6C3"/>
<path d="M20.3049 13.9428C20.1589 13.9783 20.0086 14.0112 19.8539 14.0413C19.8553 14.0413 19.8657 14.0443 19.8843 14.0497C19.9084 14.0568 19.9463 14.0679 19.997 14.0819C20.0678 14.0547 20.1726 14.0104 20.3049 13.9428Z" fill="#94A6C3"/>
<path d="M20.3049 14.1588C21.0176 14.1945 22.5425 14.122 23.9844 13.0805C24.131 13.4209 24.2762 13.7638 24.4161 14.0987C22.6426 14.5724 21.0525 14.3283 20.3049 14.1588Z" fill="#94A6C3"/>
<path d="M25.6283 13.6633C26.5889 13.2232 27.5594 12.5343 28.4433 11.4807C27.589 11.2372 26.7053 11.0637 25.7988 10.9668C25.5286 11.3895 25.2583 11.7739 24.9881 12.0813C25.148 12.4739 25.3784 13.0422 25.6283 13.6633Z" fill="#94A6C3"/>
<path d="M33.3263 25.6861C33.7124 23.7261 33.751 22.0351 33.6352 20.6516C35.1407 22.65 36.0672 25.0712 36.3374 27.5693C36.376 27.8767 36.6848 28.1842 36.9936 28.4916C37.2638 28.7222 37.5727 29.0297 37.5727 29.2219C37.5727 30.1058 37.4955 30.9897 37.341 31.8736C37.3045 31.9829 36.9904 32.1612 36.7277 32.3105L36.6848 32.3348C36.2988 32.527 35.9513 32.7191 35.8741 33.0266C35.0249 35.9858 33.2105 38.5992 30.7785 40.4439C34.3686 36.716 36.1058 30.567 33.3263 25.6861Z" fill="#94A6C3"/>
<path d="M17.2671 21.5357L19.2744 18.1152C19.2744 18.1152 20.4325 18.6917 19.8535 19.6141C19.12 20.6902 17.2671 21.5357 17.2671 21.5357Z" fill="#FFD923"/>
<path d="M42.0891 37.3691C41.51 38.1377 40.8538 38.9448 40.0817 39.7134C45.0615 30.1823 40.3133 21.4584 40.1203 21.1125C40.4678 21.4584 40.8152 21.8427 41.124 22.1886C44.9457 26.416 45.4089 32.7573 42.0891 37.3691Z" fill="#D82122"/>
<path d="M46.7214 25.1094C44.9843 20.4591 42.5137 16.5007 37.0707 12.9265C31.8207 9.46765 26.1847 9.73668 25.8758 9.77511C25.8372 9.77511 25.7986 9.77511 25.7986 9.77511C25.9916 9.69824 26.1847 9.65981 26.3777 9.62138C27.5744 9.23706 29.1185 8.92961 30.6626 8.73745C34.7545 8.16098 38.885 9.54452 41.703 12.5038C41.7417 12.5422 41.7416 12.5422 41.7803 12.5806C44.9843 15.9626 46.6442 20.1901 46.7214 25.1094Z" fill="#D82122"/>
<path d="M35.8354 6.08576C30.0836 5.00968 26.3777 5.54772 23.7141 6.54694C23.6369 6.23949 23.3666 5.62458 23.135 5.12497C22.3244 6.08576 21.4751 7.23871 20.9347 7.96892C19.4678 8.96814 18.8501 9.92893 18.8501 9.92893C19.6994 7.04656 22.17 4.89438 25.181 4.35634C26.0303 4.20261 26.9567 4.12575 27.9604 4.12575C30.624 4.16418 33.2876 4.81752 35.8354 6.08576Z" fill="#D82122"/>
<path d="M14.5652 13.4646C10.0486 13.3109 11.5542 8.08421 11.6314 7.77676C11.6314 7.81519 11.9402 11.8889 14.5652 13.4646Z" fill="#D82122"/>
<path d="M19.0045 4.04883C15.5303 6.12414 16.2251 11.0818 16.2251 11.0818C12.9053 6.04728 18.7343 4.16412 19.0045 4.04883Z" fill="#D82122"/>
<path d="M55.2939 13.5864H59.9998V32.3264H64.7057V8.90137H59.9998C57.4116 8.90137 55.2939 11.0096 55.2939 13.5864Z" fill="white"/>
<path d="M69.4116 32.3264H74.1175V22.9564C74.1175 20.3796 71.9998 18.2714 69.4116 18.2714V32.3264Z" fill="white"/>
<path d="M78.8234 18.2714V32.3264H83.5292V22.9564H88.2351V27.6414C88.2351 30.2181 90.3528 32.3264 92.941 32.3264V22.9564C92.941 20.3796 90.8234 18.2714 88.2351 18.2714H78.8234Z" fill="white"/>
<path d="M121.176 18.2714H116.47V13.5864C116.47 11.0096 114.353 8.90137 111.765 8.90137V27.6414H102.353V22.9564H107.059V18.2714H102.353C99.7645 18.2714 97.6469 20.3796 97.6469 22.9564V27.6414C97.6469 30.2181 99.7645 32.3264 102.353 32.3264H116.47V22.9564H121.176V27.6414C121.176 30.2181 123.294 32.3264 125.882 32.3264V22.9564C125.882 20.3796 123.765 18.2714 121.176 18.2714Z" fill="white"/>
<path d="M69.4116 13.5864H74.1175C74.1175 11.0096 71.9998 8.90137 69.4116 8.90137V13.5864Z" fill="white"/>
</g>
<path opacity="0.4" d="M133.412 8.90137C133.931 8.90137 134.353 9.32088 134.353 9.83837V41.6964C133.833 41.6964 133.412 41.2769 133.412 40.7594V8.90137Z" fill="#C91D70"/>
<path d="M141.882 18.2715H142.127C143.733 18.2715 145.229 19.0875 146.093 20.4358L150.353 27.0793V21.0825C150.353 19.53 151.617 18.2715 153.176 18.2715V32.3265H152.932C151.325 32.3265 149.83 31.5105 148.965 30.1622L144.706 23.5187V29.5155C144.706 31.068 143.442 32.3265 141.882 32.3265V18.2715Z" fill="#C91D70"/>
<path d="M156 32.3265V18.2715H167.294C167.294 19.824 166.03 21.0825 164.471 21.0825H158.824V23.8935H164.471C164.471 25.446 163.206 26.7045 161.647 26.7045H158.824V29.5155C158.824 31.068 157.559 32.3265 156 32.3265Z" fill="#C91D70"/>
<path d="M171.529 18.2715C169.97 18.2715 168.706 19.53 168.706 21.0825H172.941V32.3265H175.765V21.0825H177.176C178.736 21.0825 180 19.824 180 18.2715H171.529Z" fill="#C91D70"/>
<defs>
<clipPath id="clip0_3512_54365">
<rect width="125.882" height="49.1926" fill="white"/>
</clipPath>
</defs>
</svg>
