<svg width="49" height="48" viewBox="0 0 49 48" fill="none" xmlns="http://www.w3.org/2000/svg">
<g clip-path="url(#clip0_6325_10160)">
<rect x="0.5" width="48" height="48" rx="12" fill="#131823"/>
<rect x="-0.5" y="-0.577881" width="50" height="50" fill="#131823"/>
<path d="M22.5557 10.7524C23.9815 9.92921 25.7381 9.92921 27.1638 10.7524L35.8578 15.7719C37.2835 16.5951 38.1617 18.1163 38.1617 19.7625V29.8018C38.1617 31.4481 37.2835 32.9693 35.8578 33.7924L27.1638 38.812C25.7381 39.6351 23.9815 39.6351 22.5557 38.812L13.8618 33.7924C12.4361 32.9693 11.5578 31.4481 11.5578 29.8018V19.7625C11.5578 18.1163 12.4361 16.5951 13.8618 15.7719L22.5557 10.7524Z" fill="url(#paint0_linear_6325_10160)"/>
<path d="M24.2343 26.9594H26.573V26.6054C26.573 25.7854 26.8984 25.3538 28.0677 24.6891C29.3074 23.9726 29.9492 23.0662 29.9492 21.7714V21.7628C29.9492 19.786 28.2787 18.4221 25.773 18.4221C23.0738 18.4221 21.5703 19.9155 21.5 21.9441V22.0304H23.8827L23.8915 21.9613C23.9442 21.0722 24.6036 20.4248 25.6147 20.4248C26.6082 20.4248 27.2852 21.0118 27.2852 21.8405V21.8491C27.2852 22.6519 26.9423 23.0835 25.8081 23.7482C24.5948 24.4474 24.1376 25.2329 24.2256 26.4587L24.2343 26.9594ZM25.4389 31.0942C26.2389 31.0942 26.8808 30.4986 26.8808 29.7389C26.8808 28.9793 26.2389 28.3837 25.4389 28.3837C24.6476 28.3837 24.0058 28.9793 24.0058 29.7389C24.0058 30.4986 24.6476 31.0942 25.4389 31.0942Z" fill="#6C86AD"/>
</g>
<rect x="1" y="0.5" width="47" height="47" rx="11.5" stroke="url(#paint1_linear_6325_10160)"/>
<defs>
<linearGradient id="paint0_linear_6325_10160" x1="40.2102" y1="24.2461" x2="9.50936" y2="25.3182" gradientUnits="userSpaceOnUse">
<stop stop-color="#6C86AD" stop-opacity="0.53"/>
<stop offset="1" stop-color="#6C86AD" stop-opacity="0"/>
</linearGradient>
<linearGradient id="paint1_linear_6325_10160" x1="24.5" y1="0" x2="24.5" y2="48" gradientUnits="userSpaceOnUse">
<stop stop-color="white" stop-opacity="0.3"/>
<stop offset="1" stop-color="white" stop-opacity="0"/>
</linearGradient>
<clipPath id="clip0_6325_10160">
<rect x="0.5" width="48" height="48" rx="12" fill="white"/>
</clipPath>
</defs>
</svg>
