<svg width="16" height="16" viewBox="0 0 16 16" fill="none" xmlns="http://www.w3.org/2000/svg">
<g clip-path="url(#clip0_607_8426)">
<path fill-rule="evenodd" clip-rule="evenodd" d="M3.37673 7.35788C3.34246 7.4404 3.32483 7.52888 3.32484 7.61824H3.32511V11.8585C3.32497 11.9974 3.27379 12.1313 3.18129 12.2349C3.0888 12.3384 2.96147 12.4043 2.82355 12.42C2.50667 12.4572 2.24012 12.4839 2.02602 12.5027C1.83439 12.5199 1.64185 12.4819 1.47102 12.3934C1.30018 12.3049 1.15816 12.1694 1.06161 12.0029C0.361564 10.7858 -0.00480507 9.40525 -0.000449901 8.001C-0.000885619 3.56324 3.66487 -0.0588815 8.10042 0.000725298C9.74531 0.0234005 11.3431 0.553778 12.6752 1.51934C14.0073 2.4849 15.0088 3.83851 15.5427 5.39508C15.6039 5.57305 15.62 5.7634 15.5897 5.94914C15.5595 6.13488 15.4837 6.31023 15.3692 6.45956C14.5802 7.48829 13.5858 8.34387 12.6047 9.05518V4.22643C12.6046 4.04627 12.5331 3.8735 12.4057 3.74611C12.2784 3.61873 12.1057 3.54716 11.9256 3.54716H10.7939C10.7047 3.54717 10.6164 3.56475 10.534 3.59889C10.4517 3.63303 10.3768 3.68306 10.3138 3.74614C10.2507 3.80921 10.2007 3.88409 10.1666 3.9665C10.1325 4.04891 10.115 4.13723 10.115 4.22643V10.0905C10.1149 10.2019 10.082 10.3107 10.0205 10.4035C9.95895 10.4963 9.87147 10.5689 9.76895 10.6123C9.49287 10.7289 9.20965 10.8436 9.20965 10.8436V5.9249C9.20965 5.74473 9.13812 5.57194 9.01078 5.44452C8.88345 5.31711 8.71074 5.24551 8.53064 5.24547H7.39891C7.21881 5.2455 7.04609 5.31709 6.91876 5.44451C6.79142 5.57192 6.71989 5.74472 6.7199 5.9249V11.2244C6.71987 11.352 6.67677 11.4758 6.5976 11.5758C6.51842 11.6758 6.40781 11.7461 6.2837 11.7753C6.10494 11.8172 5.94176 11.8575 5.81454 11.8952V7.62276C5.81454 7.44261 5.743 7.26984 5.61566 7.14245C5.48832 7.01506 5.31561 6.9435 5.13552 6.9435L4.00609 6.93979C3.91677 6.93938 3.82824 6.95662 3.7456 6.99053C3.66296 7.02444 3.58783 7.07435 3.52453 7.13739C3.46122 7.20043 3.411 7.27537 3.37673 7.35788ZM3.30044 14.4703C3.30038 14.4703 3.30032 14.4702 3.30026 14.4702L3.3002 14.4704C3.30028 14.4703 3.30036 14.4703 3.30044 14.4703ZM3.30044 14.4703C4.49328 15.3384 5.9029 15.8594 7.37337 15.9758C8.84391 16.0922 10.318 15.7994 11.6325 15.1297C12.947 14.4601 14.0507 13.4397 14.8215 12.1815C15.5923 10.9233 16.0001 9.47627 15.9999 8.00058C15.9999 7.81637 15.9913 7.63423 15.979 7.45306C13.0575 11.8118 7.66323 13.8498 3.30044 14.4703Z" fill="white" fill-opacity="0.6"/>
</g>
<defs>
<clipPath id="clip0_607_8426">
<rect width="16" height="16" fill="white"/>
</clipPath>
</defs>
</svg>
