<svg width="16" height="16" viewBox="0 0 16 16" fill="none" xmlns="http://www.w3.org/2000/svg">
<g clip-path="url(#clip0_607_8423)">
<path fill-rule="evenodd" clip-rule="evenodd" d="M9.57623 13.0308C8.92678 14.3296 8.28861 14.6 8 14.6C7.71139 14.6 7.07322 14.3296 6.42377 13.0308C5.88683 11.9569 5.49936 10.4444 5.41652 8.7H10.5835C10.5006 10.4444 10.1132 11.9569 9.57623 13.0308ZM10.5835 7.3H5.41652C5.49936 5.55557 5.88683 4.04313 6.42377 2.96924C7.07322 1.67036 7.71139 1.4 8 1.4C8.28861 1.4 8.92678 1.67036 9.57623 2.96924C10.1132 4.04313 10.5006 5.55557 10.5835 7.3ZM11.9849 8.7C11.8921 10.8406 11.3779 12.7399 10.609 14.0643C12.7523 13.1409 14.3088 11.1145 14.5633 8.7H11.9849ZM14.5633 7.3H11.9849C11.8921 5.15942 11.3779 3.26008 10.609 1.93571C12.7523 2.85905 14.3088 4.88548 14.5633 7.3ZM4.0151 7.3C4.10788 5.15942 4.62215 3.26008 5.39105 1.93571C3.24767 2.85905 1.69122 4.88548 1.43668 7.3H4.0151ZM1.43668 8.7C1.69122 11.1145 3.24767 13.1409 5.39105 14.0643C4.62215 12.7399 4.10788 10.8406 4.0151 8.7H1.43668ZM16 8C16 3.58172 12.4183 0 8 0C3.58172 0 0 3.58172 0 8C0 12.4183 3.58172 16 8 16C12.4183 16 16 12.4183 16 8Z" fill="white" fill-opacity="0.6"/>
</g>
<defs>
<clipPath id="clip0_607_8423">
<rect width="16" height="16" fill="white"/>
</clipPath>
</defs>
</svg>
