<svg width="16" height="16" viewBox="0 0 16 16" fill="none" xmlns="http://www.w3.org/2000/svg">
<path fill-rule="evenodd" clip-rule="evenodd" d="M10.9041 12.3974C11.3151 12.9179 11.8082 13.507 11.8082 13.507C14.8356 13.4111 16 11.4248 16 11.4248C16 7.01381 14.0274 3.43847 14.0274 3.43847C12.0548 1.95902 10.1781 2.00011 10.1781 2.00011L9.9863 2.21929C12.3151 2.93162 13.3973 3.95902 13.3973 3.95902C11.9726 3.1782 10.5753 2.79463 9.27397 2.64395C8.28767 2.53436 7.34246 2.56176 6.50685 2.67135C6.4351 2.67135 6.37378 2.68179 6.30468 2.69355C6.29463 2.69526 6.28441 2.697 6.27397 2.69874C5.79452 2.73984 4.63014 2.91792 3.16438 3.56176C2.65754 3.79463 2.35616 3.95902 2.35616 3.95902C2.35616 3.95902 3.49315 2.87683 5.9589 2.1645L5.82192 2.00011C5.82192 2.00011 3.94521 1.95902 1.9726 3.43847C1.9726 3.43847 0 7.01381 0 11.4248C0 11.4248 1.15068 13.4111 4.17808 13.507C4.17808 13.507 4.68493 12.8905 5.09589 12.37C3.35616 11.8494 2.69863 10.7535 2.69863 10.7535C2.69863 10.7535 2.83562 10.8494 3.08219 10.9864C3.09589 11.0001 3.10959 11.0138 3.13699 11.0275C3.15753 11.0412 3.17808 11.0515 3.19863 11.0618C3.21918 11.072 3.23973 11.0823 3.26027 11.096C3.60274 11.2878 3.94521 11.4385 4.26027 11.5618C4.82192 11.7809 5.49315 12.0001 6.27397 12.1508C7.30137 12.3426 8.50685 12.4111 9.82192 12.1645C10.4658 12.0549 11.1233 11.8631 11.8082 11.5755C12.2877 11.3974 12.8219 11.1371 13.3836 10.7672C13.3836 10.7672 12.6986 11.8905 10.9041 12.3974ZM4.04102 8.63027C4.04102 7.79465 4.65746 7.10972 5.43828 7.10972C6.2191 7.10972 6.84924 7.79465 6.83554 8.63027C6.83554 9.46588 6.2191 10.1508 5.43828 10.1508C4.67116 10.1508 4.04102 9.46588 4.04102 8.63027ZM9.04102 8.63027C9.04102 7.79465 9.65746 7.10972 10.4383 7.10972C11.2191 7.10972 11.8355 7.79465 11.8355 8.63027C11.8355 9.46588 11.2191 10.1508 10.4383 10.1508C9.67115 10.1508 9.04102 9.46588 9.04102 8.63027Z" fill="#9C9C9D"/>
</svg>
