<svg width="25" height="24" viewBox="0 0 25 24" fill="none" xmlns="http://www.w3.org/2000/svg">
<path fill-rule="evenodd" clip-rule="evenodd" d="M10.2207 2C9.35987 2 8.59559 2.55086 8.32337 3.36754L7.77922 5.99999H4.50121H4.5C4.32634 5.99999 4.16302 6.04425 4.02071 6.12211C3.71056 6.29181 3.50018 6.62108 3.5 6.9995C3.5 7.02631 3.50105 7.05335 3.50313 7.07963L4.31555 18.266C4.45563 20.3672 6.20083 22 8.30668 22H16.6933C18.7992 22 20.5444 20.3672 20.6844 18.266L21.4977 7.06654C21.5074 6.92131 21.4856 6.78126 21.4381 6.65308C21.2971 6.27179 20.9302 5.99999 20.4999 5.99999H20.4988H17.2207L16.6766 3.36754C16.4043 2.55086 15.6401 2 14.7792 2H10.2207ZM19.4311 7.99998H5.56891L6.31112 18.133C6.38115 19.1836 7.25375 20 8.30668 20H16.6933C17.7462 20 18.6188 19.1836 18.6889 18.133L19.4311 7.99998ZM15.1125 5.99999H9.88739L10.2207 3.99999H14.7792L15.1125 5.99999Z" fill="#6C86AC"/>
</svg>
