<svg width="24" height="24" viewBox="0 0 24 24" fill="none" xmlns="http://www.w3.org/2000/svg">
<path fill-rule="evenodd" clip-rule="evenodd" d="M19 10C18.4477 10 18 9.55229 18 9V7H16C15.4477 7 15 6.55228 15 6C15 5.44772 15.4477 5 16 5H18V3C18 2.44772 18.4477 2 19 2C19.5523 2 20 2.44772 20 3V5H22C22.5523 5 23 5.44772 23 6C23 6.55228 22.5523 7 22 7H20V9C20 9.55229 19.5523 10 19 10ZM8.0554 4.23079C8.31251 3.49577 9.03432 3 9.84735 3H11.1C11.597 3 12 3.40294 12 3.9C12 4.39705 11.597 4.8 11.1 4.8H9.84735L9.53254 6.6H11.1C11.597 6.6 12 7.00294 12 7.5C12 7.99705 11.597 8.39999 11.1 8.39999H5.45397L6.15494 17.5197C6.22109 18.4653 7.04521 19.2 8.03964 19.2H15.9604C16.9548 19.2 17.7789 18.4653 17.8451 17.5197L18.1279 13.8404C18.1661 13.3436 18.5804 12.9599 19.0787 12.9599C19.6361 12.9599 20.0747 13.4359 20.0291 13.9915L19.7298 17.6395C19.5975 19.5305 17.9492 21 15.9604 21H8.03964C6.05078 21 4.40254 19.5305 4.27024 17.6395L3.50295 7.57168C3.501 7.54803 3.5 7.52369 3.5 7.49956C3.50017 7.15898 3.69886 6.86263 3.99178 6.70991C4.12619 6.63984 4.28043 6.6 4.44444 6.6H4.44558H7.54148L8.0554 4.23079Z" fill="#2F8AF5"/>
</svg>
