<svg width="12" height="12" viewBox="0 0 12 12" fill="none" xmlns="http://www.w3.org/2000/svg">
<path fill-rule="evenodd" clip-rule="evenodd" d="M1.48398 2.11585C1.48398 1.76607 1.76754 1.48252 2.11732 1.48252H2.50078C2.88738 1.48252 3.20078 1.16912 3.20078 0.78252C3.20078 0.39592 2.88738 0.0825195 2.50078 0.0825195H2.11732C0.994339 0.0825195 0.0839844 0.992874 0.0839844 2.11585V9.88397C0.0839844 11.0069 0.994339 11.9173 2.11732 11.9173H9.88543C11.0084 11.9173 11.9188 11.0069 11.9188 9.88397V9.50005C11.9188 9.11345 11.6054 8.80005 11.2188 8.80005C10.8322 8.80005 10.5188 9.11345 10.5188 9.50005V9.88397C10.5188 10.2337 10.2352 10.5173 9.88543 10.5173H2.11732C1.76754 10.5173 1.48398 10.2337 1.48398 9.88397V2.11585ZM5.30078 0.78252C5.30078 0.39592 5.61418 0.0825195 6.00078 0.0825195H11.2182C11.6048 0.0825195 11.9182 0.39592 11.9182 0.78252V5.99991C11.9182 6.38651 11.6048 6.69991 11.2182 6.69991C10.8316 6.69991 10.5182 6.38651 10.5182 5.99991V2.47256L5.00503 7.9857C4.73167 8.25907 4.28845 8.25907 4.01508 7.9857C3.74172 7.71233 3.74172 7.26912 4.01508 6.99575L9.52831 1.48252H6.00078C5.61418 1.48252 5.30078 1.16912 5.30078 0.78252Z" fill="#6C86AC"/>
</svg>
