<svg width="24" height="24" viewBox="0 0 24 24" fill="none" xmlns="http://www.w3.org/2000/svg">
<path fill-rule="evenodd" clip-rule="evenodd" d="M5 21C5 20.4477 5.44771 20 6 20L18 20C18.5523 20 19 20.4477 19 21C19 21.5523 18.5523 22 18 22L6 22C5.44772 22 5 21.5523 5 21ZM11.2921 18.7063L5.29289 12.7071C4.90237 12.3166 4.90237 11.6834 5.29289 11.2929C5.68342 10.9024 6.31658 10.9024 6.70711 11.2929L11 15.5857L11 4C11 3.44771 11.4477 3 12 3C12.5522 3 13 3.44771 13 4L13 15.5858L17.2929 11.2929C17.6834 10.9024 18.3166 10.9024 18.7071 11.2929C19.0976 11.6834 19.0976 12.3166 18.7071 12.7071L12.7071 18.7071C12.3166 19.0976 11.6834 19.0976 11.2929 18.7071C11.2926 18.7068 11.2923 18.7066 11.2921 18.7063Z" fill="white"/>
</svg>
