<svg width="22" height="24" viewBox="0 0 22 24" fill="none" xmlns="http://www.w3.org/2000/svg">
<path d="M19.2219 0.000976562C20.6279 0.000976562 21.7619 1.13798 21.8289 2.47598V24.001L19.1519 21.728L17.6819 20.39L16.0779 18.992L16.7479 21.197H2.70992C1.30792 21.197 0.169922 20.132 0.169922 18.721V2.48098C0.169922 1.14298 1.30992 0.00397656 2.71492 0.00397656H19.2149L19.2219 0.000976562ZM13.1039 5.68398H13.0739L12.8719 5.88398C14.9449 6.48398 15.9479 7.42098 15.9479 7.42098C14.6119 6.75298 13.4079 6.41898 12.2039 6.28398C11.3339 6.14898 10.4639 6.21998 9.72892 6.28398H9.52892C9.05892 6.28398 8.05892 6.48398 6.71892 7.01898C6.25192 7.22198 5.98392 7.35498 5.98392 7.35498C5.98392 7.35498 6.98592 6.35298 9.19392 5.81798L9.05892 5.68298C9.05892 5.68298 7.38692 5.61898 5.58192 6.95298C5.58192 6.95298 3.77692 10.097 3.77692 13.973C3.77692 13.973 4.77692 15.713 7.51992 15.779C7.51992 15.779 7.91992 15.246 8.32492 14.777C6.78492 14.309 6.18492 13.373 6.18492 13.373C6.18492 13.373 6.31892 13.439 6.51992 13.573H6.57992C6.60992 13.573 6.62392 13.588 6.63992 13.603V13.609C6.65592 13.625 6.66992 13.639 6.69992 13.639C7.02992 13.775 7.35992 13.909 7.62992 14.039C8.09592 14.241 8.69492 14.442 9.42992 14.575C10.3599 14.71 11.4259 14.775 12.6399 14.575C13.2399 14.44 13.8399 14.308 14.4399 14.04C14.8299 13.84 15.3099 13.64 15.8369 13.303C15.8369 13.303 15.2369 14.239 13.6319 14.707C13.9619 15.173 14.4269 15.707 14.4269 15.707C17.1709 15.647 18.2369 13.907 18.2969 13.981C18.2969 10.111 16.4819 6.96098 16.4819 6.96098C14.8469 5.74698 13.3169 5.70098 13.0469 5.70098L13.1029 5.68098L13.1039 5.68398ZM13.2719 10.097C13.9749 10.097 14.5419 10.697 14.5419 11.432C14.5419 12.172 13.9719 12.772 13.2719 12.772C12.5719 12.772 12.0019 12.172 12.0019 11.438C12.0039 10.698 12.5749 10.1 13.2719 10.1V10.097ZM8.72892 10.097C9.42892 10.097 9.99492 10.697 9.99492 11.432C9.99492 12.172 9.42492 12.772 8.72492 12.772C8.02492 12.772 7.45492 12.172 7.45492 11.438C7.45492 10.698 8.02492 10.1 8.72492 10.1L8.72892 10.097Z" fill="white" fill-opacity="0.6"/>
</svg>
