<svg width="120" height="121" viewBox="0 0 120 121" fill="none" xmlns="http://www.w3.org/2000/svg">
<g clip-path="url(#clip0_5923_166394)">
<circle opacity="0.1" cx="60" cy="60.1934" r="60" fill="#525D73"/>
<path d="M57.3 16.7522C58.9708 15.7876 61.0292 15.7876 62.7 16.7522L96.2711 36.1345C97.9419 37.0991 98.9711 38.8818 98.9711 40.8111V79.5757C98.9711 81.5049 97.9419 83.2876 96.2711 84.2522L62.7 103.635C61.0292 104.599 58.9708 104.599 57.3 103.635L23.7289 84.2522C22.0581 83.2876 21.0289 81.5049 21.0289 79.5757V40.811C21.0289 38.8818 22.0581 37.0991 23.7289 36.1345L57.3 16.7522Z" fill="#354053"/>
<g filter="url(#filter0_d_5923_166394)">
<rect x="80.8223" y="85.2773" width="6.02802" height="9.43059" transform="rotate(-45 80.8223 85.2773)" fill="#3A82EF"/>
<path fill-rule="evenodd" clip-rule="evenodd" d="M60 93.9434C78.6396 93.9434 93.75 78.833 93.75 60.1934C93.75 41.5537 78.6396 26.4434 60 26.4434C41.3604 26.4434 26.25 41.5537 26.25 60.1934C26.25 78.833 41.3604 93.9434 60 93.9434ZM60.0002 87.8072C75.2508 87.8072 87.6138 75.4441 87.6138 60.1935C87.6138 44.9429 75.2508 32.5799 60.0002 32.5799C44.7496 32.5799 32.3865 44.9429 32.3865 60.1935C32.3865 75.4441 44.7496 87.8072 60.0002 87.8072Z" fill="url(#paint0_linear_5923_166394)"/>
<rect x="84.8711" y="91.7188" width="9.41089" height="29.5274" rx="1.35" transform="rotate(-45 84.8711 91.7188)" fill="url(#paint1_linear_5923_166394)"/>
</g>
<path d="M57.7778 63.4772H61.2654V62.9493C61.2654 61.7262 61.7506 61.0825 63.4944 60.0911C65.3431 59.0225 66.3002 57.6707 66.3002 55.7395V55.7266C66.3002 52.7783 63.809 50.7441 60.0723 50.7441C56.0471 50.7441 53.8051 52.9715 53.7002 55.997V56.1257H57.2534L57.2665 56.0228C57.3451 54.6967 58.3285 53.7311 59.8363 53.7311C61.3179 53.7311 62.3275 54.6065 62.3275 55.8425V55.8554C62.3275 57.0527 61.8161 57.6965 60.1248 58.6878C58.3154 59.7307 57.6336 60.9022 57.7647 62.7304L57.7778 63.4772ZM59.5741 69.6441C60.7672 69.6441 61.7243 68.7558 61.7243 67.6228C61.7243 66.4899 60.7672 65.6015 59.5741 65.6015C58.3941 65.6015 57.4369 66.4899 57.4369 67.6228C57.4369 68.7558 58.3941 69.6441 59.5741 69.6441Z" fill="white"/>
</g>
<defs>
<filter id="filter0_d_5923_166394" x="20.85" y="24.1934" width="96.3957" height="96.3957" filterUnits="userSpaceOnUse" color-interpolation-filters="sRGB">
<feFlood flood-opacity="0" result="BackgroundImageFix"/>
<feColorMatrix in="SourceAlpha" type="matrix" values="0 0 0 0 0 0 0 0 0 0 0 0 0 0 0 0 0 0 127 0" result="hardAlpha"/>
<feOffset dy="3.15"/>
<feGaussianBlur stdDeviation="2.7"/>
<feColorMatrix type="matrix" values="0 0 0 0 0.0862745 0 0 0 0 0.101961 0 0 0 0 0.133333 0 0 0 0.1 0"/>
<feBlend mode="normal" in2="BackgroundImageFix" result="effect1_dropShadow_5923_166394"/>
<feBlend mode="normal" in="SourceGraphic" in2="effect1_dropShadow_5923_166394" result="shape"/>
</filter>
<linearGradient id="paint0_linear_5923_166394" x1="50.25" y1="26.4434" x2="60" y2="93.9434" gradientUnits="userSpaceOnUse">
<stop stop-color="#55CCFF"/>
<stop offset="1" stop-color="#5599FF"/>
</linearGradient>
<linearGradient id="paint1_linear_5923_166394" x1="88.2172" y1="91.7188" x2="99.5505" y2="116.726" gradientUnits="userSpaceOnUse">
<stop stop-color="#55CCFF"/>
<stop offset="1" stop-color="#5599FF"/>
</linearGradient>
<clipPath id="clip0_5923_166394">
<rect width="120" height="120" fill="white" transform="translate(0 0.193359)"/>
</clipPath>
</defs>
</svg>
