<svg width="18" height="20" viewBox="0 0 18 20" fill="none" xmlns="http://www.w3.org/2000/svg">
<path d="M5.92924 17.0711V19.901H13.199V16.2303C13.1994 15.7392 13.1038 15.2529 12.9179 14.7999C12.732 14.3469 12.4595 13.9362 12.1162 13.5919C16.1234 12.8728 17.8002 10.3823 17.8002 7.41909C17.8002 5.98099 17.3313 4.65017 16.4105 3.5832C16.9561 1.85226 16.3366 0.385173 16.2542 0.161921C14.7195 0.0198506 13.128 1.1854 12.8068 1.43475C11.8605 1.17381 10.7862 1.03174 9.58119 1.03174C8.38187 1.03174 7.31044 1.16801 6.37259 1.42605C6.23901 1.31878 4.52246 -0.0381376 2.87127 0.11263C2.78601 0.335883 2.15225 1.83777 2.73201 3.5919C1.82258 4.65597 1.35933 5.97519 1.35933 7.41039C1.35933 10.3678 3.02474 12.8554 7.02056 13.5861C6.54311 14.0587 6.19639 14.6676 6.03439 15.3489C5.29264 15.5374 3.82902 15.7287 3.07873 14.5951C2.04141 13.0323 1.14619 12.4553 0.268014 12.9163C-0.101444 13.3512 1.13482 13.5832 1.65774 14.4936C1.91636 14.9285 2.07267 17.5321 5.92924 17.0711Z" fill="white" fill-opacity="0.6"/>
</svg>
