<svg width="28" height="20" viewBox="0 0 28 20" fill="none" xmlns="http://www.w3.org/2000/svg">
<path d="M25.0926 2.4277L27.1998 0.518988V0.100952H19.902L14.7011 12.3633L8.78512 0.100952H1.13324V0.518988L3.59449 3.32534C3.83512 3.53274 3.95887 3.83735 3.92793 4.14197V15.1697C4.00355 15.5683 3.86949 15.9734 3.57387 16.2618L0.799805 19.4473V19.8588H8.65793V19.4408L5.8873 16.265C5.73886 16.1229 5.62719 15.9505 5.56101 15.7611C5.49483 15.5716 5.47592 15.3704 5.50574 15.1729V5.63264L12.4048 19.8653H13.2057L19.1389 5.63264V16.9715C19.1389 17.2696 19.1389 17.3312 18.9326 17.5288L16.7979 19.4829V19.901H27.1517V19.4829L25.0926 17.5742C24.9139 17.4446 24.8211 17.2275 24.8589 17.0168V2.98508C24.8411 2.88094 24.8534 2.77421 24.8945 2.67612C24.9357 2.57802 25.0041 2.4922 25.0926 2.4277Z" fill="white" fill-opacity="0.6"/>
</svg>
