<svg width="27" height="18" viewBox="0 0 27 18" fill="none" xmlns="http://www.w3.org/2000/svg">
<path d="M26.3153 2.95029C26.165 2.41791 25.8704 1.93242 25.4609 1.54239C25.0513 1.15236 24.5413 0.871485 23.9818 0.727868C21.9222 0.200989 13.6663 0.200989 13.6663 0.200989C13.6663 0.200989 5.41042 0.200989 3.35086 0.725065C2.7911 0.868217 2.28079 1.14894 1.87118 1.53904C1.46157 1.92914 1.16708 2.41488 1.01729 2.94749C0.466308 4.90927 0.466309 9.00099 0.466309 9.00099C0.466309 9.00099 0.466308 13.0927 1.01729 15.0517C1.32077 16.1335 2.21649 16.9854 3.35086 17.2741C5.41042 17.801 13.6663 17.801 13.6663 17.801C13.6663 17.801 21.9222 17.801 23.9818 17.2741C25.1191 16.9854 26.0118 16.1335 26.3153 15.0517C26.8663 13.0927 26.8663 9.00099 26.8663 9.00099C26.8663 9.00099 26.8663 4.90927 26.3153 2.95029ZM11.044 12.7564V5.24557L17.8797 8.97296L11.044 12.7564Z" fill="white" fill-opacity="0.6"/>
</svg>
