<svg width="26" height="20" viewBox="0 0 26 20" fill="none" xmlns="http://www.w3.org/2000/svg">
<path d="M25.5334 2.45295C24.603 2.83957 23.5905 3.11783 22.5476 3.2262C23.6304 2.60653 24.4412 1.62755 24.828 0.472946C23.812 1.0552 22.6989 1.46348 21.5382 1.67969C21.0531 1.18008 20.4663 0.782072 19.8145 0.510459C19.1627 0.238847 18.4599 0.0994531 17.7497 0.100964C14.8764 0.100964 12.5657 2.34457 12.5657 5.09783C12.5657 5.48445 12.6143 5.87108 12.6934 6.24306C8.39106 6.02632 4.55395 4.04632 2.00297 1.01481C1.53815 1.77962 1.29457 2.65044 1.29757 3.53667C1.29757 5.27064 2.21276 6.79957 3.60835 7.69877C2.78591 7.66757 1.98273 7.4498 1.26413 7.06318V7.12469C1.26413 9.55282 3.04586 11.565 5.42049 12.0278C4.97463 12.1394 4.51596 12.1965 4.05531 12.1977C3.71781 12.1977 3.39856 12.1655 3.07627 12.1216C3.73301 14.1016 5.64549 15.5397 7.92282 15.5865C6.14109 16.931 3.90936 17.7218 1.48608 17.7218C1.05129 17.7218 0.649947 17.7071 0.233398 17.6603C2.53202 19.0808 5.25935 19.901 8.19647 19.901C17.7315 19.901 22.949 12.2914 22.949 5.68655C22.949 5.46981 22.949 5.25306 22.9338 5.03632C23.9432 4.32457 24.828 3.44294 25.5334 2.45295Z" fill="white" fill-opacity="0.6"/>
</svg>
