<svg width="16" height="16" viewBox="0 0 16 16" fill="none" xmlns="http://www.w3.org/2000/svg">
<path d="M8.6 5.6C8.6 5.93137 8.33137 6.2 8 6.2C7.66863 6.2 7.4 5.93137 7.4 5.6C7.4 5.26863 7.66863 5 8 5C8.33137 5 8.6 5.26863 8.6 5.6ZM8.6 10.4C8.6 10.7314 8.33137 11 8 11C7.66863 11 7.4 10.7314 7.4 10.4L7.4 8C7.4 7.66863 7.66863 7.4 8 7.4C8.33137 7.4 8.6 7.66863 8.6 8L8.6 10.4ZM8.006 14C11.318 14 14 11.312 14 8C14 4.688 11.318 2 8.006 2C4.688 2 2 4.688 2 8C2 11.312 4.688 14 8.006 14ZM8 3.2C10.652 3.2 12.8 5.348 12.8 8C12.8 10.652 10.652 12.8 8 12.8C5.348 12.8 3.2 10.652 3.2 8C3.2 5.348 5.348 3.2 8 3.2Z" fill="#6C86AD"/>
</svg>
