<svg width="21" height="19" viewBox="0 0 21 19" fill="none" xmlns="http://www.w3.org/2000/svg">
<path d="M20.4459 11.7474V12.7781C20.4459 12.8373 20.4098 12.8899 20.3572 12.9129C20.035 13.051 18.932 13.5573 18.4733 14.1951C17.3029 15.8242 16.4087 18.1535 14.4097 18.1535H6.07045C3.11483 18.1535 0.719727 15.7502 0.719727 12.7847V12.6893C0.719727 12.6104 0.783822 12.5463 0.862734 12.5463H5.51157C5.6036 12.5463 5.67099 12.6318 5.6628 12.7222C5.6299 13.0247 5.68581 13.3337 5.82881 13.6148C6.10497 14.1754 6.67704 14.5255 7.29512 14.5255H9.59653V12.7288H7.32142C7.20472 12.7288 7.13569 12.594 7.20309 12.4987C7.22773 12.4608 7.25569 12.4214 7.28526 12.377C7.50062 12.0713 7.80801 11.5962 8.11377 11.0554C8.32254 10.6904 8.52472 10.3008 8.68747 9.9096C8.72037 9.83891 8.74664 9.76656 8.77294 9.69587C8.81733 9.57094 8.86337 9.45424 8.89624 9.33753C8.92913 9.23888 8.95541 9.13533 8.98171 9.03833C9.05899 8.70627 9.09185 8.35449 9.09185 7.98957C9.09185 7.84656 9.08529 7.69696 9.07214 7.55395C9.06555 7.39779 9.04584 7.2416 9.02609 7.08544C9.01294 6.94736 8.9883 6.81091 8.962 6.6679C8.92913 6.45913 8.88309 6.25203 8.83048 6.04323L8.8124 5.96435C8.77294 5.82131 8.74008 5.68489 8.69406 5.54189C8.56417 5.09309 8.41461 4.65584 8.25678 4.24653C8.19925 4.08377 8.13349 3.92761 8.06773 3.77145C7.97077 3.53638 7.87211 3.32269 7.78171 3.12048C7.73569 3.02841 7.69624 2.94457 7.65678 2.8591C7.6124 2.76211 7.56638 2.66512 7.52033 2.57309C7.48747 2.5024 7.44965 2.43664 7.42334 2.37088L7.14225 1.85142C7.1028 1.78073 7.16856 1.69689 7.24581 1.71827L9.00475 2.19497H9.00968C9.01294 2.19497 9.01461 2.19664 9.01624 2.19664L9.24802 2.26073L9.50283 2.33309L9.59653 2.35936V1.31389C9.59653 0.809214 10.0009 0.399902 10.5007 0.399902C10.7505 0.399902 10.9774 0.501822 11.1401 0.667838C11.3028 0.833886 11.4048 1.06073 11.4048 1.31389V2.86569L11.5922 2.91827C11.607 2.92323 11.6217 2.92979 11.6349 2.93965C11.6809 2.97417 11.7467 3.02512 11.8305 3.08761C11.8963 3.14019 11.967 3.20432 12.0524 3.27008C12.2217 3.40649 12.424 3.5824 12.6459 3.78461C12.705 3.83555 12.7626 3.88816 12.8152 3.94077C13.1012 4.20707 13.4218 4.51939 13.7275 4.86461C13.813 4.9616 13.8968 5.06022 13.9823 5.16377C14.0678 5.26899 14.1582 5.37254 14.2371 5.47613C14.3407 5.61421 14.4525 5.75721 14.5495 5.90681C14.5955 5.9775 14.6481 6.04982 14.6925 6.12051C14.8174 6.30953 14.9275 6.50518 15.0328 6.7008C15.0771 6.7912 15.1232 6.88982 15.1626 6.98681C15.2793 7.24819 15.3714 7.51449 15.4305 7.7808C15.4486 7.83833 15.4618 7.9008 15.4684 7.9567V7.96985C15.4881 8.04873 15.4947 8.13257 15.5012 8.21805C15.5275 8.49094 15.5144 8.76381 15.4552 9.03833C15.4305 9.15507 15.3977 9.26518 15.3582 9.38192C15.3188 9.49369 15.2793 9.6104 15.2284 9.72054C15.1297 9.94902 15.013 10.1775 14.8749 10.3912C14.8305 10.4701 14.7779 10.554 14.7253 10.6329C14.6678 10.7167 14.6086 10.7956 14.556 10.8729C14.4837 10.9715 14.4064 11.0751 14.3275 11.1671C14.2568 11.2641 14.1845 11.3611 14.1056 11.4466C13.9955 11.5764 13.8903 11.6997 13.7801 11.8181C13.7144 11.8954 13.6437 11.9743 13.5713 12.045C13.5007 12.1238 13.4283 12.1945 13.3626 12.2603C13.2525 12.3704 13.1604 12.4559 13.0831 12.5266L12.9023 12.6926C12.876 12.7156 12.8415 12.7288 12.8053 12.7288H11.4048V14.5255H13.167C13.5615 14.5255 13.9363 14.3858 14.2388 14.1293C14.3423 14.0389 14.7944 13.6477 15.3286 13.0576C15.3467 13.0378 15.3697 13.023 15.396 13.0165L20.2635 11.6093C20.3539 11.583 20.4459 11.6521 20.4459 11.7474Z" fill="white"/>
</svg>
