<svg width="32" height="32" viewBox="0 0 32 32" fill="none" xmlns="http://www.w3.org/2000/svg">
<g clip-path="url(#clip0_1774_41287)">
<path opacity="0.4" d="M32 16C32 24.8361 24.8361 32 16 32C7.16394 32 0 24.8361 0 16C0 7.16394 7.16394 0 16 0C24.8379 0 32 7.16394 32 16Z" fill="#06070A"/>
<path d="M7.89396 16.5378L7.96298 16.4293L12.1252 9.91796C12.1861 9.82263 12.3291 9.83249 12.3751 9.93604C13.0704 11.4944 13.6704 13.4325 13.3893 14.6391C13.2693 15.1356 12.9406 15.8079 12.5707 16.4293C12.523 16.5197 12.4704 16.6085 12.4145 16.6939C12.3882 16.7334 12.3438 16.7564 12.2962 16.7564H8.01559C7.90052 16.7564 7.83312 16.6315 7.89396 16.5378Z" fill="white"/>
<path d="M26.4459 17.7474V18.7781C26.4459 18.8373 26.4098 18.8899 26.3572 18.9129C26.035 19.051 24.932 19.5573 24.4733 20.1951C23.3029 21.8242 22.4087 24.1535 20.4097 24.1535H12.0704C9.11483 24.1535 6.71973 21.7502 6.71973 18.7847V18.6893C6.71973 18.6104 6.78382 18.5463 6.86273 18.5463H11.5116C11.6036 18.5463 11.671 18.6318 11.6628 18.7222C11.6299 19.0247 11.6858 19.3337 11.8288 19.6148C12.105 20.1754 12.677 20.5255 13.2951 20.5255H15.5965V18.7288H13.3214C13.2047 18.7288 13.1357 18.594 13.2031 18.4987C13.2277 18.4608 13.2557 18.4214 13.2853 18.377C13.5006 18.0713 13.808 17.5962 14.1138 17.0554C14.3225 16.6904 14.5247 16.3008 14.6875 15.9096C14.7204 15.8389 14.7466 15.7666 14.7729 15.6959C14.8173 15.5709 14.8634 15.4542 14.8962 15.3375C14.9291 15.2389 14.9554 15.1353 14.9817 15.0383C15.059 14.7063 15.0919 14.3545 15.0919 13.9896C15.0919 13.8466 15.0853 13.697 15.0721 13.5539C15.0655 13.3978 15.0458 13.2416 15.0261 13.0854C15.0129 12.9474 14.9883 12.8109 14.962 12.6679C14.9291 12.4591 14.8831 12.252 14.8305 12.0432L14.8124 11.9644C14.7729 11.8213 14.7401 11.6849 14.6941 11.5419C14.5642 11.0931 14.4146 10.6558 14.2568 10.2465C14.1992 10.0838 14.1335 9.92761 14.0677 9.77145C13.9708 9.53638 13.8721 9.32269 13.7817 9.12048C13.7357 9.02841 13.6962 8.94457 13.6568 8.8591C13.6124 8.76211 13.5664 8.66512 13.5203 8.57309C13.4875 8.5024 13.4496 8.43664 13.4233 8.37088L13.1423 7.85142C13.1028 7.78073 13.1686 7.69689 13.2458 7.71827L15.0048 8.19497H15.0097C15.0129 8.19497 15.0146 8.19664 15.0162 8.19664L15.248 8.26073L15.5028 8.33309L15.5965 8.35936V7.31389C15.5965 6.80921 16.0009 6.3999 16.5007 6.3999C16.7505 6.3999 16.9774 6.50182 17.1401 6.66784C17.3028 6.83389 17.4048 7.06073 17.4048 7.31389V8.86569L17.5922 8.91827C17.607 8.92323 17.6217 8.92979 17.6349 8.93965C17.6809 8.97417 17.7467 9.02512 17.8305 9.08761C17.8963 9.14019 17.967 9.20432 18.0524 9.27008C18.2217 9.40649 18.424 9.5824 18.6459 9.78461C18.705 9.83555 18.7626 9.88816 18.8152 9.94077C19.1012 10.2071 19.4218 10.5194 19.7275 10.8646C19.813 10.9616 19.8968 11.0602 19.9823 11.1638C20.0678 11.269 20.1582 11.3725 20.2371 11.4761C20.3407 11.6142 20.4525 11.7572 20.5495 11.9068C20.5955 11.9775 20.6481 12.0498 20.6925 12.1205C20.8174 12.3095 20.9275 12.5052 21.0328 12.7008C21.0771 12.7912 21.1232 12.8898 21.1626 12.9868C21.2793 13.2482 21.3714 13.5145 21.4305 13.7808C21.4486 13.8383 21.4618 13.9008 21.4684 13.9567V13.9699C21.4881 14.0487 21.4947 14.1326 21.5012 14.218C21.5275 14.4909 21.5144 14.7638 21.4552 15.0383C21.4305 15.1551 21.3977 15.2652 21.3582 15.3819C21.3188 15.4937 21.2793 15.6104 21.2284 15.7205C21.1297 15.949 21.013 16.1775 20.8749 16.3912C20.8305 16.4701 20.7779 16.554 20.7253 16.6329C20.6678 16.7167 20.6086 16.7956 20.556 16.8729C20.4837 16.9715 20.4064 17.0751 20.3275 17.1671C20.2568 17.2641 20.1845 17.3611 20.1056 17.4466C19.9955 17.5764 19.8903 17.6997 19.7801 17.8181C19.7144 17.8954 19.6437 17.9743 19.5713 18.045C19.5007 18.1238 19.4283 18.1945 19.3626 18.2603C19.2525 18.3704 19.1604 18.4559 19.0831 18.5266L18.9023 18.6926C18.876 18.7156 18.8415 18.7288 18.8053 18.7288H17.4048V20.5255H19.167C19.5615 20.5255 19.9363 20.3858 20.2388 20.1293C20.3423 20.0389 20.7944 19.6477 21.3286 19.0576C21.3467 19.0378 21.3697 19.023 21.396 19.0165L26.2635 17.6093C26.3539 17.583 26.4459 17.6521 26.4459 17.7474Z" fill="white"/>
</g>
<defs>
<clipPath id="clip0_1774_41287">
<rect width="32" height="32" rx="16" fill="white"/>
</clipPath>
</defs>
</svg>
