<svg width="24" height="24" viewBox="0 0 24 24" fill="none" xmlns="http://www.w3.org/2000/svg">
<path fill-rule="evenodd" clip-rule="evenodd" d="M8.99976 7.88889C8.99976 6.31977 10.3162 5 11.9998 5C13.6834 5 14.9998 6.31977 14.9998 7.88889C14.9998 8.83185 14.7532 10.2007 14.1983 11.2989C13.6407 12.4026 12.9101 13 11.9998 13C11.0894 13 10.3589 12.4026 9.80119 11.2989C9.2463 10.2007 8.99976 8.83185 8.99976 7.88889ZM11.9998 3C9.26508 3 6.99976 5.16246 6.99976 7.88889C6.99976 9.0937 7.29841 10.7804 8.01612 12.2008C8.24985 12.6634 8.54285 13.1227 8.90124 13.5314C6.08526 14.56 4.46412 16.8461 3.69468 18.264C2.94868 19.6388 4.07357 21 5.38718 21L9.99976 21H13.9998L18.6123 21C19.9259 21 21.0508 19.6388 20.3048 18.264C19.5354 16.8461 17.9143 14.56 15.0983 13.5314C15.4567 13.1227 15.7497 12.6634 15.9834 12.2008C16.7011 10.7804 16.9998 9.0937 16.9998 7.88889C16.9998 5.16246 14.7344 3 11.9998 3ZM5.57425 19C6.51932 17.3554 8.48328 15 11.9998 15C15.5162 15 17.4802 17.3554 18.4253 19L14.0011 19L13.9998 19H9.99976L9.9984 19L5.57425 19Z" fill="#6C86AC"/>
</svg>
