<svg width="29" height="24" viewBox="0 0 29 24" fill="none" xmlns="http://www.w3.org/2000/svg">
<path fill-rule="evenodd" clip-rule="evenodd" d="M18.8738 15.5144C17.8166 15.5144 16.9292 14.6642 16.9292 13.6167C16.9292 12.5691 17.8166 11.6921 18.8738 11.6921C19.931 11.6921 20.789 12.5703 20.789 13.6178C20.789 14.6642 19.931 15.5144 18.8738 15.5144ZM19.3228 19.1966C18.3387 20.1717 16.8195 20.6447 14.6804 20.6447H14.6498C12.5107 20.6447 10.9939 20.1717 10.0098 19.1966C9.93802 19.1255 9.88112 19.0411 9.84229 18.9482C9.80347 18.8553 9.78349 18.7558 9.78349 18.6553C9.78349 18.5547 9.80347 18.4552 9.84229 18.3623C9.88112 18.2694 9.93802 18.1851 10.0098 18.114C10.0815 18.0429 10.1667 17.9865 10.2604 17.948C10.3541 17.9096 10.4546 17.8898 10.556 17.8898C10.6575 17.8898 10.7579 17.9096 10.8517 17.948C10.9454 17.9865 11.0306 18.0429 11.1023 18.114C11.7812 18.7866 12.9409 19.1136 14.6498 19.1136L14.6651 19.1148H14.6804C16.3894 19.1148 17.5503 18.7866 18.2303 18.114C18.302 18.0429 18.3872 17.9865 18.4809 17.948C18.5747 17.9096 18.6751 17.8898 18.7766 17.8898C18.878 17.8898 18.9785 17.9096 19.0722 17.948C19.1659 17.9865 19.2511 18.0429 19.3228 18.114C19.3946 18.1851 19.4515 18.2694 19.4903 18.3623C19.5291 18.4552 19.5491 18.5547 19.5491 18.6553C19.5491 18.7558 19.5291 18.8553 19.4903 18.9482C19.4515 19.0411 19.3946 19.1255 19.3228 19.1966ZM8.54362 13.6167C8.54362 12.5703 9.43108 11.6921 10.4871 11.6921C11.5443 11.6921 12.4011 12.5703 12.4011 13.6178C12.4011 14.6642 11.5443 15.5144 10.4871 15.5144C9.43108 15.5144 8.54362 14.6642 8.54362 13.6167ZM24.0925 1.532C24.8079 1.532 25.3913 2.10891 25.3913 2.81778C25.3913 3.52665 24.8079 4.10472 24.0925 4.10472C23.7481 4.10441 23.418 3.96872 23.1745 3.72744C22.931 3.48616 22.794 3.159 22.7937 2.81778C22.7937 2.10891 23.3759 1.532 24.0925 1.532ZM28.8092 11.5333C28.8082 10.6403 28.4498 9.78417 27.8126 9.15275C27.1753 8.52133 26.3113 8.16618 25.4102 8.16526C24.5981 8.16526 23.8533 8.44904 23.2675 8.92084C21.1956 7.63039 18.565 6.85262 15.7447 6.68796L17.2155 2.07971L21.258 3.02331C21.311 3.73269 21.6324 4.39607 22.1581 4.88052C22.6837 5.36498 23.3746 5.63473 24.0925 5.63574C24.8464 5.63482 25.5691 5.33759 26.102 4.80928C26.6349 4.28098 26.9346 3.56476 26.9352 2.81778C26.9343 2.071 26.6345 1.35507 26.1016 0.827022C25.5687 0.29897 24.8462 0.00190366 24.0925 0.000976562C22.9964 0.000976562 22.043 0.619925 21.5692 1.52266L16.8714 0.427234C16.682 0.383218 16.4828 0.411696 16.3136 0.506969C16.1445 0.602243 16.0179 0.757286 15.9592 0.941078L14.1324 6.65993C11.094 6.7335 8.23837 7.51478 6.01322 8.88113C5.41696 8.41706 4.68064 8.16495 3.92244 8.16526C3.02125 8.16618 2.15725 8.52133 1.52002 9.15275C0.882782 9.78417 0.524373 10.6403 0.523438 11.5333C0.523563 12.0789 0.657634 12.6162 0.914085 13.099C1.17054 13.5818 1.54167 13.9955 1.99547 14.3045C1.95794 14.5727 1.93904 14.8431 1.9389 15.1138C1.9389 17.4355 3.30015 19.5948 5.77397 21.1947C8.14408 22.7281 11.2826 23.5724 14.6085 23.5724C17.9345 23.5724 21.073 22.7281 23.4443 21.1947C25.9169 19.5948 27.2794 17.4343 27.2794 15.1138C27.2794 14.8651 27.2617 14.6187 27.2322 14.3746C27.7151 14.0707 28.1128 13.651 28.3885 13.1544C28.6641 12.6577 28.8088 12.1001 28.8092 11.5333Z" fill="white" fill-opacity="0.6"/>
</svg>
