<svg width="25" height="24" viewBox="0 0 25 24" fill="none" xmlns="http://www.w3.org/2000/svg">
<path d="M11.5005 19C13.2755 18.9996 14.9993 18.4054 16.3975 17.312L20.0865 21.001C20.477 21.3915 21.11 21.3915 21.5005 21.001C21.891 20.6105 21.891 19.9775 21.5005 19.587L17.8115 15.898C18.9055 14.4997 19.5001 12.7754 19.5005 11C19.5005 6.589 15.9115 3 11.5005 3C7.08949 3 3.50049 6.589 3.50049 11C3.50049 15.411 7.08949 19 11.5005 19ZM11.5005 5C14.8095 5 17.5005 7.691 17.5005 11C17.5005 14.309 14.8095 17 11.5005 17C8.19149 17 5.50049 14.309 5.50049 11C5.50049 7.691 8.19149 5 11.5005 5Z" fill="#6C86AD"/>
</svg>
