<svg width="25" height="24" viewBox="0 0 25 24" fill="none" xmlns="http://www.w3.org/2000/svg">
<path d="M17.5622 17.232L17.0622 18.0981L17.0622 18.0981L17.5622 17.232ZM20.2942 16.5L19.4282 16H19.4282L20.2942 16.5ZM19.5622 13.7679L20.0622 12.9019L19.5622 13.7679ZM19.5622 10.232L20.0622 11.0981L19.5622 10.232ZM20.2942 7.5L19.4282 7.99999L19.4282 8L20.2942 7.5ZM17.5622 6.76794L17.0622 5.90192V5.90192L17.5622 6.76794ZM7.43783 6.76794L7.93783 5.90192H7.93783L7.43783 6.76794ZM4.70578 7.5L5.57181 8H5.57181L4.70578 7.5ZM5.43783 10.232L4.93783 11.0981L5.43783 10.232ZM5.43783 13.7679L4.93783 12.9019L4.93783 12.9019L5.43783 13.7679ZM4.70578 16.5L5.57181 16L4.70578 16.5ZM7.43783 17.232L7.93783 18.0981L7.43783 17.232ZM9.1643 7.0121L9.72099 7.84282L9.1643 7.0121ZM18.4873 11.6034L17.4894 11.6686L18.4873 11.6034ZM19.0118 10.5498L19.5118 11.4158L19.0118 10.5498ZM5.98858 13.45L5.48858 12.5839L5.98858 13.45ZM15.1515 17.384L15.5939 18.2808L15.1515 17.384ZM17.0119 7.08567L16.5119 6.21964L17.0119 7.08567ZM15.836 7.01199L16.3926 6.18125L15.836 7.01199ZM15.1515 6.61604L15.5939 5.71924L15.1515 6.61604ZM15.836 16.988L15.2793 16.1573L15.836 16.988ZM17.0119 16.9143L17.5119 16.0483L17.0119 16.9143ZM7.98836 16.9142L7.48836 16.0482L7.98836 16.9142ZM9.16429 16.9879L8.6076 17.8186L9.16429 16.9879ZM9.84898 6.61604L9.40653 5.71924L9.84898 6.61604ZM9.84898 17.384L9.40653 18.2808L9.84898 17.384ZM19.0118 13.4502L18.5118 14.3162L19.0118 13.4502ZM18.4873 12.3965L19.4852 12.4617L18.4873 12.3965ZM12.5002 20C11.9479 20 11.5002 19.5523 11.5002 19H9.50022C9.50022 20.6569 10.8434 22 12.5002 22V20ZM13.5002 19C13.5002 19.5523 13.0525 20 12.5002 20V22C14.1571 22 15.5002 20.6569 15.5002 19H13.5002ZM13.5002 18.3658V19H15.5002V18.3658H13.5002ZM15.2793 16.1573C15.0972 16.2793 14.9067 16.3896 14.709 16.4872L15.5939 18.2808C15.8711 18.144 16.1379 17.9895 16.3926 17.8187L15.2793 16.1573ZM18.0622 16.366L17.5119 16.0483L16.5119 17.7804L17.0622 18.0981L18.0622 16.366ZM19.4282 16C19.1521 16.4783 18.5405 16.6422 18.0622 16.366L17.0622 18.0981C18.4971 18.9265 20.3318 18.4349 21.1603 17L19.4282 16ZM19.0622 14.634C19.5405 14.9101 19.7044 15.5217 19.4282 16L21.1603 17C21.9887 15.5651 21.4971 13.7303 20.0622 12.9019L19.0622 14.634ZM18.5118 14.3162L19.0622 14.634L20.0622 12.9019L19.5118 12.5842L18.5118 14.3162ZM17.5002 12C17.5002 12.1115 17.4966 12.222 17.4894 12.3314L19.4852 12.4617C19.4952 12.3089 19.5002 12.155 19.5002 12H17.5002ZM17.4894 11.6686C17.4966 11.778 17.5002 11.8885 17.5002 12H19.5002C19.5002 11.845 19.4952 11.6911 19.4852 11.5383L17.4894 11.6686ZM19.0622 9.36602L18.5118 9.68377L19.5118 11.4158L20.0622 11.0981L19.0622 9.36602ZM19.4282 8C19.7044 8.47829 19.5405 9.08988 19.0622 9.36602L20.0622 11.0981C21.4971 10.2696 21.9887 8.43487 21.1603 6.99999L19.4282 8ZM18.0622 7.63397C18.5405 7.35783 19.1521 7.5217 19.4282 7.99999L21.1603 7C20.3318 5.56512 18.4971 5.07349 17.0622 5.90192L18.0622 7.63397ZM17.5119 7.95169L18.0622 7.63397L17.0622 5.90192L16.5119 6.21964L17.5119 7.95169ZM14.709 7.51283C14.9067 7.61039 15.0972 7.7207 15.2793 7.84273L16.3926 6.18125C16.1378 6.01052 15.8711 5.85601 15.5939 5.71924L14.709 7.51283ZM13.5002 5V5.63424H15.5002V5H13.5002ZM12.5002 4C13.0525 4 13.5002 4.44772 13.5002 5H15.5002C15.5002 3.34315 14.1571 2 12.5002 2V4ZM11.5002 5C11.5002 4.44772 11.9479 4 12.5002 4V2C10.8434 2 9.50022 3.34315 9.50022 5H11.5002ZM11.5002 5.63424V5H9.50022V5.63424H11.5002ZM9.72099 7.84282C9.90314 7.72075 10.0937 7.61041 10.2914 7.51283L9.40653 5.71924C9.12926 5.85604 8.86246 6.0106 8.60761 6.18138L9.72099 7.84282ZM6.93783 7.63397L7.48836 7.95182L8.48836 6.21977L7.93783 5.90192L6.93783 7.63397ZM5.57181 8C5.84795 7.5217 6.45954 7.35783 6.93783 7.63397L7.93783 5.90192C6.50296 5.07349 4.66818 5.56512 3.83976 7L5.57181 8ZM5.93783 9.36602C5.45954 9.08988 5.29567 8.47829 5.57181 8L3.83976 6.99999C3.01133 8.43487 3.50296 10.2696 4.93783 11.0981L5.93783 9.36602ZM6.48858 9.68399L5.93783 9.36602L4.93783 11.0981L5.48858 11.416L6.48858 9.68399ZM7.50022 12C7.50022 11.8885 7.50385 11.7781 7.51098 11.6687L5.51522 11.5386C5.50526 11.6912 5.50022 11.8451 5.50022 12H7.50022ZM7.51098 12.3313C7.50385 12.2219 7.50022 12.1114 7.50022 12H5.50022C5.50022 12.1549 5.50526 12.3088 5.51522 12.4614L7.51098 12.3313ZM5.93783 14.634L6.48858 14.316L5.48858 12.5839L4.93783 12.9019L5.93783 14.634ZM5.57181 16C5.29567 15.5217 5.45954 14.9101 5.93783 14.634L4.93783 12.9019C3.50296 13.7303 3.01133 15.5651 3.83976 17L5.57181 16ZM6.93783 16.366C6.45954 16.6422 5.84795 16.4783 5.57181 16L3.83976 17C4.66819 18.4349 6.50296 18.9265 7.93783 18.0981L6.93783 16.366ZM7.48836 16.0482L6.93783 16.366L7.93783 18.0981L8.48836 17.7802L7.48836 16.0482ZM10.2914 16.4872C10.0936 16.3896 9.90314 16.2792 9.72099 16.1572L8.6076 17.8186C8.86245 17.9894 9.12925 18.144 9.40653 18.2808L10.2914 16.4872ZM11.5002 19V18.3658H9.50022V19H11.5002ZM5.48858 11.416C5.48316 11.4129 5.48857 11.4127 5.49783 11.4319C5.50839 11.4539 5.51829 11.4915 5.51522 11.5386L7.51098 11.6687C7.55888 10.9343 7.23996 10.1178 6.48858 9.68399L5.48858 11.416ZM8.60761 6.18138C8.56835 6.20769 8.53083 6.21796 8.5066 6.21979C8.48538 6.22139 8.48291 6.21662 8.48836 6.21977L7.48836 7.95182C8.24091 8.3863 9.10876 8.25309 9.72099 7.84282L8.60761 6.18138ZM19.4852 11.5383C19.4821 11.4912 19.492 11.4536 19.5026 11.4317C19.5118 11.4125 19.5173 11.4127 19.5118 11.4158L18.5118 9.68377C17.7604 10.1176 17.4415 10.9341 17.4894 11.6686L19.4852 11.5383ZM5.51522 12.4614C5.51829 12.5085 5.50839 12.5461 5.49783 12.5681C5.48857 12.5873 5.48316 12.5871 5.48858 12.5839L6.48858 14.316C7.23996 13.8822 7.55887 13.0657 7.51098 12.3313L5.51522 12.4614ZM15.5002 18.3658C15.5002 18.3721 15.4973 18.3675 15.5094 18.3497C15.5233 18.3295 15.5511 18.3019 15.5939 18.2808L14.709 16.4872C14.0492 16.8127 13.5002 17.497 13.5002 18.3658H15.5002ZM16.5119 6.21964C16.5173 6.21649 16.5149 6.22126 16.4937 6.21966C16.4694 6.21783 16.4319 6.20756 16.3926 6.18125L15.2793 7.84273C15.8915 8.25297 16.7594 8.38616 17.5119 7.95169L16.5119 6.21964ZM15.5939 5.71924C15.5511 5.69815 15.5233 5.67053 15.5094 5.65025C15.4973 5.63248 15.5002 5.62788 15.5002 5.63424H13.5002C13.5002 6.50299 14.0492 7.18731 14.709 7.51283L15.5939 5.71924ZM16.3926 17.8187C16.4319 17.7924 16.4694 17.7822 16.4937 17.7803C16.5149 17.7787 16.5173 17.7835 16.5119 17.7804L17.5119 16.0483C16.7594 15.6138 15.8915 15.747 15.2793 16.1573L16.3926 17.8187ZM8.48836 17.7802C8.4829 17.7834 8.48537 17.7786 8.50659 17.7802C8.53082 17.782 8.56834 17.7923 8.6076 17.8186L9.72099 16.1572C9.10876 15.7469 8.2409 15.6137 7.48836 16.0482L8.48836 17.7802ZM9.50022 5.63424C9.50022 5.62788 9.50313 5.63248 9.49101 5.65025C9.47718 5.67053 9.4493 5.69815 9.40653 5.71924L10.2914 7.51283C10.9512 7.18731 11.5002 6.50299 11.5002 5.63424H9.50022ZM9.40653 18.2808C9.4493 18.3019 9.47718 18.3295 9.49101 18.3498C9.50313 18.3675 9.50022 18.3721 9.50022 18.3658H11.5002C11.5002 17.497 10.9512 16.8127 10.2914 16.4872L9.40653 18.2808ZM19.5118 12.5842C19.5173 12.5873 19.5118 12.5875 19.5026 12.5683C19.492 12.5464 19.4821 12.5088 19.4852 12.4617L17.4894 12.3314C17.4415 13.0659 17.7604 13.8824 18.5118 14.3162L19.5118 12.5842Z" fill="#6C86AD"/>
<circle cx="12.5" cy="12" r="2" stroke="#6C86AD" stroke-width="2" stroke-linecap="round"/>
</svg>
