<svg width="20" height="19" viewBox="0 0 20 19" fill="none" xmlns="http://www.w3.org/2000/svg">
<path fill-rule="evenodd" clip-rule="evenodd" d="M8.83418 1.29522C9.31104 0.328999 10.6888 0.329005 11.1657 1.29522L13.309 5.63811L18.1017 6.33452C19.168 6.48946 19.5937 7.79983 18.8222 8.55192L15.3542 11.9324L16.1729 16.7057C16.355 17.7677 15.2403 18.5775 14.2866 18.0761L9.99993 15.8225L5.71325 18.0761C4.75953 18.5775 3.64487 17.7677 3.82701 16.7057L4.6457 11.9324L1.1777 8.55192C0.406122 7.79982 0.831892 6.48946 1.89817 6.33452L6.69083 5.63811L8.83418 1.29522ZM9.99993 3.45224L8.32144 6.85325C8.13208 7.23693 7.76604 7.50287 7.34262 7.5644L3.58939 8.10978L6.30525 10.7571C6.61164 11.0557 6.75145 11.486 6.67913 11.9078L6.038 15.6458L9.39499 13.881C9.77371 13.6818 10.2262 13.6818 10.6049 13.881L13.9619 15.6458L13.3207 11.9078C13.2484 11.4861 13.3882 11.0558 13.6946 10.7571L16.4105 8.10978L12.6572 7.5644C12.2338 7.50287 11.8678 7.23694 11.6784 6.85325L9.99993 3.45224Z" fill="#6C86AD"/>
</svg>
