<svg width="24" height="24" viewBox="0 0 24 24" fill="none" xmlns="http://www.w3.org/2000/svg">
<path d="M22.2412 1.99999L13.7412 10.5" stroke="#6C86AD" stroke-width="2" stroke-linecap="round"/>
<path d="M16.7412 18.25C17.8328 18.25 19.2412 17 19.2412 17C19.2412 17 17.9912 18.4085 17.9912 19.5C17.9912 20.5915 19.2412 22 19.2412 22C19.2412 22 17.8328 20.75 16.7412 20.75C15.6497 20.75 14.2412 22 14.2412 22C14.2412 22 15.4912 20.5915 15.4912 19.5C15.4912 18.4085 14.2412 17 14.2412 17C14.2412 17 15.6497 18.25 16.7412 18.25Z" fill="#6C86AD"/>
<path d="M19.2412 11C20.1145 11 21.2412 10 21.2412 10C21.2412 10 20.2412 11.1268 20.2412 12C20.2412 12.8732 21.2412 14 21.2412 14C21.2412 14 20.1144 13 19.2412 13C18.368 13 17.2412 14 17.2412 14C17.2412 14 18.2412 12.8732 18.2412 12C18.2412 11.1268 17.2412 10 17.2412 10C17.2412 10 18.368 11 19.2412 11Z" fill="#6C86AD"/>
<path d="M14.6485 12.4073C14.9395 12.6983 14.9379 13.1362 14.6453 13.3147L12.6607 14.5254C13.3726 15.8939 13.2797 17.4645 12.3054 18.4388L9.25997 21.4842C9.0498 21.6944 8.67301 21.6585 8.41835 21.4038L2.88574 15.8712C2.63108 15.6166 2.59519 15.2398 2.80537 15.0296L5.85079 11.9842C6.82509 11.0099 8.3957 10.917 9.76413 11.6289L10.9749 9.64424C11.1533 9.35163 11.5913 9.35013 11.8823 9.64109C13.7276 11.4864 10.1532 7.91201 14.6485 12.4073ZM6.87449 18.3371L8.58745 16.6241C8.79772 16.4139 9.17461 16.4499 9.42928 16.7045C9.68395 16.9592 9.71983 17.336 9.50956 17.5462L7.7966 19.2592L8.71868 20.1813L11.3832 17.5167C12.2242 16.6758 12.0802 15.1684 11.0617 14.1499L10.1397 13.2279C9.12115 12.2094 7.6138 12.0654 6.77284 12.9064L4.1083 15.5709L5.03038 16.493L5.98202 15.5413C6.19229 15.3311 6.56907 15.367 6.82374 15.6216C7.07841 15.8763 7.1144 16.2532 6.90413 16.4635L5.95249 17.4151L6.87449 18.3371ZM10.8181 12.3834L11.9063 13.4715L13.3248 12.6062L11.6834 10.9648L10.8181 12.3834Z" fill="#6C86AD"/>
<path fill-rule="evenodd" clip-rule="evenodd" d="M12.0395 10.2225L11.6701 9.85317C11.5772 9.76027 11.4703 9.72348 11.3874 9.72377C11.3074 9.72405 11.2581 9.75599 11.231 9.80039L9.87429 12.0243L9.62568 11.895C8.34051 11.2264 6.92089 11.3383 6.06292 12.1962L3.0175 15.2417C2.96067 15.2985 2.92057 15.4817 3.09788 15.659L8.63048 21.1916C8.80779 21.3689 8.99101 21.3288 9.04784 21.272L12.0933 18.2266C12.9513 17.3686 13.0632 15.949 12.3945 14.6638L12.2652 14.4152L14.4891 13.0585C14.5335 13.0315 14.5655 12.9821 14.5658 12.9021C14.566 12.8193 14.5293 12.7123 14.4363 12.6194L12.0395 10.2225ZM12.6735 10.008L14.8606 12.1951C15.0587 12.3932 15.1666 12.6507 15.1657 12.9042C15.1649 13.1605 15.0497 13.4194 14.8016 13.5708L13.0489 14.64C13.6702 16.0346 13.5454 17.6229 12.5175 18.6509L9.47211 21.6963C9.10859 22.0598 8.53824 21.9479 8.20622 21.6159L2.67361 16.0833C2.3416 15.7513 2.22972 15.1809 2.59324 14.8174L5.63866 11.772C6.66654 10.7441 8.2549 10.6193 9.64954 11.2406L10.7187 9.48798C10.8701 9.23979 11.129 9.12466 11.3853 9.12377C11.6388 9.1229 11.8963 9.23085 12.0944 9.4289L12.4641 9.79854L12.6725 10.007C12.1795 10.5 12.2485 10.4315 12.2485 10.4315M12.6735 10.008L12.6725 10.007L12.6735 10.008ZM11.6258 10.4829L13.8066 12.6637L11.861 13.8505L10.4391 12.4286L11.6258 10.4829ZM11.7409 11.4465L11.1971 12.338L11.9515 13.0925L12.8431 12.5487L11.7409 11.4465ZM6.56071 12.6942C7.55504 11.6998 9.25597 11.9198 10.3518 13.0157L11.2738 13.9377C12.3697 15.0336 12.5897 16.7345 11.5954 17.7288L8.71868 20.6055L7.37233 19.2592L9.29743 17.3341C9.35439 17.2771 9.39443 17.0939 9.21715 16.9166C9.0398 16.7393 8.85648 16.7793 8.79959 16.8362L6.87449 18.7613L5.52823 17.415L6.692 16.2513C6.7489 16.1944 6.78896 16.0111 6.61161 15.8337C6.43434 15.6564 6.25111 15.6965 6.19416 15.7534L5.03038 16.9172L3.68403 15.5709L6.56071 12.6942ZM9.92757 13.44C8.98634 12.4987 7.67256 12.4309 6.98497 13.1184L4.53256 15.5709L5.03038 16.0687L5.76989 15.3292C6.13347 14.9656 6.70381 15.0774 7.03588 15.4094C7.36786 15.7414 7.47991 16.3119 7.11627 16.6755L6.37675 17.415L6.87449 17.9128L8.37532 16.4119C8.73896 16.0483 9.30942 16.1603 9.64142 16.4923C9.97348 16.8244 10.0853 17.3947 9.7217 17.7583L8.22086 19.2592L8.71868 19.757L11.1711 17.3046C11.8587 16.617 11.7908 15.3032 10.8496 14.362L9.92757 13.44Z" fill="#6C86AD"/>
</svg>
