<svg width="20" height="4" viewBox="0 0 20 4" fill="none" xmlns="http://www.w3.org/2000/svg">
<path d="M18 4C16.8954 4 16 3.10457 16 2C16 0.895431 16.8954 6.511e-07 18 6.99382e-07C19.1046 7.47665e-07 20 0.895431 20 2C20 3.10457 19.1046 4 18 4Z" fill="#6C86AC"/>
<path d="M10 4C8.89543 4 8 3.10457 8 2C8 0.895431 8.89543 3.01409e-07 10 3.49691e-07C11.1046 3.97974e-07 12 0.895431 12 2C12 3.10457 11.1046 4 10 4Z" fill="#6C86AC"/>
<path d="M0 2C-4.82823e-08 3.10457 0.895431 4 2 4C3.10457 4 4 3.10457 4 2C4 0.895432 3.10457 4.82823e-08 2 0C0.895432 -4.82822e-08 4.82823e-08 0.895432 0 2Z" fill="#6C86AC"/>
</svg>
