<svg width="13" height="12" viewBox="0 0 13 12" fill="none" xmlns="http://www.w3.org/2000/svg">
<path d="M12.933 9.46114L10.787 11.8366C10.7403 11.8882 10.6839 11.9293 10.6212 11.9574C10.5585 11.9856 10.4908 12 10.4224 12H0.24914C0.200598 12 0.153114 11.9854 0.112521 11.9579C0.0719286 11.9304 0.0399963 11.8913 0.0206476 11.8454C0.00129901 11.7994 -0.00462312 11.7486 0.00360888 11.6993C0.0118409 11.6499 0.0338684 11.6041 0.066985 11.5674L2.21464 9.192C2.26117 9.14055 2.31744 9.09949 2.37996 9.07136C2.44248 9.04327 2.50993 9.02869 2.57812 9.02857H12.7509C12.7994 9.02857 12.8469 9.0432 12.8875 9.07069C12.9281 9.09818 12.96 9.13729 12.9793 9.18322C12.9987 9.22916 13.0046 9.27994 12.9964 9.32933C12.9882 9.37871 12.9661 9.4245 12.933 9.46114ZM10.787 4.67771C10.7403 4.62611 10.6839 4.58498 10.6212 4.55685C10.5585 4.52873 10.4908 4.51425 10.4224 4.51429H0.24914C0.200598 4.51429 0.153114 4.52891 0.112521 4.5564C0.0719286 4.58389 0.0399963 4.623 0.0206476 4.66894C0.00129901 4.71487 -0.00462312 4.76565 0.00360888 4.81504C0.0118409 4.86443 0.0338684 4.91021 0.066985 4.94685L2.21464 7.32229C2.26117 7.37374 2.31744 7.4148 2.37996 7.44292C2.44248 7.47101 2.50993 7.4856 2.57812 7.48571H12.7509C12.7994 7.48571 12.8469 7.47109 12.8875 7.4436C12.9281 7.41611 12.96 7.377 12.9793 7.33106C12.9987 7.28512 13.0046 7.23435 12.9964 7.18496C12.9882 7.13558 12.9661 7.08979 12.933 7.05315L10.787 4.67771ZM0.24914 2.97143H10.4224C10.4908 2.97147 10.5585 2.95698 10.6212 2.92886C10.6839 2.90074 10.7403 2.8596 10.787 2.808L12.933 0.43257C12.9661 0.39594 12.9882 0.350124 12.9964 0.30075C13.0046 0.251376 12.9987 0.200595 12.9793 0.154647C12.96 0.108699 12.9281 0.0695858 12.8875 0.0421121C12.8469 0.0146386 12.7994 1.69193e-06 12.7509 0H2.57812C2.50993 0.000119781 2.44248 0.0146862 2.37996 0.0427976C2.31744 0.0709088 2.26117 0.111966 2.21464 0.163429L0.0675386 2.53886C0.034454 2.57545 0.0124362 2.62122 0.00418553 2.67054C-0.00406513 2.71986 0.00181001 2.77059 0.0210904 2.81652C0.0403708 2.86245 0.0722183 2.90157 0.112727 2.92908C0.153236 2.9566 0.200645 2.97132 0.24914 2.97143Z" fill="#7E96B8"/>
</svg>
