<svg width="24" height="25" viewBox="0 0 24 25" fill="none" xmlns="http://www.w3.org/2000/svg">
<path d="M21.1746 10.1726C20.8209 9.80386 20.4553 9.42264 20.3171 9.08856C20.1901 8.78168 20.1824 8.27338 20.175 7.78174C20.1612 6.86685 20.1455 5.82993 19.4247 5.10904C18.7038 4.38815 17.6668 4.3725 16.752 4.35867C16.2603 4.35126 15.752 4.34357 15.4451 4.21658C15.1111 4.07843 14.7298 3.71277 14.3611 3.3591C13.7133 2.73782 12.979 2.03369 12 2.03369C11.021 2.03369 10.2868 2.73782 9.63895 3.3591C9.27017 3.71277 8.88895 4.07843 8.55487 4.21658C8.24799 4.34357 7.73969 4.35126 7.24805 4.35867C6.33316 4.3725 5.29623 4.38815 4.57535 5.10904C3.85446 5.82993 3.83881 6.86685 3.82498 7.78174C3.81757 8.27338 3.80988 8.78168 3.68289 9.08856C3.54474 9.42255 3.17908 9.80386 2.82541 10.1726C2.20413 10.8204 1.5 11.5547 1.5 12.5337C1.5 13.5127 2.20413 14.2469 2.82541 14.8947C3.17908 15.2635 3.54474 15.6447 3.68289 15.9788C3.80988 16.2857 3.81757 16.794 3.82498 17.2856C3.83881 18.2005 3.85446 19.2375 4.57535 19.9583C5.29623 20.6792 6.33316 20.6949 7.24805 20.7087C7.73969 20.7161 8.24798 20.7238 8.55487 20.8508C8.88885 20.989 9.27017 21.3546 9.63895 21.7083C10.2867 22.3296 11.021 23.0337 12 23.0337C12.979 23.0337 13.7132 22.3296 14.3611 21.7083C14.7298 21.3546 15.1111 20.989 15.4451 20.8508C15.752 20.7238 16.2603 20.7161 16.752 20.7087C17.6668 20.6949 18.7038 20.6792 19.4247 19.9583C20.1455 19.2375 20.1612 18.2005 20.175 17.2856C20.1824 16.794 20.1901 16.2857 20.3171 15.9788C20.4553 15.6448 20.8209 15.2635 21.1746 14.8947C21.7959 14.247 22.5 13.5127 22.5 12.5337C22.5 11.5547 21.7959 10.8205 21.1746 10.1726Z" fill="#2F8AF5"/>
<path d="M11.143 16.0764L16.643 10.8264C16.7143 10.7584 16.7715 10.6771 16.8113 10.587C16.8512 10.4969 16.8729 10.3998 16.8752 10.3013C16.8775 10.2028 16.8604 10.1048 16.8248 10.013C16.7893 9.92109 16.7359 9.83713 16.6679 9.76586C16.5999 9.6946 16.5185 9.63743 16.4284 9.59763C16.3383 9.55783 16.2412 9.53617 16.1427 9.53389C16.0442 9.53161 15.9463 9.54876 15.8544 9.58435C15.7626 9.61995 15.6786 9.67329 15.6074 9.74133L10.6252 14.497L8.39301 12.3663C8.32177 12.2983 8.23783 12.2449 8.14597 12.2094C8.05411 12.1738 7.95614 12.1566 7.85765 12.1589C7.75916 12.1612 7.66209 12.1828 7.57198 12.2226C7.48186 12.2624 7.40047 12.3196 7.33245 12.3909C7.26444 12.4621 7.21112 12.5461 7.17556 12.638C7.14 12.7298 7.12289 12.8278 7.12521 12.9263C7.12752 13.0248 7.14921 13.1219 7.18905 13.212C7.22888 13.3021 7.28608 13.3834 7.35737 13.4514L10.1073 16.0764C10.2469 16.2096 10.4323 16.2839 10.6252 16.2839C10.818 16.2839 11.0035 16.2096 11.143 16.0764Z" fill="white"/>
</svg>
