<svg width="25" height="24" viewBox="0 0 25 24" fill="none" xmlns="http://www.w3.org/2000/svg">
<path fill-rule="evenodd" clip-rule="evenodd" d="M3.5 6C3.5 4.34315 4.84315 3 6.5 3H14.5C16.1569 3 17.5 4.34315 17.5 6V7C19.7091 7 21.5 8.79086 21.5 11V17C21.5 19.2091 19.7091 21 17.5 21H7.5C5.29086 21 3.5 19.2091 3.5 17V8V6ZM15.5 6V7H5.5V6C5.5 5.44772 5.94772 5 6.5 5H14.5C15.0523 5 15.5 5.44772 15.5 6ZM5.5 17V9H16.5H17.5C18.6046 9 19.5 9.89543 19.5 11V17C19.5 18.1046 18.6046 19 17.5 19H7.5C6.39543 19 5.5 18.1046 5.5 17ZM14.5 13C13.9477 13 13.5 13.4477 13.5 14C13.5 14.5523 13.9477 15 14.5 15H16.5C17.0523 15 17.5 14.5523 17.5 14C17.5 13.4477 17.0523 13 16.5 13H14.5Z" fill="#2F8AF5"/>
</svg>
