<svg width="24" height="24" viewBox="0 0 24 24" fill="none" xmlns="http://www.w3.org/2000/svg">
<path fill-rule="evenodd" clip-rule="evenodd" d="M12 5C12 4.44772 12.4477 4 13 4L19.0314 4C19.5837 4 20.0314 4.44772 20.0314 5L20.0314 11.0314C20.0314 11.5837 19.5837 12.0314 19.0314 12.0314C18.4791 12.0314 18.0314 11.5837 18.0314 11.0314L18.0314 6L13 6C12.4477 6 12 5.55228 12 5Z" fill="white"/>
<path fill-rule="evenodd" clip-rule="evenodd" d="M12.0156 19.0156C12.0156 19.5679 11.5679 20.0156 11.0156 20.0156L4.98421 20.0156C4.43193 20.0156 3.98421 19.5679 3.98421 19.0156L3.98421 12.9842C3.98421 12.4319 4.43193 11.9842 4.98421 11.9842C5.5365 11.9842 5.98421 12.4319 5.98421 12.9842L5.98421 18.0156L11.0156 18.0156C11.5679 18.0156 12.0156 18.4633 12.0156 19.0156Z" fill="white"/>
</svg>
