<svg width="32" height="33" viewBox="0 0 32 33" fill="none" xmlns="http://www.w3.org/2000/svg">
<g clip-path="url(#clip0_4428_94149)">
<path opacity="0.4" d="M25.6 0.400146H6.4C2.86538 0.400146 0 3.26552 0 6.80015V26.0001C0 29.5348 2.86538 32.4001 6.4 32.4001H25.6C29.1346 32.4001 32 29.5348 32 26.0001V6.80015C32 3.26552 29.1346 0.400146 25.6 0.400146Z" fill="white"/>
<path d="M15.8487 13.9731C15.6626 14.1426 15.4826 14.3196 15.287 14.4773C15.213 14.5253 15.1259 14.5488 15.0379 14.5448C12.4482 14.5481 9.85848 14.5501 7.26878 14.5507C7.08216 14.5511 7.01518 14.488 7.03516 14.3091C7.04417 14.2283 7.01667 14.1385 7.04296 14.0663C7.07946 13.9996 7.13181 13.9429 7.19539 13.9012C7.21489 13.885 7.25885 13.8979 7.29163 13.8979C10.078 13.8978 12.8644 13.8977 15.6508 13.8977C15.6991 13.8977 15.7475 13.8977 15.7958 13.8977L15.8487 13.9731Z" fill="#F46825"/>
<path d="M15.9019 11.7192C15.8157 11.7192 15.7295 11.7192 15.6432 11.7192C12.8893 11.7187 10.1353 11.7182 7.38134 11.7177C7.07417 11.7176 6.90907 11.4469 7.05209 11.1716C7.06546 11.1528 7.08245 11.1369 7.10205 11.1248C7.12166 11.1126 7.14348 11.1045 7.16626 11.1009C7.23953 11.0928 7.31336 11.0907 7.38697 11.0948C9.89505 11.0941 12.4032 11.0992 14.9112 11.086C15.2321 11.0843 15.4806 11.1501 15.68 11.4058C15.7481 11.4931 15.8573 11.5487 15.9477 11.6188L15.9019 11.7192Z" fill="#F46825"/>
<path d="M15.97 10.19C15.7603 10.3882 15.5956 10.558 15.4142 10.7077C15.341 10.7571 15.2539 10.7818 15.1657 10.7785C12.5357 10.7814 9.90568 10.7782 7.2757 10.7834C7.07008 10.7838 7.00964 10.7018 7.03772 10.5209C7.06034 10.3752 6.93886 10.1566 7.24601 10.157C10.1054 10.1604 12.9648 10.1611 15.8242 10.1592C15.8734 10.1664 15.9221 10.1767 15.97 10.19Z" fill="#F46825"/>
<path d="M15.8514 7.96611C15.7265 7.9719 15.6477 7.97873 15.569 7.97874C12.8392 7.97905 10.1095 7.97814 7.3797 7.97602C7.27137 7.97589 7.08181 7.96171 7.06961 7.91659C7.02867 7.76509 7.04422 7.59614 7.05548 7.43507C7.05744 7.40699 7.14099 7.37188 7.19099 7.36288C7.26427 7.35459 7.33813 7.35276 7.41172 7.35741C9.87915 7.35698 12.3468 7.37385 14.8138 7.34239C15.3266 7.33585 15.542 7.6396 15.8514 7.96611Z" fill="#F46825"/>
<path d="M17.8752 13.8977C17.9556 13.8977 18.0361 13.8977 18.1166 13.8977C20.5425 13.8979 22.9685 13.899 25.3944 13.901C25.4927 13.9011 25.6698 13.9285 25.6757 13.9649C25.6978 14.1411 25.6976 14.3194 25.6754 14.4955C25.6733 14.5178 25.5629 14.545 25.5026 14.5451C23.1996 14.5477 20.8966 14.5473 18.5936 14.5439C18.5138 14.5418 18.4369 14.5129 18.3754 14.462C18.1927 14.3 18.0226 14.124 17.8477 13.9533L17.8752 13.8977Z" fill="#F46825"/>
<path d="M14.9213 14.8311C14.6011 15.1965 14.3519 15.4789 13.8245 15.4697C11.6778 15.4323 9.53021 15.4543 7.38294 15.4539C7.07534 15.4539 6.90865 15.1808 7.05206 14.9061C7.07956 14.8686 7.12074 14.8434 7.16668 14.8359C7.23177 14.8284 7.29741 14.8269 7.36278 14.8314C9.7805 14.8313 12.1982 14.8312 14.6159 14.8311C14.6975 14.8311 14.779 14.8311 14.9213 14.8311Z" fill="#F46825"/>
<path d="M14.9236 7.0434C14.7904 7.0434 14.7171 7.0434 14.6439 7.0434C12.2086 7.04323 9.77323 7.04201 7.33789 7.03975C7.24162 7.03959 7.07092 7.00796 7.06253 6.96577C7.0346 6.80623 7.03659 6.64288 7.0684 6.48407C7.07497 6.44821 7.22367 6.41975 7.30713 6.41928C8.20908 6.4142 9.11107 6.415 10.0131 6.41498C11.2758 6.41496 12.5397 6.44699 13.8008 6.4011C14.332 6.38177 14.6018 6.65891 14.9236 7.0434Z" fill="#F46825"/>
<path d="M18.8095 14.8311C18.8813 14.8311 18.9532 14.8311 19.025 14.8311C21.1552 14.8312 23.2854 14.8344 25.4155 14.8269C25.6362 14.8261 25.7229 14.8786 25.7125 15.1114C25.7032 15.3199 25.7057 15.4616 25.42 15.46C23.4783 15.4488 21.5365 15.457 19.5948 15.4471C19.4648 15.4465 19.3203 15.3698 19.2089 15.2912C19.0553 15.1704 18.9092 15.0402 18.7715 14.9013L18.8095 14.8311Z" fill="#F46825"/>
<path d="M20.6424 13.6142C19.6191 13.6142 18.6729 13.6168 17.7268 13.6075C17.6898 13.5976 17.6559 13.5785 17.6282 13.552C17.6005 13.5255 17.5799 13.4925 17.5683 13.456C17.501 12.9889 17.528 12.9636 18.0037 12.9636C18.5596 12.9636 19.1157 12.974 19.6712 12.9587C19.8956 12.9525 20.0608 13.0132 20.2043 13.184C20.3186 13.3202 20.4581 13.4354 20.6424 13.6142Z" fill="#F46825"/>
<path d="M13.5938 13.6148C13.7135 13.4041 13.8162 13.2088 13.9357 13.0244C13.9617 12.9842 14.0477 12.9662 14.1062 12.9658C14.7109 12.9619 15.3156 12.9667 15.9202 12.9617C16.072 12.9604 16.1276 13.0254 16.1187 13.1668C16.1161 13.2074 16.1188 13.2483 16.1188 13.289C16.1185 13.6141 16.1184 13.6146 15.7983 13.6147C15.0634 13.615 14.3285 13.615 13.5938 13.6148Z" fill="#F46825"/>
<path d="M8.1556 13.6143C7.84447 13.6143 7.53326 13.6104 7.22222 13.6161C7.08435 13.6187 7.03373 13.5649 7.03519 13.4283C7.04114 12.87 6.99273 12.9704 7.48474 12.965C8.00052 12.9594 8.51653 12.9696 9.03217 12.9594C9.21664 12.9557 9.28817 13.02 9.26827 13.2C9.26111 13.2732 9.26086 13.3469 9.26753 13.4202C9.27945 13.5706 9.21064 13.6209 9.06441 13.6175C8.76162 13.6103 8.45856 13.6153 8.1556 13.6153V13.6143Z" fill="#F46825"/>
<path d="M13.7129 12.0281C13.9942 12.0281 14.2928 12.028 14.5913 12.0281C15.0243 12.0282 15.4573 12.034 15.8901 12.026C16.0591 12.0229 16.1192 12.0828 16.122 12.2518C16.1282 12.6433 16.1355 12.6512 15.7471 12.6605C15.2084 12.6733 14.6692 12.6699 14.1303 12.6794C13.9791 12.6821 13.9227 12.6308 13.8985 12.4733C13.8757 12.3251 13.7826 12.1877 13.7129 12.0281Z" fill="#F46825"/>
<path d="M8.1382 12.658C7.84435 12.658 7.55038 12.6528 7.25671 12.6599C7.08518 12.6641 7.01806 12.5923 7.03477 12.4256C7.04205 12.353 7.01406 12.269 7.04196 12.2085C7.07411 12.1387 7.14929 12.0395 7.20753 12.0383C7.83625 12.0255 8.46513 12.025 9.09416 12.0367C9.15246 12.0378 9.21809 12.1408 9.26203 12.2083C9.28448 12.2428 9.26655 12.3036 9.26656 12.3524C9.2666 12.677 9.26658 12.6773 8.94698 12.6778C8.67742 12.6782 8.40785 12.6782 8.13829 12.6779L8.1382 12.658Z" fill="#F46825"/>
<path d="M8.15616 8.90811C7.8539 8.90811 7.5515 8.90248 7.24945 8.91042C7.09311 8.91454 7.0188 8.86298 7.03551 8.70014C7.04179 8.62703 7.04197 8.55353 7.03605 8.48039C7.02755 8.34994 7.07815 8.28169 7.21622 8.28053C7.8369 8.2753 8.45756 8.26832 9.07821 8.25958C9.21167 8.25761 9.27636 8.30922 9.26751 8.44708C9.26108 8.52835 9.26137 8.61002 9.26837 8.69124C9.2863 8.86704 9.20337 8.91744 9.03835 8.91238C8.74454 8.90336 8.45025 8.90984 8.15616 8.90984L8.15616 8.90811Z" fill="#F46825"/>
<path d="M13.5898 8.27898C13.8186 8.27898 14.0039 8.27891 14.1891 8.27899C14.7379 8.27924 15.287 8.29079 15.8354 8.27497C16.0987 8.26738 16.1236 8.39774 16.1228 8.60659C16.122 8.80761 16.0978 8.92362 15.8452 8.91513C15.2888 8.89645 14.7314 8.90645 14.1744 8.91176C14.0192 8.91325 13.9273 8.89442 13.8865 8.70538C13.8571 8.56914 13.7188 8.45626 13.5898 8.27898Z" fill="#F46825"/>
<path d="M13.7168 9.85487C13.7902 9.66926 13.8416 9.51332 13.9143 9.368C13.9434 9.30998 14.019 9.23687 14.0744 9.23608C14.7031 9.22714 15.3319 9.22765 15.9608 9.2376C15.9953 9.24708 16.027 9.26496 16.053 9.28967C16.0789 9.31437 16.0984 9.34511 16.1096 9.37916C16.1886 9.77996 16.1235 9.85429 15.7215 9.85463C15.1254 9.85513 14.5292 9.85521 13.933 9.85487C13.8538 9.85488 13.7746 9.85487 13.7168 9.85487Z" fill="#F46825"/>
<path d="M18.7051 12.0296C18.9747 12.0298 19.2455 12.0449 19.5136 12.0252C19.7497 12.0079 19.8242 12.1021 19.7933 12.3193C19.7879 12.368 19.7877 12.417 19.7927 12.4658C19.8028 12.6019 19.7376 12.6582 19.6049 12.6579C18.984 12.6565 18.363 12.6564 17.7421 12.6576C17.6046 12.6578 17.5535 12.5875 17.5596 12.458C17.5638 12.3766 17.5637 12.2951 17.5593 12.2137C17.5512 12.0764 17.6147 12.0259 17.7492 12.028C18.0678 12.0328 18.3865 12.0295 18.7051 12.0296Z" fill="#F46825"/>
<path d="M18.6736 11.7184C18.3784 11.7184 18.0832 11.713 17.7882 11.7206C17.6216 11.7248 17.5573 11.6657 17.5556 11.4934C17.5516 11.0939 17.5438 11.0938 17.9535 11.0939C18.4864 11.0941 19.0196 11.1053 19.552 11.0901C19.7857 11.0835 19.8054 11.1996 19.793 11.3765C19.7817 11.5387 19.8512 11.7366 19.5588 11.7209C19.2645 11.705 18.9687 11.7174 18.6736 11.7174L18.6736 11.7184Z" fill="#F46825"/>
<path d="M18.6639 7.04245C18.3689 7.04278 18.0738 7.03727 17.7791 7.04504C17.6255 7.04909 17.5447 7.00373 17.56 6.83779C17.5675 6.75675 17.5386 6.66437 17.5687 6.59563C17.5998 6.5247 17.6815 6.42678 17.7428 6.42558C18.3652 6.41345 18.9878 6.41381 19.6105 6.42666C19.6715 6.42791 19.756 6.52529 19.7831 6.59582C19.8133 6.67419 19.7852 6.77328 19.7916 6.86271C19.8017 7.00663 19.7285 7.04557 19.5979 7.04362C19.2867 7.03898 18.9753 7.04213 18.6639 7.04245Z" fill="#F46825"/>
<path d="M18.6702 10.7801C18.367 10.7801 18.0638 10.7762 17.7607 10.7818C17.6141 10.7845 17.5308 10.7242 17.5635 10.5806C17.5962 10.4367 17.4324 10.1785 17.711 10.1678C18.3574 10.1431 19.0055 10.1578 19.6527 10.1687C19.6996 10.1695 19.7683 10.2619 19.7852 10.3232C19.8082 10.4068 19.7863 10.5017 19.7925 10.5912C19.8019 10.7294 19.7393 10.7815 19.6044 10.7797C19.2931 10.7755 18.9816 10.7784 18.6702 10.7784V10.7801Z" fill="#F46825"/>
<path d="M18.6925 9.85373C18.3893 9.85373 18.0857 9.84547 17.7828 9.85607C17.4863 9.86645 17.5736 9.65513 17.5601 9.50003C17.5459 9.33543 17.5667 9.22038 17.7884 9.22525C18.3865 9.23838 18.985 9.23432 19.5833 9.22863C19.7445 9.22709 19.7945 9.28637 19.7957 9.44444C19.7989 9.85145 19.8058 9.85166 19.4056 9.85258C19.1679 9.85312 18.9302 9.85268 18.6925 9.85268V9.85373Z" fill="#F46825"/>
<path d="M8.1479 9.22845C8.44295 9.22845 8.73833 9.23697 9.03291 9.22536C9.21885 9.21802 9.27218 9.29057 9.27068 9.46857C9.26742 9.85501 9.2756 9.85555 8.88051 9.85524C8.3478 9.85483 7.81467 9.84071 7.28253 9.85768C6.97678 9.86744 7.04875 9.67107 7.03406 9.50039C7.01749 9.30795 7.07074 9.21416 7.28759 9.22636C7.57353 9.24245 7.86106 9.23032 8.1479 9.23032V9.22845Z" fill="#F46825"/>
<path d="M18.6907 8.90858C18.3804 8.90858 18.07 8.90385 17.7598 8.91063C17.6115 8.91387 17.5488 8.85642 17.5598 8.70982C17.565 8.63667 17.5651 8.56325 17.5602 8.49009C17.5511 8.34782 17.6094 8.27938 17.7576 8.28003C18.37 8.28273 18.9825 8.28293 19.5949 8.28063C19.7408 8.28007 19.8056 8.34112 19.7932 8.48737C19.787 8.5523 19.7871 8.61768 19.7936 8.68259C19.8123 8.85068 19.7463 8.91685 19.5725 8.91063C19.2789 8.90011 18.9847 8.90774 18.6907 8.90774V8.90858Z" fill="#F46825"/>
<path d="M18.6624 7.97867C18.3676 7.97867 18.0727 7.97333 17.7781 7.98086C17.6232 7.98482 17.5453 7.93486 17.5604 7.77118C17.5662 7.69787 17.5665 7.62422 17.5612 7.55087C17.5534 7.41751 17.6097 7.35683 17.7469 7.35743C18.3693 7.36016 18.9917 7.35422 19.6138 7.36669C19.6742 7.3679 19.7553 7.46444 19.7853 7.53441C19.815 7.60346 19.7864 7.69543 19.7933 7.77651C19.8059 7.92367 19.7456 7.98257 19.5959 7.97939C19.2848 7.97278 18.9736 7.97739 18.6624 7.97739V7.97867Z" fill="#F46825"/>
<path d="M26.4842 19.9876C26.1558 20.33 25.9384 20.6302 25.4272 20.6239C22.9352 20.5933 20.4427 20.6106 17.9503 20.6108C17.6095 20.6108 17.4622 20.3957 17.5958 20.0836C17.6244 20.038 17.6699 20.0055 17.7224 19.9933C17.787 19.9827 17.8528 19.9802 17.918 19.9859C20.6646 19.9863 23.4111 19.9869 26.1576 19.9876C26.2443 19.9877 26.331 19.9876 26.4842 19.9876Z" fill="#F46825"/>
<path d="M26.4618 21.531C26.3473 21.538 26.2759 21.5462 26.2046 21.5462C23.4358 21.5474 20.667 21.547 17.8982 21.5452C17.8003 21.5451 17.628 21.5172 17.6179 21.4731C17.592 21.314 17.5887 21.1521 17.6083 20.9922C17.6099 20.9675 17.682 20.934 17.7247 20.9281C17.8062 20.9207 17.8882 20.9187 17.97 20.9223C20.4275 20.9224 22.8852 20.9416 25.3423 20.9079C25.8657 20.9007 26.1562 21.1346 26.4618 21.531Z" fill="#F46825"/>
<path d="M15.7856 23.8049C15.5993 23.9745 15.4191 24.1517 15.223 24.3094C15.1484 24.3564 15.061 24.3791 14.9729 24.3743C12.6793 24.3776 10.3857 24.3765 8.0921 24.371C7.96668 24.3602 7.84737 24.312 7.74964 24.2327C7.58143 24.106 7.4349 23.9507 7.2793 23.8073L7.31176 23.751H15.7326C15.7503 23.7689 15.7679 23.7869 15.7856 23.8049Z" fill="#F46825"/>
<path d="M26.3717 17.8073C26.2275 17.8073 26.1461 17.8073 26.0647 17.8073C23.3594 17.8079 20.6541 17.8085 17.9488 17.809C17.5938 17.809 17.4837 17.6579 17.5935 17.3064C17.6062 17.2794 17.6245 17.2554 17.6473 17.236C17.6701 17.2167 17.6967 17.2025 17.7254 17.1943C17.8063 17.1813 17.8884 17.1783 17.97 17.1853C20.413 17.1854 22.8562 17.2036 25.2988 17.1717C25.8148 17.165 26.0583 17.4434 26.3717 17.8073Z" fill="#F46825"/>
<path d="M25.4081 16.8732C24.5157 16.8732 23.6233 16.8732 22.7309 16.8732C21.1173 16.8731 19.5037 16.872 17.8902 16.8699C17.7937 16.8696 17.6228 16.8384 17.6144 16.7961C17.5846 16.6374 17.5871 16.4744 17.6216 16.3166C17.6303 16.2762 17.791 16.2487 17.882 16.2483C19.0942 16.2435 20.3065 16.2442 21.5187 16.2442C22.5016 16.2442 23.4846 16.2548 24.4672 16.239C24.746 16.2345 24.9533 16.3073 25.1306 16.5191C25.2224 16.6288 25.3506 16.7082 25.4624 16.8013C25.4443 16.8253 25.4262 16.8492 25.4081 16.8732Z" fill="#F46825"/>
<path d="M14.8411 24.7273C14.6631 24.8932 14.4918 25.0674 14.3031 25.2202C14.2267 25.2661 14.138 25.2871 14.0491 25.2805C12.3682 25.2839 10.6872 25.2859 9.0063 25.2772C8.87989 25.2659 8.75957 25.2178 8.66021 25.1388C8.50168 25.0124 8.34977 24.8779 8.20508 24.7358L8.24609 24.678H14.7963L14.8411 24.7273Z" fill="#F46825"/>
<path d="M13.0312 23.3737C13.2211 23.1971 13.4066 23.0155 13.604 22.8478C13.6654 22.8089 13.7376 22.7906 13.8102 22.7955C14.4827 22.7916 15.1553 22.7969 15.8277 22.7901C15.9973 22.7884 16.0579 22.8482 16.0624 23.0169C16.0739 23.4443 16.0803 23.4442 15.6631 23.4442C14.8024 23.4443 13.9418 23.4443 13.0811 23.4442L13.0312 23.3737Z" fill="#F46825"/>
<path d="M9.97307 23.4436C9.04825 23.4436 8.12342 23.4421 7.19861 23.4453C7.06477 23.4457 6.99838 23.399 7.0043 23.2614C7.00914 23.188 7.00868 23.1144 7.00291 23.0411C6.98331 22.8494 7.06217 22.786 7.25671 22.7894C7.87888 22.7999 8.50152 22.8012 9.1236 22.7883C9.21639 22.7819 9.30939 22.7972 9.39525 22.8329C9.48111 22.8687 9.55746 22.9239 9.61826 22.9943C9.75187 23.1235 9.8935 23.2442 10.0423 23.3555L9.97307 23.4436Z" fill="#F46825"/>
<path d="M25.5857 23.7274C25.8801 23.7276 26.1746 23.733 26.4688 23.7254C26.62 23.7215 26.6803 23.7819 26.6646 23.9277C26.6635 23.944 26.6635 23.9603 26.6644 23.9766C26.6691 24.3763 26.6691 24.3764 26.2765 24.3765C25.745 24.3766 25.2133 24.368 24.6821 24.3808C24.4823 24.3856 24.4132 24.3156 24.4357 24.1269C24.4429 24.062 24.4429 23.9964 24.4359 23.9315C24.4191 23.7659 24.4997 23.7209 24.6536 23.7248C24.9641 23.7329 25.275 23.7272 25.5857 23.7274Z" fill="#F46825"/>
<path d="M25.5262 23.4438C25.2398 23.4439 24.9532 23.4373 24.6671 23.4465C24.5053 23.4517 24.4282 23.4107 24.4318 23.2302C24.4419 22.7126 24.4006 22.7978 24.8605 22.794C25.3842 22.7898 25.908 22.8002 26.4315 22.7902C26.6179 22.7866 26.6863 22.8533 26.6643 23.0319C26.6568 23.0887 26.6569 23.1462 26.6645 23.2029C26.6942 23.4064 26.5958 23.4548 26.4097 23.447C26.1157 23.4347 25.8207 23.4438 25.5262 23.4438Z" fill="#F46825"/>
<path d="M18.6731 24.3766C18.3862 24.3767 18.099 24.369 17.8126 24.3796C17.6409 24.386 17.5698 24.323 17.5837 24.1536C17.5891 24.072 17.5894 23.9901 17.5847 23.9085C17.5789 23.7697 17.6475 23.7248 17.7803 23.7256C18.3868 23.7294 18.9933 23.7295 19.5998 23.7258C19.7364 23.725 19.7968 23.7779 19.7908 23.9132C19.7858 23.9948 19.786 24.0767 19.7916 24.1583C19.8068 24.3333 19.7242 24.3847 19.5581 24.3792C19.2634 24.3695 18.9681 24.3765 18.6731 24.3766Z" fill="#F46825"/>
<path d="M18.6969 22.7929C18.9909 22.7932 19.2851 22.7995 19.5788 22.7908C19.7413 22.7859 19.8018 22.8533 19.791 23.0073C19.7852 23.0804 19.7852 23.1539 19.7909 23.227C19.806 23.4018 19.7217 23.4486 19.5573 23.4466C18.9776 23.4395 18.3976 23.4379 17.818 23.4477C17.6319 23.4508 17.5796 23.3808 17.5786 23.2054C17.5762 22.7927 17.5692 22.7927 17.9865 22.7926C18.2233 22.7925 18.4601 22.7926 18.6969 22.7929Z" fill="#F46825"/>
<path d="M18.6887 18.7392C18.3936 18.739 18.0983 18.7339 17.8033 18.7411C17.65 18.7448 17.5842 18.695 17.5782 18.5326C17.5623 18.1111 17.5744 18.0908 18.0057 18.0898C18.514 18.0887 19.0225 18.0974 19.5305 18.0857C19.738 18.0809 19.8003 18.1571 19.7966 18.3564C19.7897 18.7388 19.7989 18.7391 19.4266 18.7394C19.1806 18.7396 18.9347 18.7395 18.6887 18.7392Z" fill="#F46825"/>
<path d="M24.1289 18.1252C24.2188 18.1185 24.2889 18.1087 24.359 18.1086C25.0304 18.1081 25.7021 18.1219 26.3729 18.1038C26.6517 18.0963 26.668 18.2267 26.6701 18.4451C26.6722 18.6595 26.6264 18.7497 26.3868 18.7426C25.8142 18.7259 25.2407 18.7363 24.6676 18.7401C24.5312 18.741 24.4566 18.7231 24.4183 18.5549C24.3855 18.4111 24.2462 18.2913 24.1289 18.1252Z" fill="#F46825"/>
<path d="M24.2674 19.6801C24.3174 19.5086 24.3761 19.3398 24.4434 19.1744C24.4625 19.1436 24.4885 19.1177 24.5192 19.0985C24.55 19.0793 24.5847 19.0674 24.6208 19.0637C25.2431 19.0563 25.8657 19.0555 26.4878 19.0684C26.5475 19.0696 26.6334 19.1663 26.6563 19.2354C26.6831 19.3302 26.6832 19.4305 26.6566 19.5253C26.6409 19.5847 26.5645 19.6717 26.5148 19.6721C25.7625 19.6771 25.01 19.6699 24.2576 19.6647C24.2533 19.6646 24.2491 19.6527 24.2674 19.6801Z" fill="#F46825"/>
<path d="M24.2773 21.8598C24.996 21.8598 25.7327 21.8625 26.4693 21.8577C26.6212 21.8567 26.6769 21.9169 26.6649 22.0621C26.6582 22.1432 26.6863 22.2349 26.6571 22.3044C26.627 22.3759 26.5473 22.4769 26.4876 22.4782C25.8653 22.491 25.2426 22.4897 24.6202 22.4813C24.5838 22.4764 24.5491 22.4631 24.5187 22.4425C24.4882 22.4219 24.463 22.3946 24.4448 22.3627C24.3803 22.1981 24.3245 22.0302 24.2773 21.8598Z" fill="#F46825"/>
<path d="M18.677 22.507C18.4068 22.507 18.1357 22.493 17.8669 22.5113C17.6317 22.5273 17.554 22.4318 17.5814 22.2138C17.5867 22.1568 17.5873 22.0996 17.5831 22.0425C17.5771 21.906 17.6436 21.8561 17.777 21.8568C18.3827 21.8601 18.9885 21.8612 19.5942 21.8565C19.7459 21.8553 19.7889 21.9217 19.7951 22.0625C19.8133 22.4759 19.807 22.4874 19.3885 22.4882C19.1514 22.4886 18.9142 22.4887 18.677 22.4883L18.677 22.507Z" fill="#F46825"/>
<path d="M14.9659 21.858C15.2438 21.858 15.522 21.8662 15.7995 21.8551C15.9843 21.8477 16.0692 21.9029 16.0637 22.1014C16.0514 22.5496 16.1288 22.5079 15.6606 22.506C15.1377 22.504 14.6146 22.4836 14.0919 22.4919C13.8111 22.4963 13.856 22.3178 13.8511 22.1489C13.8463 21.9834 13.8389 21.8401 14.0834 21.8548C14.3766 21.8725 14.6716 21.859 14.9659 21.859V21.858Z" fill="#F46825"/>
<path d="M14.9806 20.9229C15.2748 20.9229 15.5691 20.9285 15.8631 20.9206C16.0201 20.9164 16.093 20.9723 16.0803 21.1325C16.0757 21.2057 16.0755 21.2791 16.0797 21.3524C16.0851 21.4824 16.0335 21.5486 15.8946 21.5479C15.2735 21.545 14.6524 21.5445 14.0313 21.5466C13.89 21.547 13.8563 21.4744 13.8504 21.3471C13.8309 20.9243 13.8269 20.9243 14.245 20.9239C14.4902 20.9237 14.7354 20.9237 14.9806 20.9239V20.9229Z" fill="#F46825"/>
<path d="M25.5611 24.6608C25.8555 24.6608 26.1502 24.6691 26.4442 24.6577C26.6199 24.6509 26.6827 24.7187 26.6649 24.8861C26.6571 24.9587 26.6861 25.0438 26.6571 25.1032C26.6229 25.1736 26.5452 25.2718 26.4846 25.273C25.8633 25.2854 25.2417 25.2797 24.6203 25.2814C24.4833 25.2818 24.4289 25.2172 24.4366 25.0849C24.4416 25.0035 24.4415 24.9218 24.4364 24.8404C24.427 24.699 24.4964 24.6568 24.6289 24.6591C24.9396 24.6646 25.2504 24.6609 25.5611 24.6608Z" fill="#F46825"/>
<path d="M14.973 20.6086C14.6789 20.6086 14.3845 20.6009 14.0908 20.6114C13.9103 20.6179 13.8482 20.5536 13.8496 20.372C13.8527 19.9889 13.8439 19.9884 14.2372 19.9879C14.7682 19.9871 15.2997 19.9998 15.8301 19.9814C16.1064 19.9718 16.078 20.1336 16.0826 20.3104C16.0874 20.4926 16.0788 20.63 15.8305 20.6143C15.5458 20.5964 15.2589 20.6102 14.973 20.6102V20.6086Z" fill="#F46825"/>
<path d="M14.9474 19.6812C14.6532 19.6812 14.359 19.6766 14.065 19.6831C13.9069 19.6866 13.8529 19.6238 13.8498 19.4666C13.8418 19.0603 13.8353 19.0602 14.2367 19.0598C14.776 19.0591 15.3155 19.0682 15.8545 19.0544C16.1034 19.048 16.0839 19.1977 16.0794 19.3567C16.075 19.514 16.1253 19.6976 15.8543 19.6863C15.5525 19.6737 15.2497 19.6834 14.9474 19.6834V19.6812Z" fill="#F46825"/>
<path d="M8.09351 22.4869C7.80772 22.4868 7.52167 22.479 7.23624 22.489C6.95202 22.499 7.01115 22.3006 7.00384 22.1376C6.99681 21.9807 6.99777 21.8511 7.2251 21.8556C7.81277 21.8671 8.40094 21.8661 8.98865 21.8556C9.19366 21.8519 9.22395 21.958 9.20463 22.1144C9.18625 22.2633 9.29537 22.4874 8.99984 22.487C8.69773 22.4866 8.39562 22.4865 8.09351 22.4869Z" fill="#F46825"/>
<path d="M14.9376 16.8716C14.6424 16.8716 14.347 16.8663 14.052 16.8738C13.9006 16.8776 13.8559 16.8156 13.8515 16.6708C13.8387 16.2468 13.8333 16.2466 14.2546 16.2463C14.7713 16.2459 15.2882 16.2554 15.8045 16.2424C16.0971 16.235 16.0507 16.4253 16.0618 16.6036C16.0739 16.7986 16.0117 16.888 15.7985 16.8765C15.5124 16.861 15.2247 16.8726 14.9376 16.8726V16.8716Z" fill="#F46825"/>
<path d="M8.0914 20.6077C7.79667 20.6077 7.50181 20.6022 7.20725 20.6093C6.94394 20.6156 7.0114 20.4258 7.00576 20.2839C6.99999 20.1389 6.97365 19.9831 7.21178 19.9864C7.80931 19.9946 8.40705 19.9917 9.00467 19.9873C9.15263 19.9863 9.20202 20.0452 9.20764 20.1904C9.22383 20.6082 9.22931 20.6081 8.80367 20.6085C8.56625 20.6088 8.32882 20.6088 8.0914 20.6086V20.6077Z" fill="#F46825"/>
<path d="M8.08315 16.8715C7.79655 16.8714 7.50978 16.8655 7.22341 16.8738C7.06667 16.8783 7.00727 16.8234 7.00294 16.6632C6.99191 16.2541 6.99139 16.247 7.39254 16.2466C7.90842 16.246 8.4248 16.2602 8.93999 16.2414C9.22749 16.231 9.19965 16.3988 9.20792 16.5863C9.21668 16.7846 9.17724 16.8919 8.94265 16.8761C8.65733 16.857 8.36975 16.8716 8.08315 16.8715Z" fill="#F46825"/>
<path d="M18.6833 19.0581C18.9778 19.058 19.2727 19.068 19.5666 19.0547C19.7894 19.0447 19.8054 19.1745 19.7918 19.3352C19.7794 19.4826 19.8615 19.6859 19.5851 19.6845C18.988 19.6816 18.3908 19.6802 17.7937 19.6854C17.5193 19.6877 17.5903 19.4916 17.5811 19.3412C17.5716 19.1861 17.5715 19.0454 17.8 19.0551C18.0939 19.0676 18.3888 19.0581 18.6833 19.0581Z" fill="#F46825"/>
<path d="M8.08582 19.681C7.79922 19.681 7.51225 19.6721 7.22612 19.6837C6.97695 19.6938 7.0001 19.5301 7.00453 19.3736C7.0087 19.2263 6.95674 19.0531 7.2166 19.0575C7.80601 19.0674 8.39574 19.0636 8.98528 19.0582C9.13823 19.0568 9.20371 19.1021 9.2079 19.266C9.21849 19.6811 9.2257 19.6811 8.79824 19.6818C8.56077 19.6821 8.32329 19.6822 8.08582 19.6818V19.681Z" fill="#F46825"/>
<path d="M14.9469 18.7368C14.6445 18.7368 14.342 18.7332 14.0397 18.7384C13.9029 18.7408 13.8439 18.6864 13.8524 18.5505C13.8571 18.4691 13.8572 18.3875 13.8527 18.3061C13.8458 18.1735 13.9034 18.1102 14.0386 18.1104C14.6435 18.1115 15.2483 18.1081 15.8532 18.1112C16.1409 18.1126 16.0419 18.3371 16.0593 18.4892C16.0783 18.6552 16.0233 18.749 15.8296 18.7414C15.5358 18.7297 15.2412 18.7383 14.9469 18.7383L14.9469 18.7368Z" fill="#F46825"/>
<path d="M8.10177 18.7369C7.8149 18.7371 7.52735 18.725 7.24139 18.741C7.02625 18.7531 6.98874 18.6442 7.00546 18.4727C7.0206 18.3175 6.93327 18.1065 7.22573 18.1092C7.81581 18.1146 8.40597 18.1123 8.99608 18.1099C9.13639 18.1094 9.21407 18.159 9.2052 18.3101C9.20059 18.3917 9.20063 18.4736 9.20531 18.5552C9.21307 18.6951 9.14427 18.7405 9.01152 18.7383C8.70834 18.7333 8.40503 18.7367 8.10177 18.7369Z" fill="#F46825"/>
<path d="M14.9581 17.8071C14.6629 17.8071 14.3677 17.8019 14.0728 17.8092C13.9197 17.813 13.8377 17.7675 13.8535 17.6014C13.8594 17.528 13.8596 17.4543 13.8541 17.3809C13.8459 17.2474 13.9017 17.1865 14.0393 17.187C14.6459 17.1892 15.2526 17.1868 15.8592 17.1871C16.1353 17.1872 16.046 17.3981 16.0598 17.5439C16.0744 17.6973 16.05 17.8182 15.8433 17.8107C15.5486 17.8001 15.2532 17.808 14.9581 17.808V17.8071Z" fill="#F46825"/>
<path d="M8.11036 17.8069C7.82393 17.8069 7.53726 17.7998 7.25116 17.8096C7.07825 17.8155 7.00028 17.7671 7.00008 17.5779C6.99967 17.1875 6.99042 17.1872 7.38764 17.187C7.90321 17.1867 8.41935 17.2016 8.93414 17.1815C9.21495 17.1705 9.20372 17.3234 9.20767 17.518C9.2116 17.7117 9.1829 17.8276 8.9448 17.8113C8.66786 17.7923 8.38861 17.8069 8.11036 17.8069Z" fill="#F46825"/>
<path d="M18.6802 24.6608C18.9751 24.6609 19.2703 24.669 19.5647 24.6578C19.7405 24.6512 19.7898 24.7221 19.7914 24.8873C19.7954 25.2814 19.8019 25.2818 19.405 25.2823C18.8972 25.283 18.3888 25.2692 17.8817 25.2887C17.6078 25.2993 17.5803 25.1701 17.5782 24.9483C17.5761 24.7286 17.6351 24.6384 17.8697 24.6559C18.1384 24.6761 18.4099 24.6606 18.6802 24.6608Z" fill="#F46825"/>
<path d="M8.10592 20.9247C8.40084 20.9246 8.69622 20.9347 8.99054 20.9214C9.22628 20.9108 9.21038 21.0601 9.20329 21.2103C9.19615 21.3615 9.26533 21.5531 8.988 21.5491C8.39829 21.5404 7.80847 21.5401 7.21855 21.5481C6.94266 21.5515 7.01146 21.3588 7.00288 21.2075C6.9941 21.0529 6.99086 20.9112 7.22131 20.9216C7.51563 20.9348 7.811 20.9248 8.10592 20.9247Z" fill="#F46825"/>
</g>
<defs>
<clipPath id="clip0_4428_94149">
<rect y="0.400146" width="32" height="32" rx="16" fill="white"/>
</clipPath>
</defs>
</svg>
