<svg width="32" height="33" viewBox="0 0 32 33" fill="none" xmlns="http://www.w3.org/2000/svg">
<g clip-path="url(#clip0_4428_94227)">
<path opacity="0.4" d="M25.6 0.800049H6.4C2.86538 0.800049 0 3.66543 0 7.20005V26.4C0 29.9347 2.86538 32.8 6.4 32.8H25.6C29.1346 32.8 32 29.9347 32 26.4V7.20005C32 3.66543 29.1346 0.800049 25.6 0.800049Z" fill="#06070A"/>
<path d="M15.8487 14.373C15.6626 14.5425 15.4826 14.7195 15.287 14.8772C15.213 14.9252 15.1259 14.9487 15.0379 14.9447C12.4482 14.948 9.85848 14.95 7.26878 14.9506C7.08216 14.951 7.01518 14.8879 7.03516 14.709C7.04417 14.6282 7.01667 14.5384 7.04296 14.4662C7.07946 14.3995 7.13181 14.3428 7.19539 14.3011C7.21489 14.2849 7.25885 14.2978 7.29163 14.2978C10.078 14.2977 12.8644 14.2976 15.6508 14.2976C15.6991 14.2976 15.7475 14.2976 15.7958 14.2976L15.8487 14.373Z" fill="white"/>
<path d="M15.9019 12.1191C15.8157 12.1191 15.7295 12.1191 15.6432 12.1191C12.8893 12.1186 10.1353 12.1181 7.38134 12.1176C7.07417 12.1175 6.90907 11.8468 7.05209 11.5715C7.06546 11.5527 7.08245 11.5368 7.10205 11.5247C7.12166 11.5125 7.14348 11.5044 7.16626 11.5008C7.23953 11.4927 7.31336 11.4906 7.38697 11.4948C9.89505 11.494 12.4032 11.4991 14.9112 11.4859C15.2321 11.4842 15.4806 11.55 15.68 11.8057C15.7481 11.893 15.8573 11.9486 15.9477 12.0187L15.9019 12.1191Z" fill="white"/>
<path d="M15.97 10.5899C15.7603 10.7881 15.5956 10.9579 15.4142 11.1076C15.341 11.157 15.2539 11.1817 15.1657 11.1784C12.5357 11.1813 9.90568 11.1781 7.2757 11.1833C7.07008 11.1837 7.00964 11.1017 7.03772 10.9208C7.06034 10.7751 6.93886 10.5565 7.24601 10.5569C10.1054 10.5603 12.9648 10.561 15.8242 10.5591C15.8734 10.5663 15.9221 10.5766 15.97 10.5899Z" fill="white"/>
<path d="M15.8514 8.36602C15.7265 8.3718 15.6477 8.37863 15.569 8.37864C12.8392 8.37895 10.1095 8.37804 7.3797 8.37593C7.27137 8.37579 7.08181 8.36161 7.06961 8.31649C7.02867 8.165 7.04422 7.99604 7.05548 7.83497C7.05744 7.80689 7.14099 7.77178 7.19099 7.76278C7.26427 7.7545 7.33813 7.75267 7.41172 7.75731C9.87915 7.75688 12.3468 7.77375 14.8138 7.74229C15.3266 7.73575 15.542 8.0395 15.8514 8.36602Z" fill="white"/>
<path d="M17.8752 14.2976C17.9556 14.2976 18.0361 14.2976 18.1166 14.2976C20.5425 14.2978 22.9685 14.2989 25.3944 14.3009C25.4927 14.3011 25.6698 14.3284 25.6757 14.3648C25.6978 14.541 25.6976 14.7193 25.6754 14.8955C25.6733 14.9178 25.5629 14.9449 25.5026 14.945C23.1996 14.9476 20.8966 14.9472 18.5936 14.9438C18.5138 14.9417 18.4369 14.9128 18.3754 14.8619C18.1927 14.6999 18.0226 14.5239 17.8477 14.3532L17.8752 14.2976Z" fill="white"/>
<path d="M14.9213 15.231C14.6011 15.5964 14.3519 15.8788 13.8245 15.8696C11.6778 15.8322 9.53021 15.8542 7.38294 15.8538C7.07534 15.8538 6.90865 15.5807 7.05206 15.306C7.07956 15.2685 7.12074 15.2433 7.16668 15.2358C7.23177 15.2283 7.29741 15.2268 7.36278 15.2313C9.7805 15.2312 12.1982 15.2311 14.6159 15.231C14.6975 15.231 14.779 15.231 14.9213 15.231Z" fill="white"/>
<path d="M14.9236 7.4433C14.7904 7.4433 14.7171 7.4433 14.6439 7.4433C12.2086 7.44313 9.77323 7.44192 7.33789 7.43965C7.24162 7.43949 7.07092 7.40787 7.06253 7.36567C7.0346 7.20613 7.03659 7.04278 7.0684 6.88397C7.07497 6.84812 7.22367 6.81965 7.30713 6.81918C8.20908 6.8141 9.11107 6.8149 10.0131 6.81489C11.2758 6.81487 12.5397 6.8469 13.8008 6.801C14.332 6.78167 14.6018 7.05881 14.9236 7.4433Z" fill="white"/>
<path d="M18.8095 15.231C18.8813 15.231 18.9532 15.231 19.025 15.231C21.1552 15.2311 23.2854 15.2343 25.4155 15.2268C25.6362 15.226 25.7229 15.2785 25.7125 15.5113C25.7032 15.7198 25.7057 15.8615 25.42 15.8599C23.4783 15.8487 21.5365 15.8569 19.5948 15.847C19.4648 15.8464 19.3203 15.7697 19.2089 15.6911C19.0553 15.5703 18.9092 15.4401 18.7715 15.3012L18.8095 15.231Z" fill="white"/>
<path d="M20.6424 14.0141C19.6191 14.0141 18.6729 14.0167 17.7268 14.0074C17.6898 13.9975 17.6559 13.9784 17.6282 13.9519C17.6005 13.9254 17.5799 13.8924 17.5683 13.8559C17.501 13.3888 17.528 13.3635 18.0037 13.3635C18.5596 13.3635 19.1157 13.3739 19.6712 13.3586C19.8956 13.3524 20.0608 13.4131 20.2043 13.5839C20.3186 13.7201 20.4581 13.8353 20.6424 14.0141Z" fill="white"/>
<path d="M13.5938 14.0147C13.7135 13.804 13.8162 13.6087 13.9357 13.4243C13.9617 13.3841 14.0477 13.3661 14.1062 13.3657C14.7109 13.3618 15.3156 13.3666 15.9202 13.3616C16.072 13.3603 16.1276 13.4253 16.1187 13.5667C16.1161 13.6073 16.1188 13.6482 16.1188 13.6889C16.1185 14.014 16.1184 14.0145 15.7983 14.0146C15.0634 14.0149 14.3285 14.0149 13.5938 14.0147Z" fill="white"/>
<path d="M8.1556 14.0142C7.84447 14.0142 7.53326 14.0103 7.22222 14.016C7.08435 14.0186 7.03373 13.9648 7.03519 13.8282C7.04114 13.2699 6.99273 13.3703 7.48474 13.3649C8.00052 13.3593 8.51653 13.3695 9.03217 13.3593C9.21664 13.3556 9.28817 13.4199 9.26827 13.5999C9.26111 13.6731 9.26086 13.7468 9.26753 13.8201C9.27945 13.9705 9.21064 14.0208 9.06441 14.0174C8.76162 14.0102 8.45856 14.0152 8.1556 14.0152V14.0142Z" fill="white"/>
<path d="M13.7129 12.428C13.9942 12.428 14.2928 12.4279 14.5913 12.428C15.0243 12.4281 15.4573 12.4339 15.8901 12.4259C16.0591 12.4228 16.1192 12.4827 16.122 12.6517C16.1282 13.0432 16.1355 13.0511 15.7471 13.0604C15.2084 13.0732 14.6692 13.0698 14.1303 13.0793C13.9791 13.082 13.9227 13.0307 13.8985 12.8732C13.8757 12.725 13.7826 12.5876 13.7129 12.428Z" fill="white"/>
<path d="M8.1382 13.0579C7.84435 13.0579 7.55038 13.0527 7.25671 13.0598C7.08518 13.064 7.01806 12.9922 7.03477 12.8255C7.04205 12.7529 7.01406 12.6689 7.04196 12.6084C7.07411 12.5386 7.14929 12.4394 7.20753 12.4382C7.83625 12.4254 8.46513 12.4249 9.09416 12.4367C9.15246 12.4377 9.21809 12.5407 9.26203 12.6082C9.28448 12.6427 9.26655 12.7035 9.26656 12.7523C9.2666 13.0769 9.26658 13.0772 8.94698 13.0777C8.67742 13.0781 8.40785 13.0781 8.13829 13.0778L8.1382 13.0579Z" fill="white"/>
<path d="M8.15616 9.30801C7.8539 9.30801 7.5515 9.30238 7.24945 9.31033C7.09311 9.31444 7.0188 9.26288 7.03551 9.10004C7.04179 9.02693 7.04197 8.95343 7.03605 8.88029C7.02755 8.74985 7.07815 8.68159 7.21622 8.68043C7.8369 8.6752 8.45756 8.66822 9.07821 8.65948C9.21167 8.65752 9.27636 8.70912 9.26751 8.84698C9.26108 8.92826 9.26137 9.00992 9.26837 9.09114C9.2863 9.26694 9.20337 9.31734 9.03835 9.31228C8.74454 9.30326 8.45025 9.30975 8.15616 9.30975L8.15616 9.30801Z" fill="white"/>
<path d="M13.5898 8.67888C13.8186 8.67888 14.0039 8.67881 14.1891 8.67889C14.7379 8.67914 15.287 8.69069 15.8354 8.67488C16.0987 8.66728 16.1236 8.79764 16.1228 9.00649C16.122 9.20751 16.0978 9.32352 15.8452 9.31504C15.2888 9.29635 14.7314 9.30635 14.1744 9.31167C14.0192 9.31315 13.9273 9.29432 13.8865 9.10528C13.8571 8.96904 13.7188 8.85616 13.5898 8.67888Z" fill="white"/>
<path d="M13.7168 10.2548C13.7902 10.0692 13.8416 9.91322 13.9143 9.76791C13.9434 9.70988 14.019 9.63677 14.0744 9.63599C14.7031 9.62704 15.3319 9.62755 15.9608 9.6375C15.9953 9.64698 16.027 9.66487 16.053 9.68957C16.0789 9.71427 16.0984 9.74502 16.1096 9.77906C16.1886 10.1799 16.1235 10.2542 15.7215 10.2545C15.1254 10.255 14.5292 10.2551 13.933 10.2548C13.8538 10.2548 13.7746 10.2548 13.7168 10.2548Z" fill="white"/>
<path d="M18.7051 12.4295C18.9747 12.4297 19.2455 12.4448 19.5136 12.4251C19.7497 12.4078 19.8242 12.502 19.7933 12.7192C19.7879 12.7679 19.7877 12.817 19.7927 12.8657C19.8028 13.0018 19.7376 13.0581 19.6049 13.0578C18.984 13.0564 18.363 13.0563 17.7421 13.0575C17.6046 13.0577 17.5535 12.9874 17.5596 12.8579C17.5638 12.7765 17.5637 12.695 17.5593 12.6136C17.5512 12.4763 17.6147 12.4258 17.7492 12.4279C18.0678 12.4327 18.3865 12.4294 18.7051 12.4295Z" fill="white"/>
<path d="M18.6736 12.1183C18.3784 12.1183 18.0832 12.1129 17.7882 12.1205C17.6216 12.1247 17.5573 12.0656 17.5556 11.8934C17.5516 11.4938 17.5438 11.4937 17.9535 11.4938C18.4864 11.494 19.0196 11.5052 19.552 11.49C19.7857 11.4834 19.8054 11.5995 19.793 11.7764C19.7817 11.9386 19.8512 12.1365 19.5588 12.1208C19.2645 12.1049 18.9687 12.1173 18.6736 12.1173L18.6736 12.1183Z" fill="white"/>
<path d="M18.6639 7.44236C18.3689 7.44268 18.0738 7.43717 17.7791 7.44495C17.6255 7.449 17.5447 7.40364 17.56 7.2377C17.5675 7.15666 17.5386 7.06427 17.5687 6.99554C17.5998 6.9246 17.6815 6.82668 17.7428 6.82549C18.3652 6.81336 18.9878 6.81372 19.6105 6.82656C19.6715 6.82781 19.756 6.92519 19.7831 6.99572C19.8133 7.07409 19.7852 7.17318 19.7916 7.26261C19.8017 7.40653 19.7285 7.44547 19.5979 7.44352C19.2867 7.43888 18.9753 7.44203 18.6639 7.44236Z" fill="white"/>
<path d="M18.6702 11.18C18.367 11.18 18.0638 11.1761 17.7607 11.1817C17.6141 11.1844 17.5308 11.1241 17.5635 10.9805C17.5962 10.8366 17.4324 10.5784 17.711 10.5677C18.3574 10.543 19.0055 10.5577 19.6527 10.5686C19.6996 10.5694 19.7683 10.6618 19.7852 10.7231C19.8082 10.8067 19.7863 10.9016 19.7925 10.9911C19.8019 11.1293 19.7393 11.1814 19.6044 11.1796C19.2931 11.1755 18.9816 11.1783 18.6702 11.1783V11.18Z" fill="white"/>
<path d="M18.6925 10.2536C18.3893 10.2536 18.0857 10.2454 17.7828 10.256C17.4863 10.2664 17.5736 10.055 17.5601 9.89993C17.5459 9.73533 17.5667 9.62028 17.7884 9.62515C18.3865 9.63829 18.985 9.63422 19.5833 9.62853C19.7445 9.627 19.7945 9.68627 19.7957 9.84435C19.7989 10.2514 19.8058 10.2516 19.4056 10.2525C19.1679 10.253 18.9302 10.2526 18.6925 10.2526V10.2536Z" fill="white"/>
<path d="M8.1479 9.62835C8.44295 9.62835 8.73833 9.63688 9.03291 9.62526C9.21885 9.61793 9.27218 9.69047 9.27068 9.86847C9.26742 10.2549 9.2756 10.2555 8.88051 10.2551C8.3478 10.2547 7.81467 10.2406 7.28253 10.2576C6.97678 10.2673 7.04875 10.071 7.03406 9.90029C7.01749 9.70785 7.07074 9.61406 7.28759 9.62626C7.57353 9.64235 7.86106 9.63022 8.1479 9.63022V9.62835Z" fill="white"/>
<path d="M18.6907 9.30848C18.3804 9.30848 18.07 9.30376 17.7598 9.31053C17.6115 9.31377 17.5488 9.25633 17.5598 9.10972C17.565 9.03657 17.5651 8.96316 17.5602 8.88999C17.5511 8.74772 17.6094 8.67928 17.7576 8.67994C18.37 8.68263 18.9825 8.68283 19.5949 8.68053C19.7408 8.67997 19.8056 8.74102 19.7932 8.88727C19.787 8.9522 19.7871 9.01758 19.7936 9.08249C19.8123 9.25058 19.7463 9.31675 19.5725 9.31053C19.2789 9.30002 18.9847 9.30764 18.6907 9.30764V9.30848Z" fill="white"/>
<path d="M18.6624 8.37858C18.3676 8.37858 18.0727 8.37323 17.7781 8.38076C17.6232 8.38472 17.5453 8.33477 17.5604 8.17109C17.5662 8.09777 17.5665 8.02413 17.5612 7.95077C17.5534 7.81742 17.6097 7.75673 17.7469 7.75733C18.3693 7.76006 18.9917 7.75412 19.6138 7.7666C19.6742 7.76781 19.7553 7.86435 19.7853 7.93431C19.815 8.00336 19.7864 8.09534 19.7933 8.17641C19.8059 8.32358 19.7456 8.38248 19.5959 8.37929C19.2848 8.37268 18.9736 8.3773 18.6624 8.3773V8.37858Z" fill="white"/>
<path d="M26.4842 20.3875C26.1558 20.7299 25.9384 21.0301 25.4272 21.0238C22.9352 20.9932 20.4427 21.0105 17.9503 21.0107C17.6095 21.0107 17.4622 20.7956 17.5958 20.4835C17.6244 20.4379 17.6699 20.4054 17.7224 20.3932C17.787 20.3826 17.8528 20.3801 17.918 20.3858C20.6646 20.3862 23.4111 20.3868 26.1576 20.3875C26.2443 20.3876 26.331 20.3875 26.4842 20.3875Z" fill="white"/>
<path d="M26.4618 21.9309C26.3473 21.9379 26.2759 21.9461 26.2046 21.9461C23.4358 21.9473 20.667 21.9469 17.8982 21.9451C17.8003 21.945 17.628 21.9171 17.6179 21.873C17.592 21.7139 17.5887 21.552 17.6083 21.3921C17.6099 21.3674 17.682 21.3339 17.7247 21.328C17.8062 21.3206 17.8882 21.3186 17.97 21.3222C20.4275 21.3223 22.8852 21.3415 25.3423 21.3078C25.8657 21.3006 26.1562 21.5345 26.4618 21.9309Z" fill="white"/>
<path d="M15.7856 24.2048C15.5993 24.3744 15.4191 24.5516 15.223 24.7093C15.1484 24.7563 15.061 24.779 14.9729 24.7742C12.6793 24.7775 10.3857 24.7764 8.0921 24.7709C7.96668 24.7601 7.84737 24.712 7.74964 24.6326C7.58143 24.5059 7.4349 24.3506 7.2793 24.2072L7.31176 24.1509H15.7326C15.7503 24.1688 15.7679 24.1868 15.7856 24.2048Z" fill="white"/>
<path d="M26.3717 18.2072C26.2275 18.2072 26.1461 18.2072 26.0647 18.2072C23.3594 18.2078 20.6541 18.2084 17.9488 18.2089C17.5938 18.2089 17.4837 18.0578 17.5935 17.7063C17.6062 17.6793 17.6245 17.6553 17.6473 17.6359C17.6701 17.6166 17.6967 17.6024 17.7254 17.5942C17.8063 17.5812 17.8884 17.5782 17.97 17.5852C20.413 17.5853 22.8562 17.6035 25.2988 17.5717C25.8148 17.5649 26.0583 17.8433 26.3717 18.2072Z" fill="white"/>
<path d="M25.4081 17.2731C24.5157 17.2731 23.6233 17.2731 22.7309 17.2731C21.1173 17.273 19.5037 17.2719 17.8902 17.2698C17.7937 17.2695 17.6228 17.2383 17.6144 17.196C17.5846 17.0373 17.5871 16.8743 17.6216 16.7165C17.6303 16.6761 17.791 16.6486 17.882 16.6482C19.0942 16.6434 20.3065 16.6442 21.5187 16.6441C22.5016 16.6441 23.4846 16.6547 24.4672 16.6389C24.746 16.6344 24.9533 16.7072 25.1306 16.919C25.2224 17.0287 25.3506 17.1081 25.4624 17.2012C25.4443 17.2252 25.4262 17.2491 25.4081 17.2731Z" fill="white"/>
<path d="M14.8411 25.1272C14.6631 25.2931 14.4918 25.4673 14.3031 25.6201C14.2267 25.666 14.138 25.687 14.0491 25.6804C12.3682 25.6838 10.6872 25.6858 9.0063 25.6771C8.87989 25.6658 8.75957 25.6177 8.66021 25.5387C8.50168 25.4123 8.34977 25.2778 8.20508 25.1357L8.24609 25.0779H14.7963L14.8411 25.1272Z" fill="white"/>
<path d="M13.0312 23.7736C13.2211 23.597 13.4066 23.4154 13.604 23.2477C13.6654 23.2088 13.7376 23.1905 13.8102 23.1954C14.4827 23.1915 15.1553 23.1968 15.8277 23.19C15.9973 23.1883 16.0579 23.2481 16.0624 23.4168C16.0739 23.8442 16.0803 23.8441 15.6631 23.8441C14.8024 23.8442 13.9418 23.8442 13.0811 23.8441L13.0312 23.7736Z" fill="white"/>
<path d="M9.97307 23.8435C9.04825 23.8435 8.12342 23.842 7.19861 23.8452C7.06477 23.8456 6.99838 23.7989 7.0043 23.6613C7.00914 23.5879 7.00868 23.5143 7.00291 23.441C6.98331 23.2493 7.06217 23.1859 7.25671 23.1893C7.87888 23.1999 8.50152 23.2011 9.1236 23.1882C9.21639 23.1818 9.30939 23.1971 9.39525 23.2328C9.48111 23.2686 9.55746 23.3238 9.61826 23.3942C9.75187 23.5234 9.8935 23.6441 10.0423 23.7554L9.97307 23.8435Z" fill="white"/>
<path d="M25.5857 24.1273C25.8801 24.1275 26.1746 24.1329 26.4688 24.1253C26.62 24.1214 26.6803 24.1818 26.6646 24.3276C26.6635 24.3439 26.6635 24.3602 26.6644 24.3765C26.6691 24.7762 26.6691 24.7763 26.2765 24.7764C25.745 24.7765 25.2133 24.7679 24.6821 24.7807C24.4823 24.7855 24.4132 24.7155 24.4357 24.5268C24.4429 24.4619 24.4429 24.3963 24.4359 24.3314C24.4191 24.1658 24.4997 24.1208 24.6536 24.1247C24.9641 24.1328 25.275 24.1271 25.5857 24.1273Z" fill="white"/>
<path d="M25.5262 23.8437C25.2398 23.8438 24.9532 23.8372 24.6671 23.8464C24.5053 23.8516 24.4282 23.8106 24.4318 23.6301C24.4419 23.1125 24.4006 23.1977 24.8605 23.194C25.3842 23.1897 25.908 23.2001 26.4315 23.1901C26.6179 23.1865 26.6863 23.2532 26.6643 23.4318C26.6568 23.4886 26.6569 23.5461 26.6645 23.6028C26.6942 23.8063 26.5958 23.8548 26.4097 23.8469C26.1157 23.8346 25.8207 23.8437 25.5262 23.8437Z" fill="white"/>
<path d="M18.6731 24.7765C18.3862 24.7766 18.099 24.7689 17.8126 24.7795C17.6409 24.7859 17.5698 24.7229 17.5837 24.5535C17.5891 24.4719 17.5894 24.39 17.5847 24.3084C17.5789 24.1696 17.6475 24.1247 17.7803 24.1255C18.3868 24.1293 18.9933 24.1294 19.5998 24.1257C19.7364 24.1249 19.7968 24.1778 19.7908 24.3131C19.7858 24.3947 19.786 24.4766 19.7916 24.5582C19.8068 24.7332 19.7242 24.7846 19.5581 24.7791C19.2634 24.7694 18.9681 24.7764 18.6731 24.7765Z" fill="white"/>
<path d="M18.6969 23.1928C18.9909 23.1932 19.2851 23.1994 19.5788 23.1907C19.7413 23.1858 19.8018 23.2532 19.791 23.4072C19.7852 23.4803 19.7852 23.5538 19.7909 23.6269C19.806 23.8017 19.7217 23.8485 19.5573 23.8465C18.9776 23.8394 18.3976 23.8378 17.818 23.8476C17.6319 23.8507 17.5796 23.7807 17.5786 23.6053C17.5762 23.1926 17.5692 23.1926 17.9865 23.1925C18.2233 23.1924 18.4601 23.1925 18.6969 23.1928Z" fill="white"/>
<path d="M18.6887 19.1391C18.3936 19.1389 18.0983 19.1338 17.8033 19.141C17.65 19.1447 17.5842 19.0949 17.5782 18.9325C17.5623 18.511 17.5744 18.4907 18.0057 18.4897C18.514 18.4886 19.0225 18.4973 19.5305 18.4856C19.738 18.4808 19.8003 18.557 19.7966 18.7563C19.7897 19.1387 19.7989 19.139 19.4266 19.1393C19.1806 19.1395 18.9347 19.1394 18.6887 19.1391Z" fill="white"/>
<path d="M24.1289 18.5251C24.2188 18.5184 24.2889 18.5086 24.359 18.5085C25.0304 18.508 25.7021 18.5218 26.3729 18.5037C26.6517 18.4962 26.668 18.6266 26.6701 18.845C26.6722 19.0594 26.6264 19.1496 26.3868 19.1426C25.8142 19.1258 25.2407 19.1362 24.6676 19.14C24.5312 19.1409 24.4566 19.123 24.4183 18.9548C24.3855 18.811 24.2462 18.6912 24.1289 18.5251Z" fill="white"/>
<path d="M24.2674 20.08C24.3174 19.9085 24.3761 19.7398 24.4434 19.5743C24.4625 19.5435 24.4885 19.5176 24.5192 19.4984C24.55 19.4792 24.5847 19.4673 24.6208 19.4636C25.2431 19.4562 25.8657 19.4554 26.4878 19.4683C26.5475 19.4695 26.6334 19.5662 26.6563 19.6353C26.6831 19.7301 26.6832 19.8304 26.6566 19.9252C26.6409 19.9846 26.5645 20.0716 26.5148 20.072C25.7625 20.077 25.01 20.0698 24.2576 20.0646C24.2533 20.0645 24.2491 20.0526 24.2674 20.08Z" fill="white"/>
<path d="M24.2773 22.2597C24.996 22.2597 25.7327 22.2624 26.4693 22.2576C26.6212 22.2566 26.6769 22.3168 26.6649 22.462C26.6582 22.5431 26.6863 22.6348 26.6571 22.7043C26.627 22.7758 26.5473 22.8768 26.4876 22.8781C25.8653 22.8909 25.2426 22.8896 24.6202 22.8812C24.5838 22.8763 24.5491 22.863 24.5187 22.8424C24.4882 22.8219 24.463 22.7945 24.4448 22.7626C24.3803 22.598 24.3245 22.4301 24.2773 22.2597Z" fill="white"/>
<path d="M18.677 22.9069C18.4068 22.9069 18.1357 22.8929 17.8669 22.9112C17.6317 22.9272 17.554 22.8318 17.5814 22.6137C17.5867 22.5567 17.5873 22.4995 17.5831 22.4424C17.5771 22.3059 17.6436 22.256 17.777 22.2567C18.3827 22.26 18.9885 22.2611 19.5942 22.2564C19.7459 22.2552 19.7889 22.3216 19.7951 22.4624C19.8133 22.8758 19.807 22.8873 19.3885 22.8881C19.1514 22.8885 18.9142 22.8886 18.677 22.8882L18.677 22.9069Z" fill="white"/>
<path d="M14.9659 22.2579C15.2438 22.2579 15.522 22.2662 15.7995 22.255C15.9843 22.2476 16.0692 22.3028 16.0637 22.5013C16.0514 22.9495 16.1288 22.9078 15.6606 22.9059C15.1377 22.9039 14.6146 22.8836 14.0919 22.8918C13.8111 22.8962 13.856 22.7177 13.8511 22.5488C13.8463 22.3833 13.8389 22.24 14.0834 22.2547C14.3766 22.2724 14.6716 22.2589 14.9659 22.2589V22.2579Z" fill="white"/>
<path d="M14.9806 21.3228C15.2748 21.3228 15.5691 21.3284 15.8631 21.3205C16.0201 21.3164 16.093 21.3722 16.0803 21.5324C16.0757 21.6056 16.0755 21.679 16.0797 21.7523C16.0851 21.8823 16.0335 21.9485 15.8946 21.9478C15.2735 21.9449 14.6524 21.9445 14.0313 21.9465C13.89 21.9469 13.8563 21.8743 13.8504 21.747C13.8309 21.3242 13.8269 21.3242 14.245 21.3238C14.4902 21.3236 14.7354 21.3236 14.9806 21.3238V21.3228Z" fill="white"/>
<path d="M25.5611 25.0607C25.8555 25.0607 26.1502 25.069 26.4442 25.0576C26.6199 25.0508 26.6827 25.1186 26.6649 25.286C26.6571 25.3586 26.6861 25.4437 26.6571 25.5031C26.6229 25.5735 26.5452 25.6717 26.4846 25.6729C25.8633 25.6853 25.2417 25.6796 24.6203 25.6813C24.4833 25.6817 24.4289 25.6171 24.4366 25.4848C24.4416 25.4034 24.4415 25.3217 24.4364 25.2403C24.427 25.0989 24.4964 25.0567 24.6289 25.059C24.9396 25.0645 25.2504 25.0608 25.5611 25.0607Z" fill="white"/>
<path d="M14.973 21.0085C14.6789 21.0085 14.3845 21.0009 14.0908 21.0113C13.9103 21.0178 13.8482 20.9535 13.8496 20.7719C13.8527 20.3888 13.8439 20.3883 14.2372 20.3878C14.7682 20.387 15.2997 20.3997 15.8301 20.3813C16.1064 20.3717 16.078 20.5335 16.0826 20.7103C16.0874 20.8925 16.0788 21.0299 15.8305 21.0142C15.5458 20.9963 15.2589 21.0101 14.973 21.0101V21.0085Z" fill="white"/>
<path d="M14.9474 20.0811C14.6532 20.0811 14.359 20.0765 14.065 20.083C13.9069 20.0865 13.8529 20.0237 13.8498 19.8665C13.8418 19.4602 13.8353 19.4601 14.2367 19.4597C14.776 19.459 15.3155 19.4681 15.8545 19.4543C16.1034 19.4479 16.0839 19.5976 16.0794 19.7566C16.075 19.9139 16.1253 20.0975 15.8543 20.0862C15.5525 20.0736 15.2497 20.0833 14.9474 20.0833V20.0811Z" fill="white"/>
<path d="M8.09351 22.8868C7.80772 22.8867 7.52167 22.8789 7.23624 22.8889C6.95202 22.8989 7.01115 22.7005 7.00384 22.5375C6.99681 22.3806 6.99777 22.251 7.2251 22.2555C7.81277 22.267 8.40094 22.266 8.98865 22.2555C9.19366 22.2518 9.22395 22.3579 9.20463 22.5143C9.18625 22.6632 9.29537 22.8873 8.99984 22.8869C8.69773 22.8865 8.39562 22.8864 8.09351 22.8868Z" fill="white"/>
<path d="M14.9376 17.2715C14.6424 17.2715 14.347 17.2662 14.052 17.2737C13.9006 17.2775 13.8559 17.2155 13.8515 17.0707C13.8387 16.6467 13.8333 16.6465 14.2546 16.6462C14.7713 16.6458 15.2882 16.6553 15.8045 16.6423C16.0971 16.6349 16.0507 16.8252 16.0618 17.0035C16.0739 17.1986 16.0117 17.2879 15.7985 17.2764C15.5124 17.2609 15.2247 17.2725 14.9376 17.2725V17.2715Z" fill="white"/>
<path d="M8.0914 21.0076C7.79667 21.0076 7.50181 21.0021 7.20725 21.0092C6.94394 21.0155 7.0114 20.8257 7.00576 20.6838C6.99999 20.5388 6.97365 20.383 7.21178 20.3863C7.80931 20.3945 8.40705 20.3916 9.00467 20.3872C9.15263 20.3862 9.20202 20.4451 9.20764 20.5903C9.22383 21.0081 9.22931 21.008 8.80367 21.0084C8.56625 21.0087 8.32882 21.0087 8.0914 21.0085V21.0076Z" fill="white"/>
<path d="M8.08315 17.2714C7.79655 17.2713 7.50978 17.2654 7.22341 17.2737C7.06667 17.2782 7.00727 17.2233 7.00294 17.0631C6.99191 16.654 6.99139 16.6469 7.39254 16.6465C7.90842 16.6459 8.4248 16.6601 8.93999 16.6413C9.22749 16.6309 9.19965 16.7987 9.20792 16.9862C9.21668 17.1845 9.17724 17.2918 8.94265 17.276C8.65733 17.2569 8.36975 17.2715 8.08315 17.2714Z" fill="white"/>
<path d="M18.6833 19.458C18.9778 19.4579 19.2727 19.4679 19.5666 19.4546C19.7894 19.4446 19.8054 19.5744 19.7918 19.7351C19.7794 19.8825 19.8615 20.0858 19.5851 20.0844C18.988 20.0815 18.3908 20.0801 17.7937 20.0853C17.5193 20.0876 17.5903 19.8915 17.5811 19.7411C17.5716 19.586 17.5715 19.4453 17.8 19.455C18.0939 19.4675 18.3888 19.458 18.6833 19.458Z" fill="white"/>
<path d="M8.08582 20.0809C7.79922 20.0809 7.51225 20.072 7.22612 20.0836C6.97695 20.0937 7.0001 19.93 7.00453 19.7735C7.0087 19.6262 6.95674 19.453 7.2166 19.4574C7.80601 19.4673 8.39574 19.4635 8.98528 19.4581C9.13823 19.4567 9.20371 19.502 9.2079 19.6659C9.21849 20.081 9.2257 20.081 8.79824 20.0817C8.56077 20.082 8.32329 20.0821 8.08582 20.0817V20.0809Z" fill="white"/>
<path d="M14.9469 19.1367C14.6445 19.1367 14.342 19.1331 14.0397 19.1383C13.9029 19.1407 13.8439 19.0863 13.8524 18.9504C13.8571 18.869 13.8572 18.7874 13.8527 18.706C13.8458 18.5734 13.9034 18.5101 14.0386 18.5103C14.6435 18.5114 15.2483 18.508 15.8532 18.5111C16.1409 18.5125 16.0419 18.737 16.0593 18.8891C16.0783 19.0551 16.0233 19.1489 15.8296 19.1413C15.5358 19.1296 15.2412 19.1382 14.9469 19.1382L14.9469 19.1367Z" fill="white"/>
<path d="M8.10177 19.1368C7.8149 19.137 7.52735 19.1249 7.24139 19.1409C7.02625 19.153 6.98874 19.0441 7.00546 18.8727C7.0206 18.7174 6.93327 18.5064 7.22573 18.5091C7.81581 18.5145 8.40597 18.5122 8.99608 18.5098C9.13639 18.5093 9.21407 18.5589 9.2052 18.71C9.20059 18.7916 9.20063 18.8735 9.20531 18.9551C9.21307 19.095 9.14427 19.1404 9.01152 19.1382C8.70834 19.1332 8.40503 19.1367 8.10177 19.1368Z" fill="white"/>
<path d="M14.9581 18.207C14.6629 18.207 14.3677 18.2018 14.0728 18.2091C13.9197 18.2129 13.8377 18.1674 13.8535 18.0013C13.8594 17.9279 13.8596 17.8542 13.8541 17.7808C13.8459 17.6473 13.9017 17.5864 14.0393 17.5869C14.6459 17.5891 15.2526 17.5867 15.8592 17.587C16.1353 17.5871 16.046 17.798 16.0598 17.9438C16.0744 18.0972 16.05 18.2181 15.8433 18.2106C15.5486 18.2 15.2532 18.2079 14.9581 18.2079V18.207Z" fill="white"/>
<path d="M8.11036 18.2068C7.82393 18.2068 7.53726 18.1997 7.25116 18.2095C7.07825 18.2154 7.00028 18.167 7.00008 17.9778C6.99967 17.5874 6.99042 17.5871 7.38764 17.5869C7.90321 17.5866 8.41935 17.6015 8.93414 17.5814C9.21495 17.5704 9.20372 17.7233 9.20767 17.9179C9.2116 18.1116 9.1829 18.2275 8.9448 18.2112C8.66786 18.1922 8.38861 18.2068 8.11036 18.2068Z" fill="white"/>
<path d="M18.6802 25.0607C18.9751 25.0608 19.2703 25.0689 19.5647 25.0577C19.7405 25.0511 19.7898 25.122 19.7914 25.2872C19.7954 25.6813 19.8019 25.6817 19.405 25.6822C18.8972 25.6829 18.3888 25.6691 17.8817 25.6886C17.6078 25.6992 17.5803 25.57 17.5782 25.3482C17.5761 25.1285 17.6351 25.0383 17.8697 25.0558C18.1384 25.076 18.4099 25.0605 18.6802 25.0607Z" fill="white"/>
<path d="M8.10592 21.3246C8.40084 21.3245 8.69622 21.3346 8.99054 21.3213C9.22628 21.3107 9.21038 21.46 9.20329 21.6102C9.19615 21.7614 9.26533 21.953 8.988 21.949C8.39829 21.9403 7.80847 21.94 7.21855 21.948C6.94266 21.9514 7.01146 21.7587 7.00288 21.6074C6.9941 21.4528 6.99086 21.3111 7.22131 21.3215C7.51563 21.3347 7.811 21.3247 8.10592 21.3246Z" fill="white"/>
</g>
<defs>
<clipPath id="clip0_4428_94227">
<rect y="0.800049" width="32" height="32" rx="16" fill="white"/>
</clipPath>
</defs>
</svg>
