<svg width="33" height="33" viewBox="0 0 33 33" fill="none" xmlns="http://www.w3.org/2000/svg">
<rect x="0.800781" y="0.800049" width="32" height="32" rx="16" fill="#06070A" fill-opacity="0.4"/>
<path fill-rule="evenodd" clip-rule="evenodd" d="M11.8854 8.00024L4.67773 15.2129L16.7998 27.33L28.9218 15.2129L21.7141 8.00024H11.8854ZM11.2302 12.5869C14.2927 9.51099 19.3068 9.51098 22.3693 12.5869L24.9903 15.208L22.3693 17.8289C19.3068 20.9049 14.2927 20.9049 11.2302 17.8289L8.6092 15.208L11.2302 12.5869ZM13.0332 15.2078C13.0332 17.2895 14.7209 18.9755 16.8009 18.9755C18.8808 18.9755 20.5685 17.2895 20.5685 15.2078C20.5685 13.1262 18.8808 11.4402 16.8009 11.4402C14.7209 11.4402 13.0332 13.1262 13.0332 15.2078ZM16.8009 16.846C15.8965 16.846 15.1627 16.1129 15.1627 15.2078C15.1627 14.3028 15.8965 13.5697 16.8009 13.5697C17.7052 13.5697 18.439 14.3028 18.439 15.2078C18.439 16.1129 17.7052 16.846 16.8009 16.846Z" fill="white"/>
</svg>
