<svg width="33" height="33" viewBox="0 0 33 33" fill="none" xmlns="http://www.w3.org/2000/svg">
<rect x="0.800781" y="0.400146" width="32" height="32" rx="16" fill="white" fill-opacity="0.4"/>
<path fill-rule="evenodd" clip-rule="evenodd" d="M11.8854 7.60034L4.67773 14.813L16.7998 26.9301L28.9218 14.813L21.7141 7.60034H11.8854ZM11.2302 12.187C14.2927 9.11109 19.3068 9.11107 22.3693 12.187L24.9903 14.8081L22.3693 17.429C19.3068 20.505 14.2927 20.505 11.2302 17.429L8.6092 14.8081L11.2302 12.187ZM13.0332 14.8079C13.0332 16.8896 14.7209 18.5756 16.8009 18.5756C18.8808 18.5756 20.5685 16.8896 20.5685 14.8079C20.5685 12.7263 18.8808 11.0403 16.8009 11.0403C14.7209 11.0403 13.0332 12.7263 13.0332 14.8079ZM16.8009 16.4461C15.8965 16.4461 15.1627 15.713 15.1627 14.8079C15.1627 13.9029 15.8965 13.1698 16.8009 13.1698C17.7052 13.1698 18.439 13.9029 18.439 14.8079C18.439 15.713 17.7052 16.4461 16.8009 16.4461Z" fill="#69E174"/>
</svg>
