<svg width="33" height="33" viewBox="0 0 33 33" fill="none" xmlns="http://www.w3.org/2000/svg">
<g clip-path="url(#clip0_4428_94215)">
<path opacity="0.4" d="M33 17C33 25.8361 25.8361 33 17 33C8.16394 33 1 25.8361 1 17C1 8.16394 8.16394 1 17 1C25.8379 1 33 8.16394 33 17Z" fill="#06070A"/>
<path d="M8.49357 17.3378L8.56259 17.2293L12.7248 10.718C12.7857 10.6227 12.9287 10.6325 12.9747 10.7361C13.67 12.2945 14.27 14.2326 13.989 15.4392C13.869 15.9356 13.5402 16.6079 13.1703 17.2293C13.1227 17.3197 13.07 17.4085 13.0141 17.494C12.9878 17.5334 12.9435 17.5564 12.8958 17.5564H8.6152C8.50013 17.5564 8.43273 17.4315 8.49357 17.3378Z" fill="white"/>
<path d="M27.0465 18.5477V19.5784C27.0465 19.6376 27.0104 19.6902 26.9578 19.7132C26.6356 19.8513 25.5325 20.3576 25.0739 20.9954C23.9035 22.6245 23.0092 24.9538 21.0103 24.9538H12.671C9.71542 24.9538 7.32031 22.5505 7.32031 19.585V19.4896C7.32031 19.4107 7.38441 19.3466 7.46332 19.3466H12.1122C12.2042 19.3466 12.2716 19.4321 12.2634 19.5225C12.2305 19.825 12.2864 20.134 12.4294 20.4151C12.7056 20.9757 13.2776 21.3258 13.8957 21.3258H16.1971V19.5291H13.922C13.8053 19.5291 13.7363 19.3943 13.8037 19.2989C13.8283 19.2611 13.8563 19.2217 13.8858 19.1773C14.1012 18.8716 14.4086 18.3965 14.7144 17.8557C14.9231 17.4907 15.1253 17.1011 15.2881 16.7099C15.321 16.6392 15.3472 16.5669 15.3735 16.4962C15.4179 16.3712 15.464 16.2545 15.4968 16.1378C15.5297 16.0392 15.556 15.9356 15.5823 15.8386C15.6596 15.5066 15.6924 15.1548 15.6924 14.7899C15.6924 14.6469 15.6859 14.4973 15.6727 14.3542C15.6661 14.1981 15.6464 14.0419 15.6267 13.8857C15.6135 13.7477 15.5889 13.6112 15.5626 13.4682C15.5297 13.2594 15.4837 13.0523 15.4311 12.8435L15.413 12.7646C15.3735 12.6216 15.3407 12.4852 15.2946 12.3422C15.1648 11.8934 15.0152 11.4561 14.8574 11.0468C14.7998 10.8841 14.7341 10.7279 14.6683 10.5717C14.5714 10.3367 14.4727 10.123 14.3823 9.92077C14.3363 9.82871 14.2968 9.74487 14.2574 9.65939C14.213 9.5624 14.167 9.46541 14.1209 9.37338C14.0881 9.30269 14.0502 9.23693 14.0239 9.17117L13.7428 8.65172C13.7034 8.58103 13.7691 8.49719 13.8464 8.51856L15.6053 8.99527H15.6103C15.6135 8.99527 15.6152 8.99693 15.6168 8.99693L15.8486 9.06103L16.1034 9.13338L16.1971 9.15965V8.11418C16.1971 7.60951 16.6015 7.2002 17.1012 7.2002C17.3511 7.2002 17.5779 7.30212 17.7407 7.46813C17.9034 7.63418 18.0053 7.86103 18.0053 8.11418V9.66599L18.1928 9.71856C18.2075 9.72352 18.2223 9.73008 18.2355 9.73994C18.2815 9.77447 18.3473 9.82541 18.4311 9.88791C18.4969 9.94048 18.5675 10.0046 18.653 10.0704C18.8223 10.2068 19.0245 10.3827 19.2465 10.5849C19.3056 10.6358 19.3632 10.6885 19.4158 10.7411C19.7018 11.0074 20.0224 11.3197 20.3281 11.6649C20.4136 11.7619 20.4974 11.8605 20.5829 11.9641C20.6684 12.0693 20.7588 12.1728 20.8377 12.2764C20.9413 12.4145 21.053 12.5575 21.15 12.7071C21.1961 12.7778 21.2487 12.8501 21.293 12.9208C21.418 13.1098 21.5281 13.3055 21.6333 13.5011C21.6777 13.5915 21.7237 13.6901 21.7632 13.7871C21.8799 14.0485 21.972 14.3148 22.0311 14.5811C22.0492 14.6386 22.0624 14.7011 22.069 14.757V14.7701C22.0887 14.849 22.0953 14.9329 22.1018 15.0183C22.1281 15.2912 22.115 15.5641 22.0558 15.8386C22.0311 15.9554 21.9983 16.0655 21.9588 16.1822C21.9194 16.294 21.8799 16.4107 21.829 16.5208C21.7303 16.7493 21.6136 16.9778 21.4755 17.1915C21.4311 17.2704 21.3785 17.3543 21.3259 17.4332C21.2684 17.517 21.2092 17.5959 21.1566 17.6732C21.0843 17.7718 21.007 17.8754 20.9281 17.9674C20.8574 18.0644 20.7851 18.1614 20.7062 18.2469C20.5961 18.3767 20.4908 18.5 20.3807 18.6184C20.315 18.6957 20.2443 18.7746 20.1719 18.8453C20.1013 18.9241 20.0289 18.9948 19.9632 19.0606C19.853 19.1707 19.761 19.2562 19.6837 19.3269L19.5029 19.4929C19.4766 19.5159 19.4421 19.5291 19.4059 19.5291H18.0053V21.3258H19.7675C20.1621 21.3258 20.5369 21.1861 20.8394 20.9296C20.9429 20.8392 21.395 20.448 21.9292 19.8579C21.9473 19.8381 21.9703 19.8233 21.9966 19.8168L26.8641 18.4096C26.9545 18.3833 27.0465 18.4524 27.0465 18.5477Z" fill="white"/>
</g>
<defs>
<clipPath id="clip0_4428_94215">
<rect width="32" height="32" fill="white" transform="translate(0.599609 0.800049)"/>
</clipPath>
</defs>
</svg>
