<svg width="33" height="33" viewBox="0 0 33 33" fill="none" xmlns="http://www.w3.org/2000/svg">
<g clip-path="url(#clip0_4428_94137)">
<path opacity="0.4" d="M33 16.6001C33 25.4362 25.8361 32.6001 17 32.6001C8.16394 32.6001 1 25.4362 1 16.6001C1 7.76403 8.16394 0.600098 17 0.600098C25.8379 0.600098 33 7.76403 33 16.6001Z" fill="white"/>
<path d="M8.49357 16.9379L8.56259 16.8294L12.7248 10.3181C12.7857 10.2228 12.9287 10.2326 12.9747 10.3362C13.67 11.8946 14.27 13.8327 13.989 15.0393C13.869 15.5357 13.5402 16.208 13.1703 16.8294C13.1227 16.9198 13.07 17.0086 13.0141 17.0941C12.9878 17.1335 12.9435 17.1565 12.8958 17.1565H8.6152C8.50013 17.1565 8.43273 17.0316 8.49357 16.9379Z" fill="#2081E2"/>
<path d="M27.0465 18.1478V19.1785C27.0465 19.2377 27.0104 19.2903 26.9578 19.3133C26.6356 19.4514 25.5325 19.9577 25.0739 20.5955C23.9035 22.2245 23.0092 24.5539 21.0103 24.5539H12.671C9.71542 24.5539 7.32031 22.1506 7.32031 19.1851V19.0897C7.32031 19.0108 7.38441 18.9467 7.46332 18.9467H12.1122C12.2042 18.9467 12.2716 19.0322 12.2634 19.1226C12.2305 19.4251 12.2864 19.7341 12.4294 20.0152C12.7056 20.5758 13.2776 20.9259 13.8957 20.9259H16.1971V19.1292H13.922C13.8053 19.1292 13.7363 18.9944 13.8037 18.899C13.8283 18.8612 13.8563 18.8218 13.8858 18.7774C14.1012 18.4717 14.4086 17.9966 14.7144 17.4557C14.9231 17.0908 15.1253 16.7012 15.2881 16.31C15.321 16.2393 15.3472 16.1669 15.3735 16.0963C15.4179 15.9713 15.464 15.8546 15.4968 15.7379C15.5297 15.6393 15.556 15.5357 15.5823 15.4387C15.6596 15.1067 15.6924 14.7549 15.6924 14.39C15.6924 14.2469 15.6859 14.0973 15.6727 13.9543C15.6661 13.7982 15.6464 13.642 15.6267 13.4858C15.6135 13.3477 15.5889 13.2113 15.5626 13.0683C15.5297 12.8595 15.4837 12.6524 15.4311 12.4436L15.413 12.3647C15.3735 12.2217 15.3407 12.0853 15.2946 11.9423C15.1648 11.4935 15.0152 11.0562 14.8574 10.6469C14.7998 10.4842 14.7341 10.328 14.6683 10.1718C14.5714 9.93677 14.4727 9.72308 14.3823 9.52087C14.3363 9.42881 14.2968 9.34496 14.2574 9.25949C14.213 9.1625 14.167 9.06551 14.1209 8.97348C14.0881 8.90279 14.0502 8.83703 14.0239 8.77127L13.7428 8.25181C13.7034 8.18112 13.7691 8.09728 13.8464 8.11866L15.6053 8.59536H15.6103C15.6135 8.59536 15.6152 8.59703 15.6168 8.59703L15.8486 8.66112L16.1034 8.73348L16.1971 8.75975V7.71428C16.1971 7.2096 16.6015 6.80029 17.1012 6.80029C17.3511 6.80029 17.5779 6.90221 17.7407 7.06823C17.9034 7.23428 18.0053 7.46112 18.0053 7.71428V9.26609L18.1928 9.31866C18.2075 9.32362 18.2223 9.33018 18.2355 9.34004C18.2815 9.37457 18.3473 9.42551 18.4311 9.488C18.4969 9.54058 18.5675 9.60471 18.653 9.67047C18.8223 9.80688 19.0245 9.98279 19.2465 10.185C19.3056 10.2359 19.3632 10.2885 19.4158 10.3412C19.7018 10.6075 20.0224 10.9198 20.3281 11.265C20.4136 11.362 20.4974 11.4606 20.5829 11.5642C20.6684 11.6694 20.7588 11.7729 20.8377 11.8765C20.9413 12.0146 21.053 12.1576 21.15 12.3072C21.1961 12.3779 21.2487 12.4502 21.293 12.5209C21.418 12.7099 21.5281 12.9056 21.6333 13.1012C21.6777 13.1916 21.7237 13.2902 21.7632 13.3872C21.8799 13.6486 21.972 13.9149 22.0311 14.1812C22.0492 14.2387 22.0624 14.3012 22.069 14.3571V14.3702C22.0887 14.4491 22.0953 14.533 22.1018 14.6184C22.1281 14.8913 22.115 15.1642 22.0558 15.4387C22.0311 15.5555 21.9983 15.6656 21.9588 15.7823C21.9194 15.8941 21.8799 16.0108 21.829 16.1209C21.7303 16.3494 21.6136 16.5779 21.4755 16.7916C21.4311 16.8705 21.3785 16.9544 21.3259 17.0333C21.2684 17.1171 21.2092 17.196 21.1566 17.2733C21.0843 17.3719 21.007 17.4755 20.9281 17.5675C20.8574 17.6645 20.7851 17.7615 20.7062 17.847C20.5961 17.9768 20.4908 18.1001 20.3807 18.2185C20.315 18.2957 20.2443 18.3747 20.1719 18.4453C20.1013 18.5242 20.0289 18.5949 19.9632 18.6607C19.853 18.7708 19.761 18.8563 19.6837 18.927L19.5029 19.093C19.4766 19.116 19.4421 19.1292 19.4059 19.1292H18.0053V20.9259H19.7675C20.1621 20.9259 20.5369 20.7862 20.8394 20.5297C20.9429 20.4393 21.395 20.0481 21.9292 19.458C21.9473 19.4382 21.9703 19.4234 21.9966 19.4169L26.8641 18.0097C26.9545 17.9834 27.0465 18.0525 27.0465 18.1478Z" fill="#2081E2"/>
</g>
<defs>
<clipPath id="clip0_4428_94137">
<rect width="32" height="32" fill="white" transform="translate(0.599609 0.400146)"/>
</clipPath>
</defs>
</svg>
