<svg width="33" height="33" viewBox="0 0 33 33" fill="none" xmlns="http://www.w3.org/2000/svg">
<g clip-path="url(#clip0_4428_94224)">
<path opacity="0.4" d="M25.7992 0.800049H6.59922C3.0646 0.800049 0.199219 3.66543 0.199219 7.20005V26.4C0.199219 29.9347 3.0646 32.8 6.59922 32.8H25.7992C29.3338 32.8 32.1992 29.9347 32.1992 26.4V7.20005C32.1992 3.66543 29.3338 0.800049 25.7992 0.800049Z" fill="#06070A"/>
<path d="M22.2799 16.6829C23.2879 16.421 24.1847 15.6671 24.1847 14.1512C24.1847 11.6274 22.0419 11.04 19.2959 11.04H8.35938V22.4052H12.9625V18.548H18.4228C19.2641 18.548 19.7562 18.8813 19.7562 19.7068V22.4052H24.3594V19.5639C24.3594 18.0163 23.4863 17.04 22.2799 16.6829ZM18.5022 15.4845H12.9625V14.3734H18.5022C19.1054 14.3734 19.4704 14.4528 19.4704 14.929C19.4704 15.4052 19.1054 15.4845 18.5022 15.4845Z" fill="white"/>
</g>
<defs>
<clipPath id="clip0_4428_94224">
<rect x="0.199219" y="0.800049" width="32" height="32" rx="16" fill="white"/>
</clipPath>
</defs>
</svg>
