<svg width="33" height="33" viewBox="0 0 33 33" fill="none" xmlns="http://www.w3.org/2000/svg">
<g clip-path="url(#clip0_4428_94146)">
<path opacity="0.4" d="M25.7992 0.400146H6.59922C3.0646 0.400146 0.199219 3.26552 0.199219 6.80015V26.0001C0.199219 29.5348 3.0646 32.4001 6.59922 32.4001H25.7992C29.3338 32.4001 32.1992 29.5348 32.1992 26.0001V6.80015C32.1992 3.26552 29.3338 0.400146 25.7992 0.400146Z" fill="white"/>
<path d="M22.2799 16.283C23.2879 16.0211 24.1847 15.2672 24.1847 13.7513C24.1847 11.2275 22.0419 10.6401 19.2959 10.6401H8.35938V22.0053H12.9625V18.1481H18.4228C19.2641 18.1481 19.7562 18.4814 19.7562 19.3069V22.0053H24.3594V19.164C24.3594 17.6164 23.4863 16.6401 22.2799 16.283ZM18.5022 15.0846H12.9625V13.9735H18.5022C19.1054 13.9735 19.4704 14.0529 19.4704 14.5291C19.4704 15.0053 19.1054 15.0846 18.5022 15.0846Z" fill="#FEDA03"/>
</g>
<defs>
<clipPath id="clip0_4428_94146">
<rect x="0.199219" y="0.400146" width="32" height="32" rx="16" fill="white"/>
</clipPath>
</defs>
</svg>
