<svg width="33" height="33" viewBox="0 0 33 33" fill="none" xmlns="http://www.w3.org/2000/svg">
<rect x="0.400391" y="0.400146" width="32" height="32" rx="16" fill="white" fill-opacity="0.4"/>
<path fill-rule="evenodd" clip-rule="evenodd" d="M26.5629 8.61799C24.6015 6.70149 21.9185 5.52034 18.9596 5.52034C12.9508 5.52034 8.07961 10.3915 8.07961 16.4003C8.07961 22.4092 12.9508 27.2803 18.9596 27.2803C21.9185 27.2803 24.6015 26.0992 26.5629 24.1827C24.2233 27.2334 20.5412 29.2003 16.3996 29.2003C9.33036 29.2003 3.59961 23.4696 3.59961 16.4003C3.59961 9.33109 9.33036 3.60034 16.3996 3.60034C20.5412 3.60034 24.2233 5.56729 26.5629 8.61799ZM10.8301 22.6263C12.3992 24.1595 14.5456 25.1044 16.9127 25.1044C21.7198 25.1044 25.6167 21.2075 25.6167 16.4004C25.6167 11.5933 21.7198 7.6964 16.9127 7.6964C14.5456 7.6964 12.3992 8.64131 10.8301 10.1745C12.7018 7.73396 15.6475 6.1604 18.9607 6.1604C24.6161 6.1604 29.2007 10.745 29.2007 16.4004C29.2007 22.0558 24.6161 26.6404 18.9607 26.6404C15.6475 26.6404 12.7018 25.0668 10.8301 22.6263ZM16.4007 24.0802C20.6422 24.0802 24.0807 20.6418 24.0807 16.4002C24.0807 12.1587 20.6422 8.72021 16.4007 8.72021C12.1592 8.72021 8.7207 12.1587 8.7207 16.4002C8.7207 20.6418 12.1592 24.0802 16.4007 24.0802ZM16.4007 21.5202C19.2284 21.5202 21.5207 19.2279 21.5207 16.4002C21.5207 13.5725 19.2284 11.2802 16.4007 11.2802C13.573 11.2802 11.2807 13.5725 11.2807 16.4002C11.2807 19.2279 13.573 21.5202 16.4007 21.5202Z" fill="url(#paint0_linear_4428_94141)"/>
<defs>
<linearGradient id="paint0_linear_4428_94141" x1="4.55965" y1="16.4003" x2="29.2007" y2="16.4003" gradientUnits="userSpaceOnUse">
<stop stop-color="#64D9FB"/>
<stop offset="1" stop-color="#5139C3"/>
</linearGradient>
</defs>
</svg>
