<svg width="33" height="33" viewBox="0 0 33 33" fill="none" xmlns="http://www.w3.org/2000/svg">
<rect x="0.400391" y="0.800049" width="32" height="32" rx="16" fill="#06070A" fill-opacity="0.4"/>
<path fill-rule="evenodd" clip-rule="evenodd" d="M26.5629 9.0179C24.6015 7.10139 21.9185 5.92024 18.9596 5.92024C12.9508 5.92024 8.07961 10.7914 8.07961 16.8002C8.07961 22.8091 12.9508 27.6802 18.9596 27.6802C21.9185 27.6802 24.6015 26.4991 26.5629 24.5826C24.2233 27.6333 20.5412 29.6002 16.3996 29.6002C9.33036 29.6002 3.59961 23.8695 3.59961 16.8002C3.59961 9.731 9.33036 4.00024 16.3996 4.00024C20.5412 4.00024 24.2233 5.96719 26.5629 9.0179ZM10.8301 23.0262C12.3992 24.5594 14.5456 25.5043 16.9127 25.5043C21.7198 25.5043 25.6167 21.6074 25.6167 16.8003C25.6167 11.9932 21.7198 8.0963 16.9127 8.0963C14.5456 8.0963 12.3992 9.04121 10.8301 10.5744C12.7018 8.13386 15.6475 6.5603 18.9607 6.5603C24.6161 6.5603 29.2007 11.1449 29.2007 16.8003C29.2007 22.4557 24.6161 27.0403 18.9607 27.0403C15.6475 27.0403 12.7018 25.4667 10.8301 23.0262ZM16.4007 24.4801C20.6422 24.4801 24.0807 21.0417 24.0807 16.8001C24.0807 12.5586 20.6422 9.12012 16.4007 9.12012C12.1592 9.12012 8.7207 12.5586 8.7207 16.8001C8.7207 21.0417 12.1592 24.4801 16.4007 24.4801ZM16.4007 21.9201C19.2284 21.9201 21.5207 19.6278 21.5207 16.8001C21.5207 13.9724 19.2284 11.6801 16.4007 11.6801C13.573 11.6801 11.2807 13.9724 11.2807 16.8001C11.2807 19.6278 13.573 21.9201 16.4007 21.9201Z" fill="white"/>
</svg>
