<svg width="24" height="24" viewBox="0 0 24 24" fill="none" xmlns="http://www.w3.org/2000/svg">
<path d="M3.00001 15V14C2.99274 13.604 3.06538 13.2107 3.21357 12.8434C3.36176 12.4762 3.58247 12.1425 3.86251 11.8625C4.14254 11.5825 4.47616 11.3618 4.84342 11.2136C5.21068 11.0654 5.60404 10.9927 6.00001 11H9.00001C9.39597 10.9927 9.78934 11.0654 10.1566 11.2136C10.5239 11.3618 10.8575 11.5825 11.1375 11.8625C11.4175 12.1425 11.6383 12.4762 11.7864 12.8434C11.9346 13.2107 12.0073 13.604 12 14V15M16 11H18C18.396 10.9927 18.7893 11.0654 19.1566 11.2136C19.5239 11.3618 19.8575 11.5825 20.1375 11.8625C20.4175 12.1425 20.6383 12.4762 20.7864 12.8434C20.9346 13.2107 21.0073 13.604 21 14V15M15.4081 17.5H18V20.0561M6.00001 17.5485C6.56868 18.5928 7.40838 19.4646 8.43073 20.072C9.45308 20.6794 10.6203 21 11.8094 21C12.9986 21 14.1658 20.6794 15.1881 20.072C16.2105 19.4646 17.0502 18.5928 17.6189 17.5485M10 5.5C10 6.88071 8.88072 8 7.50001 8C6.1193 8 5.00001 6.88071 5.00001 5.5C5.00001 4.11929 6.1193 3 7.50001 3C8.88072 3 10 4.11929 10 5.5ZM19 6C19 7.10457 18.1046 8 17 8C15.8954 8 15 7.10457 15 6C15 4.89543 15.8954 4 17 4C18.1046 4 19 4.89543 19 6Z" stroke="#FBFBFB" stroke-width="2" stroke-linecap="round" stroke-linejoin="round"/>
</svg>
