<svg width="24" height="24" viewBox="0 0 24 24" fill="none" xmlns="http://www.w3.org/2000/svg">
<path d="M11 16C11 16.5523 11.4477 17 12 17C12.5523 17 13 16.5523 13 16C13 15.4477 12.5523 15 12 15C11.4477 15 11 15.4477 11 16ZM11 12C11 12.5523 11.4477 13 12 13C12.5523 13 13 12.5523 13 12V8C13 7.44772 12.5523 7 12 7C11.4477 7 11 7.44772 11 8V12ZM12 22C6.48 22 2 17.52 2 12C2 6.48 6.48 2 12 2C17.52 2 22 6.48 22 12C22 17.52 17.52 22 12 22ZM12 4C7.59 4 4 7.59 4 12C4 16.41 7.59 20 12 20C16.41 20 20 16.41 20 12C20 7.59 16.41 4 12 4Z" fill="#6C86AD"/>
</svg>
