<svg width="24" height="24" viewBox="0 0 24 24" fill="none" xmlns="http://www.w3.org/2000/svg">
<path fill-rule="evenodd" clip-rule="evenodd" d="M10.8342 3.10259C11.311 2.13637 12.6888 2.13638 13.1657 3.10259L15.309 7.44548L20.1017 8.14189C21.168 8.29684 21.5937 9.6072 20.8222 10.3593L17.3542 13.7398L18.1729 18.5131C18.355 19.575 17.2403 20.3849 16.2866 19.8835L11.9999 17.6298L7.71325 19.8835C6.75953 20.3849 5.64487 19.575 5.82701 18.5131L6.6457 13.7398L3.1777 10.3593C2.40612 9.6072 2.83189 8.29683 3.89817 8.14189L8.69083 7.44548L10.8342 3.10259ZM11.9999 5.25962L10.3214 8.66062C10.1321 9.04431 9.76604 9.31025 9.34262 9.37177L5.58939 9.91715L8.30525 12.5645C8.61164 12.8631 8.75145 13.2934 8.67913 13.7151L8.038 17.4532L11.395 15.6883C11.7737 15.4892 12.2262 15.4892 12.6049 15.6883L15.9619 17.4532L15.3207 13.7151C15.2484 13.2934 15.3882 12.8631 15.6946 12.5645L18.4105 9.91715L14.6572 9.37177C14.2338 9.31025 13.8678 9.04431 13.6784 8.66062L11.9999 5.25962Z" fill="#6C86AD"/>
</svg>
