<svg width="24" height="24" viewBox="0 0 24 24" fill="none" xmlns="http://www.w3.org/2000/svg">
<path fill-rule="evenodd" clip-rule="evenodd" d="M4 12C4 7.58172 7.58172 4 12 4C16.4183 4 20 7.58172 20 12C20 16.4183 16.4183 20 12 20C7.58172 20 4 16.4183 4 12ZM12 2C6.47715 2 2 6.47715 2 12C2 17.5228 6.47715 22 12 22C17.5228 22 22 17.5228 22 12C22 6.47715 17.5228 2 12 2ZM11.0036 5.32394C11.5499 5.24242 12 5.69772 12 6.25V11.64C12 11.8727 12.0811 12.0981 12.2295 12.2774L15.665 16.4306C16.017 16.8562 15.9604 17.4939 15.4875 17.7792C14.8505 18.1637 14.1523 18.4413 13.4205 18.5988C12.3616 18.8268 11.2634 18.7965 10.2187 18.5107C9.17393 18.2249 8.21332 17.6918 7.41797 16.9566C6.62262 16.2213 6.01589 15.3055 5.64901 14.2864C5.28213 13.2672 5.16589 12.1748 5.31009 11.1013C5.45429 10.0278 5.85471 9.00482 6.47753 8.11866C7.10034 7.2325 7.92726 6.50924 8.88845 6.00994C9.55278 5.66486 10.2678 5.43377 11.0036 5.32394Z" fill="#6C86AD"/>
</svg>
