<svg width="24" height="24" viewBox="0 0 24 24" fill="none" xmlns="http://www.w3.org/2000/svg">
<path fill-rule="evenodd" clip-rule="evenodd" d="M9.00073 7.88889C9.00073 6.31977 10.3171 5 12.0007 5C13.6843 5 15.0007 6.31977 15.0007 7.88889C15.0007 8.83185 14.7542 10.2007 14.1993 11.2989C13.6416 12.4026 12.9111 13 12.0007 13C11.0904 13 10.3598 12.4026 9.80217 11.2989C9.24728 10.2007 9.00073 8.83185 9.00073 7.88889ZM12.0007 3C9.26605 3 7.00073 5.16246 7.00073 7.88889C7.00073 9.0937 7.29938 10.7804 8.0171 12.2008C8.25083 12.6634 8.54382 13.1227 8.90222 13.5314C6.08624 14.56 4.46509 16.8461 3.69566 18.264C2.94966 19.6388 4.07454 21 5.38816 21L10.0007 21H14.0007L18.6133 21C19.9269 21 21.0518 19.6388 20.3058 18.264C19.5364 16.8461 17.9152 14.56 15.0993 13.5314C15.4576 13.1227 15.7506 12.6634 15.9844 12.2008C16.7021 10.7804 17.0007 9.0937 17.0007 7.88889C17.0007 5.16246 14.7354 3 12.0007 3ZM5.57522 19C6.52029 17.3554 8.48426 15 12.0007 15C15.5172 15 17.4812 17.3554 18.4262 19L14.0021 19L14.0007 19H10.0007L9.99937 19L5.57522 19Z" fill="#FBFBFB"/>
</svg>
