<svg width="320" height="210" viewBox="0 0 320 210" fill="none" xmlns="http://www.w3.org/2000/svg">
<rect width="320" height="260" fill="url(#paint0_radial_373_8087)" fill-opacity="0.2"/>
<circle opacity="0.45" cx="275.55" cy="58.799" r="3.45575" transform="rotate(45 275.55 58.799)" fill="url(#paint1_radial_373_8087)"/>
<circle opacity="0.5" cx="275.55" cy="58.799" r="2.07345" transform="rotate(45 275.55 58.799)" fill="url(#paint2_radial_373_8087)"/>
<circle cx="275.55" cy="58.7991" r="1.3823" transform="rotate(45 275.55 58.7991)" fill="url(#paint3_radial_373_8087)"/>
<path d="M280.193 54.1562L275.794 59.0434L270.907 63.4419L275.305 58.5547L280.193 54.1562Z" fill="white"/>
<path d="M280.193 63.4419L275.305 59.0434L270.907 54.1562L275.794 58.5547L280.193 63.4419Z" fill="white"/>
<circle opacity="0.45" cx="112.446" cy="35.4458" r="3.14317" transform="rotate(45 112.446 35.4458)" fill="url(#paint4_radial_373_8087)"/>
<circle opacity="0.5" cx="112.446" cy="35.4459" r="1.8859" transform="rotate(45 112.446 35.4459)" fill="url(#paint5_radial_373_8087)"/>
<circle cx="112.446" cy="35.4459" r="1.25727" transform="rotate(45 112.446 35.4459)" fill="url(#paint6_radial_373_8087)"/>
<path d="M116.669 31.223L112.668 35.6681L108.223 39.6687L112.224 35.2236L116.669 31.223Z" fill="white"/>
<path d="M116.669 39.6687L112.224 35.6681L108.223 31.223L112.668 35.2236L116.669 39.6687Z" fill="white"/>
<circle opacity="0.45" cx="189.209" cy="37.4578" r="1.42296" transform="rotate(45 189.209 37.4578)" fill="url(#paint7_radial_373_8087)"/>
<circle opacity="0.5" cx="189.209" cy="37.4578" r="0.853774" transform="rotate(45 189.209 37.4578)" fill="url(#paint8_radial_373_8087)"/>
<circle cx="189.209" cy="37.4578" r="0.569183" transform="rotate(45 189.209 37.4578)" fill="url(#paint9_radial_373_8087)"/>
<path d="M191.121 35.546L189.31 37.5584L187.298 39.3695L189.109 37.3572L191.121 35.546Z" fill="white"/>
<path d="M191.121 39.3695L189.109 37.5584L187.298 35.546L189.31 37.3572L191.121 39.3695Z" fill="white"/>
<circle opacity="0.45" cx="299.544" cy="67.4995" r="1.42296" transform="rotate(45 299.544 67.4995)" fill="url(#paint10_radial_373_8087)"/>
<circle opacity="0.5" cx="299.544" cy="67.4995" r="0.853774" transform="rotate(45 299.544 67.4995)" fill="url(#paint11_radial_373_8087)"/>
<circle cx="299.544" cy="67.4995" r="0.569183" transform="rotate(45 299.544 67.4995)" fill="url(#paint12_radial_373_8087)"/>
<path d="M301.456 65.5878L299.645 67.6001L297.633 69.4113L299.444 67.3989L301.456 65.5878Z" fill="white"/>
<path d="M301.456 69.4113L299.444 67.6001L297.633 65.5878L299.645 67.3989L301.456 69.4113Z" fill="white"/>
<g opacity="0.3">
<circle opacity="0.45" cx="262.402" cy="30.9032" r="1.42296" transform="rotate(45 262.402 30.9032)" fill="url(#paint13_radial_373_8087)"/>
<circle opacity="0.5" cx="262.402" cy="30.9032" r="0.853774" transform="rotate(45 262.402 30.9032)" fill="url(#paint14_radial_373_8087)"/>
<circle cx="262.402" cy="30.9032" r="0.569183" transform="rotate(45 262.402 30.9032)" fill="url(#paint15_radial_373_8087)"/>
<path d="M264.314 28.9915L262.502 31.0038L260.49 32.815L262.301 30.8026L264.314 28.9915Z" fill="white"/>
<path d="M264.314 32.815L262.301 31.0038L260.49 28.9915L262.502 30.8026L264.314 32.815Z" fill="white"/>
</g>
<g opacity="0.3">
<circle opacity="0.45" cx="273.326" cy="88.2557" r="1.42296" transform="rotate(45 273.326 88.2557)" fill="url(#paint16_radial_373_8087)"/>
<circle opacity="0.5" cx="273.326" cy="88.2556" r="0.853774" transform="rotate(45 273.326 88.2556)" fill="url(#paint17_radial_373_8087)"/>
<circle cx="273.326" cy="88.2556" r="0.569183" transform="rotate(45 273.326 88.2556)" fill="url(#paint18_radial_373_8087)"/>
<path d="M275.238 86.3439L273.427 88.3562L271.414 90.1674L273.226 88.155L275.238 86.3439Z" fill="white"/>
<path d="M275.238 90.1674L273.226 88.3562L271.414 86.3439L273.427 88.155L275.238 90.1674Z" fill="white"/>
</g>
<g clip-path="url(#clip0_373_8087)">
<path d="M188.95 108.421C204.432 93.0332 204.432 68.0843 188.95 52.6962C173.469 37.3082 148.369 37.3082 132.887 52.6962C117.406 68.0843 117.406 93.0332 132.887 108.421C148.369 123.809 173.469 123.809 188.95 108.421Z" fill="url(#paint19_linear_373_8087)"/>
<g opacity="0.6" filter="url(#filter0_d_373_8087)">
<path d="M188.596 53.0487C203.881 68.2421 203.881 92.8754 188.596 108.069C173.31 123.262 148.527 123.262 133.242 108.069C117.956 92.8754 117.956 68.2421 133.242 53.0487C148.527 37.8554 173.31 37.8554 188.596 53.0487Z" stroke="url(#paint20_angular_373_8087)" shape-rendering="crispEdges"/>
</g>
<path d="M189.381 51.9355C197.523 49.0408 203.442 48.6406 205.436 51.4044C209.778 57.4181 193.874 76.14 169.921 93.2164C145.965 110.296 123.024 119.265 118.686 113.247C116.646 110.42 119.077 104.791 124.71 97.8426" stroke="url(#paint21_angular_373_8087)" stroke-miterlimit="10"/>
<path d="M122.857 63.1234C118.039 56.1772 116.179 50.6968 118.331 48.0975C123.067 42.3828 145.423 52.7684 168.259 71.2873C191.096 89.8098 205.77 109.454 201.035 115.169C198.853 117.803 192.928 117.018 184.937 113.591C184.782 113.524 184.327 113.343 184.171 113.273" stroke="url(#paint22_angular_373_8087)" stroke-miterlimit="10"/>
</g>
<g opacity="0.3">
<circle opacity="0.45" cx="183.747" cy="130.86" r="3.45575" transform="rotate(45 183.747 130.86)" fill="url(#paint23_radial_373_8087)"/>
<circle opacity="0.5" cx="183.747" cy="130.86" r="2.07345" transform="rotate(45 183.747 130.86)" fill="url(#paint24_radial_373_8087)"/>
<circle cx="183.747" cy="130.86" r="1.3823" transform="rotate(45 183.747 130.86)" fill="url(#paint25_radial_373_8087)"/>
<path d="M188.39 126.217L183.991 131.105L179.104 135.503L183.503 130.616L188.39 126.217Z" fill="white"/>
<path d="M188.39 135.503L183.503 131.105L179.104 126.217L183.991 130.616L188.39 135.503Z" fill="white"/>
</g>
<defs>
<filter id="filter0_d_373_8087" x="117.276" y="41.1553" width="87.2856" height="86.8069" filterUnits="userSpaceOnUse" color-interpolation-filters="sRGB">
<feFlood flood-opacity="0" result="BackgroundImageFix"/>
<feColorMatrix in="SourceAlpha" type="matrix" values="0 0 0 0 0 0 0 0 0 0 0 0 0 0 0 0 0 0 127 0" result="hardAlpha"/>
<feOffset dy="4"/>
<feGaussianBlur stdDeviation="2"/>
<feComposite in2="hardAlpha" operator="out"/>
<feColorMatrix type="matrix" values="0 0 0 0 0 0 0 0 0 0 0 0 0 0 0 0 0 0 0.25 0"/>
<feBlend mode="normal" in2="BackgroundImageFix" result="effect1_dropShadow_373_8087"/>
<feBlend mode="normal" in="SourceGraphic" in2="effect1_dropShadow_373_8087" result="shape"/>
</filter>
<radialGradient id="paint0_radial_373_8087" cx="0" cy="0" r="1" gradientUnits="userSpaceOnUse" gradientTransform="translate(139.13 68.8409) rotate(37.1706) scale(160.884 104.231)">
<stop stop-color="#DD34C2"/>
<stop offset="1" stop-color="#592479" stop-opacity="0"/>
</radialGradient>
<radialGradient id="paint1_radial_373_8087" cx="0" cy="0" r="1" gradientUnits="userSpaceOnUse" gradientTransform="translate(275.55 58.799) rotate(90) scale(3.45575)">
<stop stop-color="white"/>
<stop offset="1" stop-color="white" stop-opacity="0"/>
</radialGradient>
<radialGradient id="paint2_radial_373_8087" cx="0" cy="0" r="1" gradientUnits="userSpaceOnUse" gradientTransform="translate(275.55 58.799) rotate(90) scale(2.07345)">
<stop stop-color="white"/>
<stop offset="1" stop-color="white" stop-opacity="0"/>
</radialGradient>
<radialGradient id="paint3_radial_373_8087" cx="0" cy="0" r="1" gradientUnits="userSpaceOnUse" gradientTransform="translate(275.55 58.7991) rotate(90) scale(1.3823)">
<stop stop-color="white"/>
<stop offset="1" stop-color="white" stop-opacity="0"/>
</radialGradient>
<radialGradient id="paint4_radial_373_8087" cx="0" cy="0" r="1" gradientUnits="userSpaceOnUse" gradientTransform="translate(112.446 35.4458) rotate(90) scale(3.14317)">
<stop stop-color="white"/>
<stop offset="1" stop-color="white" stop-opacity="0"/>
</radialGradient>
<radialGradient id="paint5_radial_373_8087" cx="0" cy="0" r="1" gradientUnits="userSpaceOnUse" gradientTransform="translate(112.446 35.4459) rotate(90) scale(1.8859)">
<stop stop-color="white"/>
<stop offset="1" stop-color="white" stop-opacity="0"/>
</radialGradient>
<radialGradient id="paint6_radial_373_8087" cx="0" cy="0" r="1" gradientUnits="userSpaceOnUse" gradientTransform="translate(112.446 35.4459) rotate(90) scale(1.25727)">
<stop stop-color="white"/>
<stop offset="1" stop-color="white" stop-opacity="0"/>
</radialGradient>
<radialGradient id="paint7_radial_373_8087" cx="0" cy="0" r="1" gradientUnits="userSpaceOnUse" gradientTransform="translate(189.209 37.4578) rotate(90) scale(1.42296)">
<stop stop-color="white"/>
<stop offset="1" stop-color="white" stop-opacity="0"/>
</radialGradient>
<radialGradient id="paint8_radial_373_8087" cx="0" cy="0" r="1" gradientUnits="userSpaceOnUse" gradientTransform="translate(189.209 37.4578) rotate(90) scale(0.853774)">
<stop stop-color="white"/>
<stop offset="1" stop-color="white" stop-opacity="0"/>
</radialGradient>
<radialGradient id="paint9_radial_373_8087" cx="0" cy="0" r="1" gradientUnits="userSpaceOnUse" gradientTransform="translate(189.209 37.4578) rotate(90) scale(0.569183)">
<stop stop-color="white"/>
<stop offset="1" stop-color="white" stop-opacity="0"/>
</radialGradient>
<radialGradient id="paint10_radial_373_8087" cx="0" cy="0" r="1" gradientUnits="userSpaceOnUse" gradientTransform="translate(299.544 67.4995) rotate(90) scale(1.42296)">
<stop stop-color="white"/>
<stop offset="1" stop-color="white" stop-opacity="0"/>
</radialGradient>
<radialGradient id="paint11_radial_373_8087" cx="0" cy="0" r="1" gradientUnits="userSpaceOnUse" gradientTransform="translate(299.544 67.4995) rotate(90) scale(0.853774)">
<stop stop-color="white"/>
<stop offset="1" stop-color="white" stop-opacity="0"/>
</radialGradient>
<radialGradient id="paint12_radial_373_8087" cx="0" cy="0" r="1" gradientUnits="userSpaceOnUse" gradientTransform="translate(299.544 67.4995) rotate(90) scale(0.569183)">
<stop stop-color="white"/>
<stop offset="1" stop-color="white" stop-opacity="0"/>
</radialGradient>
<radialGradient id="paint13_radial_373_8087" cx="0" cy="0" r="1" gradientUnits="userSpaceOnUse" gradientTransform="translate(262.402 30.9032) rotate(90) scale(1.42296)">
<stop stop-color="white"/>
<stop offset="1" stop-color="white" stop-opacity="0"/>
</radialGradient>
<radialGradient id="paint14_radial_373_8087" cx="0" cy="0" r="1" gradientUnits="userSpaceOnUse" gradientTransform="translate(262.402 30.9032) rotate(90) scale(0.853774)">
<stop stop-color="white"/>
<stop offset="1" stop-color="white" stop-opacity="0"/>
</radialGradient>
<radialGradient id="paint15_radial_373_8087" cx="0" cy="0" r="1" gradientUnits="userSpaceOnUse" gradientTransform="translate(262.402 30.9032) rotate(90) scale(0.569183)">
<stop stop-color="white"/>
<stop offset="1" stop-color="white" stop-opacity="0"/>
</radialGradient>
<radialGradient id="paint16_radial_373_8087" cx="0" cy="0" r="1" gradientUnits="userSpaceOnUse" gradientTransform="translate(273.326 88.2557) rotate(90) scale(1.42296)">
<stop stop-color="white"/>
<stop offset="1" stop-color="white" stop-opacity="0"/>
</radialGradient>
<radialGradient id="paint17_radial_373_8087" cx="0" cy="0" r="1" gradientUnits="userSpaceOnUse" gradientTransform="translate(273.326 88.2556) rotate(90) scale(0.853774)">
<stop stop-color="white"/>
<stop offset="1" stop-color="white" stop-opacity="0"/>
</radialGradient>
<radialGradient id="paint18_radial_373_8087" cx="0" cy="0" r="1" gradientUnits="userSpaceOnUse" gradientTransform="translate(273.326 88.2556) rotate(90) scale(0.569183)">
<stop stop-color="white"/>
<stop offset="1" stop-color="white" stop-opacity="0"/>
</radialGradient>
<linearGradient id="paint19_linear_373_8087" x1="147.317" y1="30.5119" x2="170.903" y2="118.514" gradientUnits="userSpaceOnUse">
<stop stop-color="#E9A1EC" stop-opacity="0.7"/>
<stop offset="0.05" stop-color="#E187E4" stop-opacity="0.57"/>
<stop offset="0.12" stop-color="#D660D8" stop-opacity="0.37"/>
<stop offset="0.18" stop-color="#CC40CF" stop-opacity="0.21"/>
<stop offset="0.24" stop-color="#C62AC8" stop-opacity="0.09"/>
<stop offset="0.3" stop-color="#C21CC4" stop-opacity="0.02"/>
<stop offset="0.34" stop-color="#C118C3" stop-opacity="0"/>
<stop offset="0.5" stop-color="#C320C5" stop-opacity="0.05"/>
<stop offset="0.63" stop-color="#C422C6" stop-opacity="0.1"/>
<stop offset="0.79" stop-color="#D96EDC" stop-opacity="0.48"/>
<stop offset="1" stop-color="#F7D6FC"/>
</linearGradient>
<radialGradient id="paint20_angular_373_8087" cx="0" cy="0" r="1" gradientUnits="userSpaceOnUse" gradientTransform="translate(160.919 80.5587) rotate(44.8266) scale(39.5233 39.5225)">
<stop stop-color="#06070A"/>
<stop offset="0.359375" stop-color="white"/>
</radialGradient>
<radialGradient id="paint21_angular_373_8087" cx="0" cy="0" r="1" gradientUnits="userSpaceOnUse" gradientTransform="translate(162.061 82.3265) rotate(90) scale(32.7928 44.0891)">
<stop offset="0.276042" stop-color="#DB00FF"/>
<stop offset="1" stop-color="white" stop-opacity="0"/>
</radialGradient>
<radialGradient id="paint22_angular_373_8087" cx="0" cy="0" r="1" gradientUnits="userSpaceOnUse" gradientTransform="translate(159.684 81.6334) rotate(-14.8774) scale(33.0554 43.7374)">
<stop offset="0.276042" stop-color="#DB00FF"/>
<stop offset="1" stop-color="white" stop-opacity="0"/>
</radialGradient>
<radialGradient id="paint23_radial_373_8087" cx="0" cy="0" r="1" gradientUnits="userSpaceOnUse" gradientTransform="translate(183.747 130.86) rotate(90) scale(3.45575)">
<stop stop-color="white"/>
<stop offset="1" stop-color="white" stop-opacity="0"/>
</radialGradient>
<radialGradient id="paint24_radial_373_8087" cx="0" cy="0" r="1" gradientUnits="userSpaceOnUse" gradientTransform="translate(183.747 130.86) rotate(90) scale(2.07345)">
<stop stop-color="white"/>
<stop offset="1" stop-color="white" stop-opacity="0"/>
</radialGradient>
<radialGradient id="paint25_radial_373_8087" cx="0" cy="0" r="1" gradientUnits="userSpaceOnUse" gradientTransform="translate(183.747 130.86) rotate(90) scale(1.3823)">
<stop stop-color="white"/>
<stop offset="1" stop-color="white" stop-opacity="0"/>
</radialGradient>
<clipPath id="clip0_373_8087">
<rect width="101" height="80" fill="white" transform="translate(109 41.1459)"/>
</clipPath>
</defs>
</svg>
