<svg width="320" height="210" viewBox="0 0 320 210" fill="none" xmlns="http://www.w3.org/2000/svg">
<rect width="322" height="260" fill="url(#paint0_radial_373_7804)" fill-opacity="0.4"/>
<circle opacity="0.45" cx="263.205" cy="58.4123" r="3.20446" transform="rotate(45 263.205 58.4123)" fill="url(#paint1_radial_373_7804)"/>
<circle opacity="0.5" cx="263.205" cy="58.4123" r="1.92268" transform="rotate(45 263.205 58.4123)" fill="url(#paint2_radial_373_7804)"/>
<circle cx="263.205" cy="58.4123" r="1.28178" transform="rotate(45 263.205 58.4123)" fill="url(#paint3_radial_373_7804)"/>
<path d="M267.51 54.1071L263.432 58.6389L258.9 62.7175L262.978 58.1857L267.51 54.1071Z" fill="white"/>
<path d="M267.51 62.7175L262.978 58.6389L258.9 54.1071L263.432 58.1857L267.51 62.7175Z" fill="white"/>
<g opacity="0.3">
<circle opacity="0.45" cx="178.838" cy="42.4217" r="1.41373" transform="rotate(45 178.838 42.4217)" fill="url(#paint4_radial_373_7804)"/>
<circle opacity="0.5" cx="178.838" cy="42.4216" r="0.848239" transform="rotate(45 178.838 42.4216)" fill="url(#paint5_radial_373_7804)"/>
<circle cx="178.838" cy="42.4217" r="0.565493" transform="rotate(45 178.838 42.4217)" fill="url(#paint6_radial_373_7804)"/>
<path d="M180.737 40.5223L178.938 42.5216L176.939 44.321L178.738 42.3217L180.737 40.5223Z" fill="white"/>
<path d="M180.737 44.321L178.738 42.5216L176.939 40.5223L178.938 42.3217L180.737 44.321Z" fill="white"/>
</g>
<g opacity="0.5">
<circle opacity="0.45" cx="119.519" cy="81.3623" r="2.46466" transform="rotate(45 119.519 81.3623)" fill="url(#paint7_radial_373_7804)"/>
<circle opacity="0.5" cx="119.519" cy="81.3623" r="1.4788" transform="rotate(45 119.519 81.3623)" fill="url(#paint8_radial_373_7804)"/>
<circle cx="119.519" cy="81.3624" r="0.985864" transform="rotate(45 119.519 81.3624)" fill="url(#paint9_radial_373_7804)"/>
<path d="M122.83 78.051L119.693 81.5366L116.207 84.6736L119.344 81.188L122.83 78.051Z" fill="white"/>
<path d="M122.83 84.6736L119.344 81.5366L116.207 78.051L119.693 81.188L122.83 84.6736Z" fill="white"/>
</g>
<circle opacity="0.45" cx="97.5454" cy="44.1943" r="1.31948" transform="rotate(45 97.5454 44.1943)" fill="url(#paint10_radial_373_7804)"/>
<circle opacity="0.5" cx="97.5454" cy="44.1942" r="0.79169" transform="rotate(45 97.5454 44.1942)" fill="url(#paint11_radial_373_7804)"/>
<circle cx="97.5454" cy="44.1943" r="0.527793" transform="rotate(45 97.5454 44.1943)" fill="url(#paint12_radial_373_7804)"/>
<path d="M99.3181 42.4215L97.6387 44.2876L95.7727 45.967L97.4521 44.101L99.3181 42.4215Z" fill="white"/>
<path d="M99.3181 45.967L97.4521 44.2876L95.7727 42.4215L97.6387 44.101L99.3181 45.967Z" fill="white"/>
<circle opacity="0.45" cx="285.455" cy="66.48" r="1.31948" transform="rotate(45 285.455 66.48)" fill="url(#paint13_radial_373_7804)"/>
<circle opacity="0.5" cx="285.455" cy="66.48" r="0.79169" transform="rotate(45 285.455 66.48)" fill="url(#paint14_radial_373_7804)"/>
<circle cx="285.455" cy="66.4801" r="0.527793" transform="rotate(45 285.455 66.4801)" fill="url(#paint15_radial_373_7804)"/>
<path d="M287.227 64.7073L285.548 66.5733L283.682 68.2528L285.361 66.3867L287.227 64.7073Z" fill="white"/>
<path d="M287.227 68.2528L285.361 66.5733L283.682 64.7073L285.548 66.3867L287.227 68.2528Z" fill="white"/>
<g opacity="0.3">
<circle opacity="0.45" cx="251.013" cy="32.545" r="1.31948" transform="rotate(45 251.013 32.545)" fill="url(#paint16_radial_373_7804)"/>
<circle opacity="0.5" cx="251.013" cy="32.5449" r="0.79169" transform="rotate(45 251.013 32.5449)" fill="url(#paint17_radial_373_7804)"/>
<circle cx="251.013" cy="32.545" r="0.527793" transform="rotate(45 251.013 32.545)" fill="url(#paint18_radial_373_7804)"/>
<path d="M252.786 30.7722L251.106 32.6383L249.24 34.3177L250.92 32.4517L252.786 30.7722Z" fill="white"/>
<path d="M252.786 34.3177L250.92 32.6383L249.24 30.7722L251.106 32.4517L252.786 34.3177Z" fill="white"/>
</g>
<g opacity="0.3">
<circle opacity="0.45" cx="261.143" cy="85.7269" r="1.31948" transform="rotate(45 261.143 85.7269)" fill="url(#paint19_radial_373_7804)"/>
<circle opacity="0.5" cx="261.143" cy="85.7268" r="0.79169" transform="rotate(45 261.143 85.7268)" fill="url(#paint20_radial_373_7804)"/>
<circle cx="261.143" cy="85.7269" r="0.527793" transform="rotate(45 261.143 85.7269)" fill="url(#paint21_radial_373_7804)"/>
<path d="M262.916 83.9541L261.236 85.8202L259.37 87.4996L261.05 85.6336L262.916 83.9541Z" fill="white"/>
<path d="M262.916 87.4996L261.05 85.8202L259.37 83.9541L261.236 85.6336L262.916 87.4996Z" fill="white"/>
</g>
<mask id="mask0_373_7804" style="mask-type:alpha" maskUnits="userSpaceOnUse" x="124" y="38" width="69" height="71">
<rect x="124.62" y="38.2845" width="67.4351" height="69.8293" fill="url(#paint22_linear_373_7804)"/>
</mask>
<g mask="url(#mask0_373_7804)">
</g>
<g clip-path="url(#clip0_373_7804)">
<path style="mix-blend-mode:soft-light" d="M191.805 72.3855L191.669 120.943C191.669 121.097 191.652 121.236 191.619 121.36C191.609 121.416 191.591 121.469 191.571 121.517C191.531 121.623 191.481 121.714 191.415 121.789C191.402 121.807 191.385 121.825 191.37 121.84C191.362 121.85 191.357 121.857 191.347 121.86C191.329 121.88 191.314 121.893 191.292 121.908C191.269 121.928 191.244 121.946 191.221 121.958C190.929 122.143 190.516 122.123 190.066 121.86L121.425 82.1163C120.541 81.6037 119.829 80.364 119.831 79.344L119.967 30.786C119.97 30.2482 120.173 29.8746 120.498 29.7256C120.526 29.7155 120.554 29.7029 120.579 29.6953C120.599 29.6877 120.624 29.6827 120.644 29.6776C120.679 29.6675 120.712 29.6599 120.747 29.6574C120.78 29.6549 120.815 29.6498 120.851 29.6498C121.067 29.6473 121.316 29.718 121.578 29.867L190.217 69.6157C191.1 70.1283 191.81 71.3654 191.808 72.383L191.805 72.3855Z" fill="url(#paint23_linear_373_7804)"/>
<path style="mix-blend-mode:soft-light" opacity="0.5" d="M191.805 72.3855L191.669 120.943C191.669 121.097 191.652 121.236 191.619 121.36C191.609 121.416 191.591 121.469 191.571 121.517C191.531 121.623 191.481 121.714 191.415 121.789C191.402 121.807 191.385 121.825 191.37 121.84C191.362 121.85 191.357 121.857 191.347 121.86C191.329 121.88 191.314 121.893 191.292 121.908C191.269 121.928 191.244 121.946 191.221 121.958C190.929 122.143 190.516 122.123 190.066 121.86L121.425 82.1163C120.541 81.6037 119.829 80.364 119.831 79.344L119.967 30.786C119.97 30.2482 120.173 29.8746 120.498 29.7256C120.526 29.7155 120.554 29.7029 120.579 29.6953C120.599 29.6877 120.624 29.6827 120.644 29.6776C120.679 29.6675 120.712 29.6599 120.747 29.6574C120.78 29.6549 120.815 29.6498 120.851 29.6498C121.067 29.6473 121.316 29.718 121.578 29.867L190.217 69.6157C191.1 70.1283 191.81 71.3654 191.808 72.383L191.805 72.3855Z" fill="url(#paint24_linear_373_7804)"/>
<g style="mix-blend-mode:soft-light">
<path d="M192.054 72.2416L191.916 120.8C191.916 121.304 191.735 121.663 191.45 121.83L191.206 121.974C191.206 121.974 191.216 121.966 191.224 121.961C191.246 121.948 191.271 121.931 191.294 121.91C191.314 121.898 191.332 121.883 191.349 121.862C191.36 121.86 191.367 121.852 191.372 121.842C191.385 121.825 191.402 121.809 191.417 121.792C191.483 121.716 191.533 121.625 191.573 121.519C191.594 121.471 191.611 121.416 191.621 121.363C191.654 121.239 191.672 121.1 191.672 120.946L191.808 72.388C191.81 71.368 191.1 70.1308 190.217 69.6208L121.575 29.867C121.314 29.718 121.064 29.6448 120.848 29.6499C120.813 29.6499 120.78 29.6524 120.745 29.6575C120.709 29.66 120.677 29.6676 120.641 29.6777C120.619 29.6802 120.596 29.6852 120.576 29.6953C120.548 29.7029 120.521 29.7155 120.495 29.7256C120.475 29.7357 120.455 29.7458 120.435 29.7559L120.679 29.612C120.971 29.4454 121.372 29.4681 121.817 29.7256L190.456 69.4744C191.339 69.9869 192.049 71.2241 192.049 72.2416H192.054Z" fill="white"/>
</g>
<g style="mix-blend-mode:hard-light" opacity="0.7">
<path d="M129.299 61.242L129.286 65.2894L128.896 65.0621L128.904 62.1787C128.904 61.9389 128.911 61.7142 128.926 61.5071C128.894 61.5273 128.853 61.545 128.813 61.5652C128.773 61.5854 128.582 61.6536 128.242 61.7748L128.03 61.3354L128.964 61.0476L129.302 61.242H129.299Z" fill="url(#paint25_linear_373_7804)"/>
<path d="M133.302 64.0295C133.498 64.4991 133.596 65.0748 133.594 65.7489C133.591 66.423 133.495 66.9154 133.302 67.1477C133.108 67.38 132.816 67.385 132.421 67.1552C132.025 66.9255 131.756 66.5947 131.56 66.1251C131.363 65.658 131.268 65.0849 131.268 64.4006C131.268 63.7164 131.366 63.2291 131.557 62.9943C131.748 62.7645 132.04 62.7595 132.431 62.9867C132.821 63.2139 133.1 63.5548 133.297 64.0244L133.302 64.0295ZM133.002 66.6907C133.123 66.4862 133.183 66.0948 133.186 65.5141C133.188 64.9334 133.128 64.4713 133.01 64.1305C132.891 63.7921 132.7 63.5447 132.433 63.3907C132.166 63.2367 131.98 63.2594 131.859 63.4589C131.736 63.6533 131.678 64.0471 131.675 64.638C131.673 65.2288 131.731 65.6908 131.852 66.0266C131.97 66.3624 132.161 66.6099 132.423 66.7614C132.685 66.9129 132.881 66.8927 133.002 66.6881" fill="url(#paint26_linear_373_7804)"/>
<path d="M136.753 66.0292C136.949 66.4988 137.045 67.0719 137.045 67.7486C137.045 68.4253 136.947 68.9151 136.753 69.1474C136.559 69.3797 136.267 69.3847 135.874 69.1575C135.482 68.9302 135.21 68.597 135.011 68.1273C134.817 67.6628 134.719 67.0871 134.719 66.4029C134.719 65.7186 134.817 65.2313 135.011 64.999C135.202 64.7693 135.494 64.7642 135.884 64.9915C136.274 65.2187 136.554 65.5596 136.75 66.0292H136.753ZM136.453 68.6904C136.574 68.4859 136.632 68.092 136.634 67.5138C136.637 66.9356 136.579 66.471 136.461 66.1327C136.342 65.7944 136.149 65.5469 135.884 65.3929C135.62 65.2389 135.431 65.2616 135.308 65.4611C135.187 65.658 135.127 66.0494 135.124 66.6402C135.122 67.231 135.182 67.6931 135.3 68.0314C135.421 68.3697 135.612 68.6146 135.874 68.7661C136.136 68.9176 136.332 68.8974 136.453 68.6929" fill="url(#paint27_linear_373_7804)"/>
<path d="M141.568 68.3469L141.556 72.3943L141.168 72.1695L141.176 69.2862C141.176 69.0463 141.183 68.8216 141.198 68.6146C141.166 68.6347 141.125 68.6524 141.085 68.6726C141.045 68.6903 140.854 68.761 140.514 68.8822L140.302 68.4429L141.236 68.155L141.571 68.3494L141.568 68.3469Z" fill="url(#paint28_linear_373_7804)"/>
<path d="M144.647 70.0714C144.977 70.2633 145.237 70.5107 145.423 70.8112C145.609 71.1142 145.702 71.4298 145.7 71.758C145.7 72.0155 145.637 72.2327 145.511 72.4119C145.385 72.5887 145.151 72.773 144.806 72.9573L144.036 73.3815V73.4042L145.841 74.4495V74.8737L143.53 73.5355V73.1391L144.459 72.6013C144.741 72.4372 144.929 72.311 145.018 72.2226C145.108 72.1342 145.176 72.0383 145.221 71.9297C145.267 71.8237 145.289 71.6924 145.289 71.5409C145.289 71.3263 145.234 71.1217 145.121 70.9299C145.005 70.7354 144.849 70.5814 144.647 70.4653C144.499 70.3794 144.363 70.3289 144.232 70.3087C144.099 70.286 143.955 70.3037 143.794 70.3592L143.583 69.9224C143.907 69.7987 144.262 69.8492 144.64 70.0689L144.647 70.0714Z" fill="url(#paint29_linear_373_7804)"/>
<path d="M148.094 72.0686C148.433 72.2656 148.698 72.5105 148.886 72.7983C149.075 73.0862 149.168 73.3891 149.168 73.7022C149.168 73.9598 149.103 74.134 148.977 74.2249C148.851 74.3158 148.673 74.3233 148.441 74.2451V74.2678C148.723 74.4723 148.934 74.6945 149.068 74.9419C149.204 75.1868 149.272 75.4418 149.269 75.712C149.269 76.0983 149.153 76.3281 148.919 76.4013C148.688 76.4745 148.355 76.3861 147.93 76.1387C147.744 76.0301 147.575 75.9165 147.419 75.7953C147.265 75.6741 147.114 75.5277 146.968 75.3636V74.9268C147.122 75.1035 147.283 75.2626 147.454 75.4065C147.628 75.5529 147.791 75.6691 147.945 75.7574C148.552 76.1084 148.856 76.0125 148.856 75.462C148.856 74.9722 148.524 74.5329 147.854 74.1441L147.509 73.9446V73.5482L147.862 73.7527C148.136 73.9118 148.353 73.9673 148.514 73.9194C148.673 73.8714 148.753 73.7249 148.753 73.4775C148.753 73.2806 148.695 73.0912 148.579 72.9094C148.464 72.7302 148.302 72.5812 148.101 72.465C147.948 72.3767 147.802 72.3135 147.666 72.2858C147.53 72.253 147.371 72.2504 147.197 72.2807L146.996 71.854C147.139 71.8035 147.308 71.7985 147.497 71.8338C147.683 71.8692 147.885 71.9474 148.091 72.0686H148.094Z" fill="url(#paint30_linear_373_7804)"/>
<path d="M152.394 77.3178L152.915 77.6182V78.0348L152.394 77.7344V78.666L152.008 78.4439V77.5122L150.304 76.5224V76.1235L151.981 74.3511L152.404 74.596L152.396 77.3178H152.394ZM152.016 75.7498C152.016 75.4873 152.026 75.1919 152.041 74.8712L152.024 74.8611C151.946 74.9899 151.873 75.0959 151.805 75.1767L150.702 76.3381L152.011 77.0956L152.016 75.7498Z" fill="url(#paint31_linear_373_7804)"/>
<path d="M161.323 81.6428C161.504 81.9685 161.595 82.3195 161.595 82.6957C161.595 83.1148 161.494 83.3875 161.292 83.5163C161.091 83.64 160.822 83.6046 160.482 83.4077C160.119 83.1981 159.832 82.8724 159.618 82.4356C159.407 81.9988 159.301 81.5014 159.304 80.9384C159.304 80.1431 159.44 79.6255 159.709 79.3881C159.978 79.1483 160.374 79.1836 160.9 79.4866C161.081 79.5926 161.222 79.6911 161.328 79.7871V80.1835C161.204 80.0648 161.063 79.9613 160.905 79.8704C160.527 79.6507 160.24 79.6204 160.039 79.7744C159.84 79.9335 159.732 80.292 159.709 80.8626L159.737 80.8778C159.913 80.6632 160.195 80.6657 160.573 80.8854C160.89 81.0697 161.136 81.3222 161.318 81.6453L161.323 81.6428ZM161.008 83.0744C161.134 82.981 161.197 82.7815 161.199 82.4685C161.199 82.2008 161.141 81.9559 161.026 81.7362C160.91 81.5141 160.736 81.3373 160.502 81.2035C160.356 81.1202 160.225 81.0773 160.104 81.0773C159.986 81.0773 159.888 81.1151 159.817 81.1934C159.744 81.2691 159.712 81.3752 159.709 81.504C159.709 81.6933 159.739 81.8903 159.802 82.0922C159.868 82.2917 159.956 82.4735 160.074 82.6401C160.19 82.8043 160.326 82.928 160.474 83.0163C160.703 83.1476 160.877 83.1678 161.005 83.0744" fill="url(#paint32_linear_373_7804)"/>
<path d="M168.303 86.2305C168.421 86.4729 168.482 86.7077 168.482 86.9349C168.482 87.2708 168.379 87.4778 168.175 87.5611C167.973 87.6444 167.691 87.5813 167.339 87.3768C166.966 87.1597 166.677 86.8996 166.475 86.5941C166.274 86.2861 166.173 85.9604 166.173 85.6119C166.173 85.1499 166.42 84.9302 166.911 84.9555C166.689 84.6853 166.531 84.4379 166.438 84.2157C166.345 83.9935 166.294 83.7764 166.294 83.5718C166.294 83.2764 166.392 83.0997 166.579 83.0315C166.767 82.9684 167.019 83.0265 167.336 83.2108C167.654 83.3951 167.91 83.6274 168.094 83.9076C168.283 84.1879 168.376 84.4783 168.374 84.7812C168.374 84.9807 168.318 85.1297 168.212 85.2332C168.104 85.3342 167.93 85.3847 167.696 85.3822C167.981 85.7053 168.185 85.9881 168.303 86.228V86.2305ZM167.888 87.1268C168.021 87.0763 168.087 86.9349 168.087 86.7102C168.087 86.531 168.026 86.3366 167.9 86.1245C167.777 85.9124 167.558 85.6498 167.248 85.3418C167.009 85.3216 166.835 85.3519 166.73 85.4327C166.624 85.516 166.569 85.6548 166.569 85.8543C166.569 86.074 166.634 86.2861 166.767 86.488C166.901 86.6875 167.087 86.8592 167.331 87.0006C167.576 87.142 167.754 87.1799 167.89 87.1294M166.828 84.3369C166.924 84.5136 167.097 84.7383 167.349 85.0085C167.578 85.0287 167.742 85.006 167.837 84.9327C167.93 84.8595 167.978 84.7358 167.981 84.5692C167.981 84.3823 167.925 84.2005 167.81 84.0238C167.694 83.8471 167.535 83.6981 167.331 83.5819C167.127 83.4658 166.976 83.4305 166.861 83.4734C166.747 83.5213 166.689 83.635 166.689 83.8218C166.689 83.9884 166.737 84.1652 166.83 84.3394" fill="url(#paint33_linear_373_7804)"/>
<path d="M173.703 87.7277C173.799 88.0534 173.844 88.4018 173.844 88.7679C173.839 90.351 173.305 90.8332 172.243 90.2172C172.059 90.1111 171.911 90.0076 171.803 89.9066V89.5102C171.931 89.6314 172.077 89.74 172.241 89.8359C172.626 90.0581 172.915 90.0884 173.112 89.9268C173.31 89.7678 173.416 89.4092 173.436 88.8512L173.409 88.8361C173.318 88.9371 173.202 88.9876 173.056 88.9825C172.91 88.9775 172.747 88.9245 172.563 88.8184C172.253 88.6391 172.006 88.3892 171.823 88.0685C171.641 87.7479 171.551 87.3969 171.551 87.0131C171.551 86.594 171.654 86.3188 171.86 86.1951C172.064 86.0689 172.334 86.1042 172.668 86.2986C172.908 86.4375 173.117 86.6268 173.293 86.8718C173.472 87.1167 173.607 87.402 173.703 87.7277ZM173.336 88.518C173.406 88.4397 173.441 88.3387 173.441 88.2074C173.441 88.013 173.409 87.816 173.346 87.6141C173.28 87.4146 173.19 87.2303 173.071 87.0662C172.955 86.9046 172.82 86.7809 172.668 86.6925C172.439 86.5587 172.263 86.5435 172.135 86.6395C172.011 86.7354 171.946 86.9374 171.946 87.2404C171.946 87.5055 172.001 87.7479 172.115 87.9675C172.23 88.1872 172.404 88.3639 172.641 88.5003C172.787 88.5836 172.92 88.6265 173.044 88.6316C173.167 88.6366 173.263 88.5962 173.336 88.5205" fill="url(#paint34_linear_373_7804)"/>
<path d="M180.475 91.3484C180.671 91.818 180.767 92.3911 180.764 93.0678C180.764 93.7646 180.666 94.2343 180.472 94.4666C180.278 94.6988 179.986 94.7039 179.591 94.4741C179.196 94.2444 178.926 93.9136 178.73 93.444C178.534 92.9769 178.438 92.4037 178.438 91.7195C178.438 91.0151 178.536 90.548 178.73 90.3157C178.919 90.0859 179.211 90.0809 179.601 90.3081C179.991 90.5354 180.271 90.8762 180.47 91.3484H180.475ZM180.175 94.0096C180.296 93.805 180.354 93.4112 180.356 92.833C180.359 92.2548 180.301 91.7902 180.183 91.4519C180.064 91.1135 179.87 90.8661 179.604 90.7121C179.337 90.5581 179.15 90.5808 179.03 90.7803C178.909 90.9772 178.848 91.3686 178.846 91.9594C178.843 92.5502 178.904 93.0122 179.022 93.348C179.14 93.6838 179.332 93.9313 179.593 94.0828C179.855 94.2343 180.054 94.2141 180.175 94.0096Z" fill="url(#paint35_linear_373_7804)"/>
<path d="M183.375 92.5553L183.362 96.6026L182.974 96.3779L182.982 93.4945C182.982 93.2547 182.989 93.03 183.005 92.8229C182.969 92.8431 182.932 92.8608 182.891 92.881C182.849 92.8987 182.66 92.9694 182.317 93.0906L182.108 92.6538L183.04 92.3634L183.377 92.5578L183.375 92.5553Z" fill="url(#paint36_linear_373_7804)"/>
<path d="M157.858 77.7798V78.2015L156.454 77.3885L156.361 78.5524C156.542 78.6156 156.728 78.7014 156.909 78.8075C157.279 79.0221 157.571 79.2948 157.78 79.628C157.992 79.9638 158.098 80.3123 158.098 80.6809C158.098 81.1 157.979 81.3626 157.748 81.4661C157.514 81.5722 157.196 81.504 156.789 81.2692C156.381 81.0344 156.091 80.792 155.885 80.5269V80.085C155.996 80.2315 156.137 80.3779 156.303 80.5218C156.469 80.6657 156.635 80.7844 156.796 80.8778C157.078 81.0419 157.297 81.0899 157.453 81.0293C157.609 80.9662 157.69 80.7895 157.69 80.4991C157.69 79.9361 157.39 79.4791 156.791 79.1332C156.64 79.0448 156.436 78.9514 156.182 78.8605L155.973 78.5878L156.111 76.7699L157.858 77.7824V77.7798Z" fill="url(#paint37_linear_373_7804)"/>
<path d="M176.472 88.5583L176.46 92.6057L176.072 92.381L176.08 89.4976C176.08 89.2577 176.087 89.033 176.1 88.826C176.067 88.8462 176.029 88.8664 175.986 88.8841C175.946 88.9017 175.755 88.9724 175.415 89.0936L175.206 88.6568L176.137 88.3665L176.475 88.5609L176.472 88.5583Z" fill="url(#paint38_linear_373_7804)"/>
</g>
<path d="M191.669 120.943L191.637 110.978L191.642 101.012L191.654 81.081L191.679 76.0995L191.692 73.6075L191.697 72.3627C191.692 71.9663 191.586 71.5699 191.423 71.2013C191.259 70.8326 191.035 70.4893 190.763 70.1939C190.625 70.0474 190.474 69.9136 190.312 69.8C190.151 69.6914 189.963 69.5904 189.786 69.4844L187.639 68.2346L183.342 65.735L174.748 60.7332L166.173 55.6962L174.808 60.6247L183.425 65.5885L187.732 68.0705L189.887 69.3127C190.068 69.4187 190.244 69.5122 190.428 69.6333C190.604 69.7571 190.766 69.901 190.914 70.055C191.204 70.3681 191.44 70.7291 191.616 71.118C191.79 71.5068 191.906 71.9284 191.913 72.3627V73.61V76.102L191.908 81.0835L191.81 101.015L191.76 110.98L191.672 120.946L191.669 120.943Z" fill="white"/>
</g>
<defs>
<radialGradient id="paint0_radial_373_7804" cx="0" cy="0" r="1" gradientUnits="userSpaceOnUse" gradientTransform="translate(140 68.8409) rotate(36.9989) scale(161.523 104.467)">
<stop stop-color="#34DDB4"/>
<stop offset="1" stop-opacity="0"/>
</radialGradient>
<radialGradient id="paint1_radial_373_7804" cx="0" cy="0" r="1" gradientUnits="userSpaceOnUse" gradientTransform="translate(263.205 58.4123) rotate(90) scale(3.20446)">
<stop stop-color="white"/>
<stop offset="1" stop-color="white" stop-opacity="0"/>
</radialGradient>
<radialGradient id="paint2_radial_373_7804" cx="0" cy="0" r="1" gradientUnits="userSpaceOnUse" gradientTransform="translate(263.205 58.4123) rotate(90) scale(1.92268)">
<stop stop-color="white"/>
<stop offset="1" stop-color="white" stop-opacity="0"/>
</radialGradient>
<radialGradient id="paint3_radial_373_7804" cx="0" cy="0" r="1" gradientUnits="userSpaceOnUse" gradientTransform="translate(263.205 58.4123) rotate(90) scale(1.28178)">
<stop stop-color="white"/>
<stop offset="1" stop-color="white" stop-opacity="0"/>
</radialGradient>
<radialGradient id="paint4_radial_373_7804" cx="0" cy="0" r="1" gradientUnits="userSpaceOnUse" gradientTransform="translate(178.838 42.4217) rotate(90) scale(1.41373)">
<stop stop-color="white"/>
<stop offset="1" stop-color="white" stop-opacity="0"/>
</radialGradient>
<radialGradient id="paint5_radial_373_7804" cx="0" cy="0" r="1" gradientUnits="userSpaceOnUse" gradientTransform="translate(178.838 42.4216) rotate(90) scale(0.848239)">
<stop stop-color="white"/>
<stop offset="1" stop-color="white" stop-opacity="0"/>
</radialGradient>
<radialGradient id="paint6_radial_373_7804" cx="0" cy="0" r="1" gradientUnits="userSpaceOnUse" gradientTransform="translate(178.838 42.4217) rotate(90) scale(0.565493)">
<stop stop-color="white"/>
<stop offset="1" stop-color="white" stop-opacity="0"/>
</radialGradient>
<radialGradient id="paint7_radial_373_7804" cx="0" cy="0" r="1" gradientUnits="userSpaceOnUse" gradientTransform="translate(119.519 81.3623) rotate(90) scale(2.46466)">
<stop stop-color="white"/>
<stop offset="1" stop-color="white" stop-opacity="0"/>
</radialGradient>
<radialGradient id="paint8_radial_373_7804" cx="0" cy="0" r="1" gradientUnits="userSpaceOnUse" gradientTransform="translate(119.519 81.3623) rotate(90) scale(1.4788)">
<stop stop-color="white"/>
<stop offset="1" stop-color="white" stop-opacity="0"/>
</radialGradient>
<radialGradient id="paint9_radial_373_7804" cx="0" cy="0" r="1" gradientUnits="userSpaceOnUse" gradientTransform="translate(119.519 81.3624) rotate(90) scale(0.985864)">
<stop stop-color="white"/>
<stop offset="1" stop-color="white" stop-opacity="0"/>
</radialGradient>
<radialGradient id="paint10_radial_373_7804" cx="0" cy="0" r="1" gradientUnits="userSpaceOnUse" gradientTransform="translate(97.5454 44.1943) rotate(90) scale(1.31948)">
<stop stop-color="white"/>
<stop offset="1" stop-color="white" stop-opacity="0"/>
</radialGradient>
<radialGradient id="paint11_radial_373_7804" cx="0" cy="0" r="1" gradientUnits="userSpaceOnUse" gradientTransform="translate(97.5454 44.1942) rotate(90) scale(0.79169)">
<stop stop-color="white"/>
<stop offset="1" stop-color="white" stop-opacity="0"/>
</radialGradient>
<radialGradient id="paint12_radial_373_7804" cx="0" cy="0" r="1" gradientUnits="userSpaceOnUse" gradientTransform="translate(97.5454 44.1943) rotate(90) scale(0.527793)">
<stop stop-color="white"/>
<stop offset="1" stop-color="white" stop-opacity="0"/>
</radialGradient>
<radialGradient id="paint13_radial_373_7804" cx="0" cy="0" r="1" gradientUnits="userSpaceOnUse" gradientTransform="translate(285.455 66.48) rotate(90) scale(1.31948)">
<stop stop-color="white"/>
<stop offset="1" stop-color="white" stop-opacity="0"/>
</radialGradient>
<radialGradient id="paint14_radial_373_7804" cx="0" cy="0" r="1" gradientUnits="userSpaceOnUse" gradientTransform="translate(285.455 66.48) rotate(90) scale(0.79169)">
<stop stop-color="white"/>
<stop offset="1" stop-color="white" stop-opacity="0"/>
</radialGradient>
<radialGradient id="paint15_radial_373_7804" cx="0" cy="0" r="1" gradientUnits="userSpaceOnUse" gradientTransform="translate(285.455 66.4801) rotate(90) scale(0.527793)">
<stop stop-color="white"/>
<stop offset="1" stop-color="white" stop-opacity="0"/>
</radialGradient>
<radialGradient id="paint16_radial_373_7804" cx="0" cy="0" r="1" gradientUnits="userSpaceOnUse" gradientTransform="translate(251.013 32.545) rotate(90) scale(1.31948)">
<stop stop-color="white"/>
<stop offset="1" stop-color="white" stop-opacity="0"/>
</radialGradient>
<radialGradient id="paint17_radial_373_7804" cx="0" cy="0" r="1" gradientUnits="userSpaceOnUse" gradientTransform="translate(251.013 32.5449) rotate(90) scale(0.79169)">
<stop stop-color="white"/>
<stop offset="1" stop-color="white" stop-opacity="0"/>
</radialGradient>
<radialGradient id="paint18_radial_373_7804" cx="0" cy="0" r="1" gradientUnits="userSpaceOnUse" gradientTransform="translate(251.013 32.545) rotate(90) scale(0.527793)">
<stop stop-color="white"/>
<stop offset="1" stop-color="white" stop-opacity="0"/>
</radialGradient>
<radialGradient id="paint19_radial_373_7804" cx="0" cy="0" r="1" gradientUnits="userSpaceOnUse" gradientTransform="translate(261.143 85.7269) rotate(90) scale(1.31948)">
<stop stop-color="white"/>
<stop offset="1" stop-color="white" stop-opacity="0"/>
</radialGradient>
<radialGradient id="paint20_radial_373_7804" cx="0" cy="0" r="1" gradientUnits="userSpaceOnUse" gradientTransform="translate(261.143 85.7268) rotate(90) scale(0.79169)">
<stop stop-color="white"/>
<stop offset="1" stop-color="white" stop-opacity="0"/>
</radialGradient>
<radialGradient id="paint21_radial_373_7804" cx="0" cy="0" r="1" gradientUnits="userSpaceOnUse" gradientTransform="translate(261.143 85.7269) rotate(90) scale(0.527793)">
<stop stop-color="white"/>
<stop offset="1" stop-color="white" stop-opacity="0"/>
</radialGradient>
<linearGradient id="paint22_linear_373_7804" x1="124.62" y1="55.6421" x2="208.356" y2="118.606" gradientUnits="userSpaceOnUse">
<stop/>
<stop offset="1" stop-opacity="0"/>
</linearGradient>
<linearGradient id="paint23_linear_373_7804" x1="144.521" y1="95.4904" x2="167.216" y2="56.2974" gradientUnits="userSpaceOnUse">
<stop stop-color="white"/>
<stop offset="1" stop-color="white" stop-opacity="0.4"/>
</linearGradient>
<linearGradient id="paint24_linear_373_7804" x1="144.521" y1="95.4904" x2="167.216" y2="56.2974" gradientUnits="userSpaceOnUse">
<stop stop-color="white"/>
<stop offset="1" stop-color="white" stop-opacity="0.4"/>
</linearGradient>
<linearGradient id="paint25_linear_373_7804" x1="128.666" y1="55.8327" x2="128.666" y2="65.2894" gradientUnits="userSpaceOnUse">
<stop offset="0.0503394" stop-color="white"/>
<stop offset="1" stop-color="white" stop-opacity="0"/>
</linearGradient>
<linearGradient id="paint26_linear_373_7804" x1="132.431" y1="57.2798" x2="132.431" y2="67.3248" gradientUnits="userSpaceOnUse">
<stop offset="0.0503394" stop-color="white"/>
<stop offset="1" stop-color="white" stop-opacity="0"/>
</linearGradient>
<linearGradient id="paint27_linear_373_7804" x1="135.882" y1="59.2903" x2="135.882" y2="69.3248" gradientUnits="userSpaceOnUse">
<stop offset="0.0503394" stop-color="white"/>
<stop offset="1" stop-color="white" stop-opacity="0"/>
</linearGradient>
<linearGradient id="paint28_linear_373_7804" x1="140.937" y1="62.9433" x2="140.937" y2="72.3943" gradientUnits="userSpaceOnUse">
<stop offset="0.0503394" stop-color="white"/>
<stop offset="1" stop-color="white" stop-opacity="0"/>
</linearGradient>
<linearGradient id="paint29_linear_373_7804" x1="144.685" y1="63.6879" x2="144.685" y2="74.8737" gradientUnits="userSpaceOnUse">
<stop offset="0.0503394" stop-color="white"/>
<stop offset="1" stop-color="white" stop-opacity="0"/>
</linearGradient>
<linearGradient id="paint30_linear_373_7804" x1="148.119" y1="66.1371" x2="148.119" y2="76.4262" gradientUnits="userSpaceOnUse">
<stop offset="0.0503394" stop-color="white"/>
<stop offset="1" stop-color="white" stop-opacity="0"/>
</linearGradient>
<linearGradient id="paint31_linear_373_7804" x1="151.609" y1="69.0462" x2="151.609" y2="78.666" gradientUnits="userSpaceOnUse">
<stop offset="0.0503394" stop-color="white"/>
<stop offset="1" stop-color="white" stop-opacity="0"/>
</linearGradient>
<linearGradient id="paint32_linear_373_7804" x1="160.449" y1="73.8734" x2="160.449" y2="83.5883" gradientUnits="userSpaceOnUse">
<stop offset="0.0503394" stop-color="white"/>
<stop offset="1" stop-color="white" stop-opacity="0"/>
</linearGradient>
<linearGradient id="paint33_linear_373_7804" x1="167.328" y1="77.3641" x2="167.328" y2="87.5968" gradientUnits="userSpaceOnUse">
<stop offset="0.0503394" stop-color="white"/>
<stop offset="1" stop-color="white" stop-opacity="0"/>
</linearGradient>
<linearGradient id="paint34_linear_373_7804" x1="172.697" y1="80.7665" x2="172.697" y2="90.4763" gradientUnits="userSpaceOnUse">
<stop offset="0.0503394" stop-color="white"/>
<stop offset="1" stop-color="white" stop-opacity="0"/>
</linearGradient>
<linearGradient id="paint35_linear_373_7804" x1="179.601" y1="84.6043" x2="179.601" y2="94.6436" gradientUnits="userSpaceOnUse">
<stop offset="0.0503394" stop-color="white"/>
<stop offset="1" stop-color="white" stop-opacity="0"/>
</linearGradient>
<linearGradient id="paint36_linear_373_7804" x1="182.743" y1="87.1516" x2="182.743" y2="96.6026" gradientUnits="userSpaceOnUse">
<stop offset="0.0503394" stop-color="white"/>
<stop offset="1" stop-color="white" stop-opacity="0"/>
</linearGradient>
<linearGradient id="paint37_linear_373_7804" x1="156.991" y1="70.9365" x2="156.991" y2="81.5147" gradientUnits="userSpaceOnUse">
<stop offset="0.0503394" stop-color="white"/>
<stop offset="1" stop-color="white" stop-opacity="0"/>
</linearGradient>
<linearGradient id="paint38_linear_373_7804" x1="175.84" y1="83.1547" x2="175.84" y2="92.6057" gradientUnits="userSpaceOnUse">
<stop offset="0.0503394" stop-color="white"/>
<stop offset="1" stop-color="white" stop-opacity="0"/>
</linearGradient>
<clipPath id="clip0_373_7804">
<rect width="72.2234" height="92.5737" fill="white" transform="translate(119.831 29.506)"/>
</clipPath>
</defs>
</svg>
