<svg width="320" height="210" viewBox="0 0 320 210" fill="none" xmlns="http://www.w3.org/2000/svg">
<g clip-path="url(#clip0_373_7601)">
<rect width="320" height="224" transform="translate(0 0.000610352)" fill="url(#paint0_radial_373_7601)" fill-opacity="0.4"/>
<mask id="mask0_373_7601" style="mask-type:alpha" maskUnits="userSpaceOnUse" x="117" y="35" width="88" height="83">
<rect x="117.717" y="35.7108" width="86.8496" height="81.7134" fill="url(#paint1_linear_373_7601)"/>
</mask>
<g mask="url(#mask0_373_7601)">
<path d="M149.263 77.6212L172.256 80.3834L163.934 52.2169L149.263 77.6212Z" fill="url(#paint2_linear_373_7601)"/>
<path d="M172.256 80.3833L149.263 77.6211L157.584 105.784L172.256 80.3833Z" fill="url(#paint3_linear_373_7601)"/>
<path d="M160.759 79.0023L163.934 52.2169L172.256 80.3834L160.759 79.0023Z" fill="url(#paint4_linear_373_7601)"/>
<path d="M160.759 79.0022L157.584 105.784L172.256 80.3833L160.759 79.0022Z" fill="url(#paint5_linear_373_7601)"/>
<path d="M184.568 44.0487L203.05 82.0841L179.041 117.113L160.563 79.0772L184.568 44.0487Z" fill="url(#paint6_linear_373_7601)" stroke="white" stroke-width="1.26" stroke-linejoin="round"/>
<path d="M184.568 44.0487L142.689 40.1619L118.681 75.1904L160.564 79.0772L184.568 44.0487Z" fill="url(#paint7_linear_373_7601)" stroke="white" stroke-width="1.26" stroke-linejoin="round"/>
<path d="M160.602 79.0219L118.625 75.218L137.119 113.285L179.037 117.176L160.602 79.0219Z" fill="url(#paint8_linear_373_7601)" stroke="white" stroke-width="1.26" stroke-linejoin="round"/>
</g>
<circle opacity="0.45" cx="60.7271" cy="61.8125" r="3.24795" transform="rotate(45 60.7271 61.8125)" fill="url(#paint9_radial_373_7601)"/>
<circle opacity="0.5" cx="60.7271" cy="61.8126" r="1.94877" transform="rotate(45 60.7271 61.8126)" fill="url(#paint10_radial_373_7601)"/>
<circle cx="60.7271" cy="61.8125" r="1.29918" transform="rotate(45 60.7271 61.8125)" fill="url(#paint11_radial_373_7601)"/>
<path d="M65.0907 57.449L60.9567 62.0423L56.3634 66.1762L60.4974 61.5829L65.0907 57.449Z" fill="white"/>
<path d="M65.0907 66.1762L60.4974 62.0423L56.3634 57.449L60.9567 61.5829L65.0907 66.1762Z" fill="white"/>
<g opacity="0.3">
<circle opacity="0.45" cx="114.727" cy="119.273" r="3.24795" transform="rotate(45 114.727 119.273)" fill="url(#paint12_radial_373_7601)"/>
<circle opacity="0.5" cx="114.727" cy="119.273" r="1.94877" transform="rotate(45 114.727 119.273)" fill="url(#paint13_radial_373_7601)"/>
<circle cx="114.727" cy="119.273" r="1.29918" transform="rotate(45 114.727 119.273)" fill="url(#paint14_radial_373_7601)"/>
<path d="M119.091 114.91L114.957 119.503L110.363 123.637L114.497 119.044L119.091 114.91Z" fill="white"/>
<path d="M119.091 123.637L114.497 119.503L110.363 114.91L114.957 119.044L119.091 123.637Z" fill="white"/>
</g>
<circle opacity="0.45" cx="119.585" cy="80.9332" r="2.95417" transform="rotate(45 119.585 80.9332)" fill="url(#paint15_radial_373_7601)"/>
<circle opacity="0.5" cx="119.585" cy="80.9332" r="1.7725" transform="rotate(45 119.585 80.9332)" fill="url(#paint16_radial_373_7601)"/>
<circle cx="119.585" cy="80.9332" r="1.18167" transform="rotate(45 119.585 80.9332)" fill="url(#paint17_radial_373_7601)"/>
<path d="M123.554 76.9643L119.794 81.1421L115.616 84.9022L119.376 80.7243L123.554 76.9643Z" fill="white"/>
<path d="M123.554 84.9022L119.376 81.1421L115.616 76.9643L119.794 80.7243L123.554 84.9022Z" fill="white"/>
<circle opacity="0.45" cx="186.599" cy="41.7546" r="1.33739" transform="rotate(45 186.599 41.7546)" fill="url(#paint18_radial_373_7601)"/>
<circle opacity="0.5" cx="186.599" cy="41.7546" r="0.802436" transform="rotate(45 186.599 41.7546)" fill="url(#paint19_radial_373_7601)"/>
<circle cx="186.599" cy="41.7546" r="0.534957" transform="rotate(45 186.599 41.7546)" fill="url(#paint20_radial_373_7601)"/>
<path d="M188.396 39.9578L186.694 41.8492L184.802 43.5514L186.505 41.66L188.396 39.9578Z" fill="white"/>
<path d="M188.396 43.5514L186.505 41.8492L184.802 39.9578L186.694 41.66L188.396 43.5514Z" fill="white"/>
<circle opacity="0.45" cx="290.299" cy="69.99" r="1.33739" transform="rotate(45 290.299 69.99)" fill="url(#paint21_radial_373_7601)"/>
<circle opacity="0.5" cx="290.299" cy="69.9899" r="0.802436" transform="rotate(45 290.299 69.9899)" fill="url(#paint22_radial_373_7601)"/>
<circle cx="290.299" cy="69.9899" r="0.534957" transform="rotate(45 290.299 69.9899)" fill="url(#paint23_radial_373_7601)"/>
<path d="M292.096 68.1932L290.394 70.0845L288.503 71.7867L290.205 69.8954L292.096 68.1932Z" fill="white"/>
<path d="M292.096 71.7867L290.205 70.0845L288.503 68.1932L290.394 69.8954L292.096 71.7867Z" fill="white"/>
<g opacity="0.3">
<circle opacity="0.45" cx="255.391" cy="35.5942" r="1.33739" transform="rotate(45 255.391 35.5942)" fill="url(#paint24_radial_373_7601)"/>
<circle opacity="0.5" cx="255.391" cy="35.5942" r="0.802436" transform="rotate(45 255.391 35.5942)" fill="url(#paint25_radial_373_7601)"/>
<circle cx="255.391" cy="35.5942" r="0.534957" transform="rotate(45 255.391 35.5942)" fill="url(#paint26_radial_373_7601)"/>
<path d="M257.187 33.7974L255.485 35.6888L253.594 37.391L255.296 35.4996L257.187 33.7974Z" fill="white"/>
<path d="M257.187 37.391L255.296 35.6888L253.594 33.7974L255.485 35.4996L257.187 37.391Z" fill="white"/>
</g>
<g opacity="0.3">
<circle opacity="0.45" cx="265.658" cy="89.4979" r="1.33739" transform="rotate(45 265.658 89.4979)" fill="url(#paint27_radial_373_7601)"/>
<circle opacity="0.5" cx="265.658" cy="89.4979" r="0.802436" transform="rotate(45 265.658 89.4979)" fill="url(#paint28_radial_373_7601)"/>
<circle cx="265.658" cy="89.4979" r="0.534957" transform="rotate(45 265.658 89.4979)" fill="url(#paint29_radial_373_7601)"/>
<path d="M267.455 87.7011L265.752 89.5924L263.861 91.2947L265.563 89.4033L267.455 87.7011Z" fill="white"/>
<path d="M267.455 91.2947L265.563 89.5924L263.861 87.7011L265.752 89.4033L267.455 91.2947Z" fill="white"/>
</g>
</g>
<defs>
<radialGradient id="paint0_radial_373_7601" cx="0" cy="0" r="1" gradientUnits="userSpaceOnUse" gradientTransform="translate(139.13 59.3091) rotate(33.1545) scale(153.128 94.347)">
<stop stop-color="#4B34DD"/>
<stop offset="1" stop-color="#592479" stop-opacity="0"/>
</radialGradient>
<linearGradient id="paint1_linear_373_7601" x1="117.717" y1="56.0224" x2="199.898" y2="117.424" gradientUnits="userSpaceOnUse">
<stop/>
<stop offset="1" stop-opacity="0"/>
</linearGradient>
<linearGradient id="paint2_linear_373_7601" x1="189.239" y1="77.8381" x2="76.1623" y2="33.6374" gradientUnits="userSpaceOnUse">
<stop offset="0.12" stop-color="#F0D3F5"/>
<stop offset="0.21" stop-color="#EED0F4" stop-opacity="0.99"/>
<stop offset="0.28" stop-color="#EBC9F2" stop-opacity="0.95"/>
<stop offset="0.34" stop-color="#E6BDEE" stop-opacity="0.89"/>
<stop offset="0.39" stop-color="#DEADE8" stop-opacity="0.8"/>
<stop offset="0.44" stop-color="#D497E2" stop-opacity="0.68"/>
<stop offset="0.48" stop-color="#C87CD9" stop-opacity="0.54"/>
<stop offset="0.53" stop-color="#B95CCF" stop-opacity="0.36"/>
<stop offset="0.57" stop-color="#A839C4" stop-opacity="0.17"/>
<stop offset="0.6" stop-color="#9A19BA" stop-opacity="0"/>
</linearGradient>
<linearGradient id="paint3_linear_373_7601" x1="153.02" y1="130.809" x2="165.501" y2="48.0851" gradientUnits="userSpaceOnUse">
<stop offset="0.12" stop-color="#F0BDF5"/>
<stop offset="0.21" stop-color="#EEBAF4" stop-opacity="0.98"/>
<stop offset="0.29" stop-color="#EAB2F1" stop-opacity="0.94"/>
<stop offset="0.37" stop-color="#E3A5EC" stop-opacity="0.86"/>
<stop offset="0.45" stop-color="#DA93E6" stop-opacity="0.75"/>
<stop offset="0.53" stop-color="#CD7BDD" stop-opacity="0.6"/>
<stop offset="0.61" stop-color="#BE5FD3" stop-opacity="0.43"/>
<stop offset="0.69" stop-color="#AD3DC7" stop-opacity="0.22"/>
<stop offset="0.77" stop-color="#9A19BA" stop-opacity="0"/>
</linearGradient>
<linearGradient id="paint4_linear_373_7601" x1="147.52" y1="78.7362" x2="185.651" y2="55.929" gradientUnits="userSpaceOnUse">
<stop offset="0.27" stop-color="#9500BA" stop-opacity="0"/>
<stop offset="0.62" stop-color="#F0BDF5"/>
</linearGradient>
<linearGradient id="paint5_linear_373_7601" x1="137.532" y1="67.8512" x2="178.699" y2="105.374" gradientUnits="userSpaceOnUse">
<stop offset="0.27" stop-color="#9A19BA" stop-opacity="0"/>
<stop offset="0.62" stop-color="#F0BDF5"/>
</linearGradient>
<linearGradient id="paint6_linear_373_7601" x1="227.038" y1="80.5551" x2="149.35" y2="80.6575" gradientUnits="userSpaceOnUse">
<stop offset="0.32" stop-color="#FFEDFF"/>
<stop offset="0.34" stop-color="#FEEBFE" stop-opacity="0.94"/>
<stop offset="0.46" stop-color="#FCE5FD" stop-opacity="0.61"/>
<stop offset="0.56" stop-color="#FBDFFD" stop-opacity="0.35"/>
<stop offset="0.65" stop-color="#F9DCFC" stop-opacity="0.16"/>
<stop offset="0.71" stop-color="#F9D9FC" stop-opacity="0.04"/>
<stop offset="0.75" stop-color="#F9D9FC" stop-opacity="0"/>
</linearGradient>
<linearGradient id="paint7_linear_373_7601" x1="129.931" y1="20.7449" x2="164.206" y2="81.373" gradientUnits="userSpaceOnUse">
<stop offset="0.07" stop-color="#FFB6FF"/>
<stop offset="0.1" stop-color="#FEB8FE" stop-opacity="0.94"/>
<stop offset="0.29" stop-color="#FCC3FD" stop-opacity="0.61"/>
<stop offset="0.45" stop-color="#FBCCFD" stop-opacity="0.35"/>
<stop offset="0.59" stop-color="#F9D3FC" stop-opacity="0.16"/>
<stop offset="0.69" stop-color="#F9D7FC" stop-opacity="0.04"/>
<stop offset="0.75" stop-color="#F9D9FC" stop-opacity="0"/>
</linearGradient>
<linearGradient id="paint8_linear_373_7601" x1="77.6471" y1="127.92" x2="265.344" y2="45.3005" gradientUnits="userSpaceOnUse">
<stop offset="0.07" stop-color="#FFB6FF"/>
<stop offset="0.08" stop-color="#FEB8FE" stop-opacity="0.94"/>
<stop offset="0.19" stop-color="#FCC3FD" stop-opacity="0.61"/>
<stop offset="0.28" stop-color="#FBCCFD" stop-opacity="0.35"/>
<stop offset="0.35" stop-color="#F9D3FC" stop-opacity="0.16"/>
<stop offset="0.41" stop-color="#F9D7FC" stop-opacity="0.04"/>
<stop offset="0.44" stop-color="#F9D9FC" stop-opacity="0"/>
</linearGradient>
<radialGradient id="paint9_radial_373_7601" cx="0" cy="0" r="1" gradientUnits="userSpaceOnUse" gradientTransform="translate(60.727 61.8125) rotate(90) scale(3.24795)">
<stop stop-color="white"/>
<stop offset="1" stop-color="white" stop-opacity="0"/>
</radialGradient>
<radialGradient id="paint10_radial_373_7601" cx="0" cy="0" r="1" gradientUnits="userSpaceOnUse" gradientTransform="translate(60.7271 61.8126) rotate(90) scale(1.94877)">
<stop stop-color="white"/>
<stop offset="1" stop-color="white" stop-opacity="0"/>
</radialGradient>
<radialGradient id="paint11_radial_373_7601" cx="0" cy="0" r="1" gradientUnits="userSpaceOnUse" gradientTransform="translate(60.727 61.8125) rotate(90) scale(1.29918)">
<stop stop-color="white"/>
<stop offset="1" stop-color="white" stop-opacity="0"/>
</radialGradient>
<radialGradient id="paint12_radial_373_7601" cx="0" cy="0" r="1" gradientUnits="userSpaceOnUse" gradientTransform="translate(114.727 119.273) rotate(90) scale(3.24795)">
<stop stop-color="white"/>
<stop offset="1" stop-color="white" stop-opacity="0"/>
</radialGradient>
<radialGradient id="paint13_radial_373_7601" cx="0" cy="0" r="1" gradientUnits="userSpaceOnUse" gradientTransform="translate(114.727 119.273) rotate(90) scale(1.94877)">
<stop stop-color="white"/>
<stop offset="1" stop-color="white" stop-opacity="0"/>
</radialGradient>
<radialGradient id="paint14_radial_373_7601" cx="0" cy="0" r="1" gradientUnits="userSpaceOnUse" gradientTransform="translate(114.727 119.273) rotate(90) scale(1.29918)">
<stop stop-color="white"/>
<stop offset="1" stop-color="white" stop-opacity="0"/>
</radialGradient>
<radialGradient id="paint15_radial_373_7601" cx="0" cy="0" r="1" gradientUnits="userSpaceOnUse" gradientTransform="translate(119.585 80.9332) rotate(90) scale(2.95417)">
<stop stop-color="white"/>
<stop offset="1" stop-color="white" stop-opacity="0"/>
</radialGradient>
<radialGradient id="paint16_radial_373_7601" cx="0" cy="0" r="1" gradientUnits="userSpaceOnUse" gradientTransform="translate(119.585 80.9332) rotate(90) scale(1.7725)">
<stop stop-color="white"/>
<stop offset="1" stop-color="white" stop-opacity="0"/>
</radialGradient>
<radialGradient id="paint17_radial_373_7601" cx="0" cy="0" r="1" gradientUnits="userSpaceOnUse" gradientTransform="translate(119.585 80.9332) rotate(90) scale(1.18167)">
<stop stop-color="white"/>
<stop offset="1" stop-color="white" stop-opacity="0"/>
</radialGradient>
<radialGradient id="paint18_radial_373_7601" cx="0" cy="0" r="1" gradientUnits="userSpaceOnUse" gradientTransform="translate(186.599 41.7546) rotate(90) scale(1.33739)">
<stop stop-color="white"/>
<stop offset="1" stop-color="white" stop-opacity="0"/>
</radialGradient>
<radialGradient id="paint19_radial_373_7601" cx="0" cy="0" r="1" gradientUnits="userSpaceOnUse" gradientTransform="translate(186.599 41.7546) rotate(90) scale(0.802436)">
<stop stop-color="white"/>
<stop offset="1" stop-color="white" stop-opacity="0"/>
</radialGradient>
<radialGradient id="paint20_radial_373_7601" cx="0" cy="0" r="1" gradientUnits="userSpaceOnUse" gradientTransform="translate(186.599 41.7546) rotate(90) scale(0.534957)">
<stop stop-color="white"/>
<stop offset="1" stop-color="white" stop-opacity="0"/>
</radialGradient>
<radialGradient id="paint21_radial_373_7601" cx="0" cy="0" r="1" gradientUnits="userSpaceOnUse" gradientTransform="translate(290.299 69.99) rotate(90) scale(1.33739)">
<stop stop-color="white"/>
<stop offset="1" stop-color="white" stop-opacity="0"/>
</radialGradient>
<radialGradient id="paint22_radial_373_7601" cx="0" cy="0" r="1" gradientUnits="userSpaceOnUse" gradientTransform="translate(290.299 69.9899) rotate(90) scale(0.802436)">
<stop stop-color="white"/>
<stop offset="1" stop-color="white" stop-opacity="0"/>
</radialGradient>
<radialGradient id="paint23_radial_373_7601" cx="0" cy="0" r="1" gradientUnits="userSpaceOnUse" gradientTransform="translate(290.299 69.9899) rotate(90) scale(0.534957)">
<stop stop-color="white"/>
<stop offset="1" stop-color="white" stop-opacity="0"/>
</radialGradient>
<radialGradient id="paint24_radial_373_7601" cx="0" cy="0" r="1" gradientUnits="userSpaceOnUse" gradientTransform="translate(255.391 35.5942) rotate(90) scale(1.33739)">
<stop stop-color="white"/>
<stop offset="1" stop-color="white" stop-opacity="0"/>
</radialGradient>
<radialGradient id="paint25_radial_373_7601" cx="0" cy="0" r="1" gradientUnits="userSpaceOnUse" gradientTransform="translate(255.391 35.5942) rotate(90) scale(0.802436)">
<stop stop-color="white"/>
<stop offset="1" stop-color="white" stop-opacity="0"/>
</radialGradient>
<radialGradient id="paint26_radial_373_7601" cx="0" cy="0" r="1" gradientUnits="userSpaceOnUse" gradientTransform="translate(255.391 35.5942) rotate(90) scale(0.534957)">
<stop stop-color="white"/>
<stop offset="1" stop-color="white" stop-opacity="0"/>
</radialGradient>
<radialGradient id="paint27_radial_373_7601" cx="0" cy="0" r="1" gradientUnits="userSpaceOnUse" gradientTransform="translate(265.658 89.4979) rotate(90) scale(1.33739)">
<stop stop-color="white"/>
<stop offset="1" stop-color="white" stop-opacity="0"/>
</radialGradient>
<radialGradient id="paint28_radial_373_7601" cx="0" cy="0" r="1" gradientUnits="userSpaceOnUse" gradientTransform="translate(265.658 89.4979) rotate(90) scale(0.802436)">
<stop stop-color="white"/>
<stop offset="1" stop-color="white" stop-opacity="0"/>
</radialGradient>
<radialGradient id="paint29_radial_373_7601" cx="0" cy="0" r="1" gradientUnits="userSpaceOnUse" gradientTransform="translate(265.658 89.4979) rotate(90) scale(0.534957)">
<stop stop-color="white"/>
<stop offset="1" stop-color="white" stop-opacity="0"/>
</radialGradient>
<clipPath id="clip0_373_7601">
<rect width="320" height="224" fill="white" transform="translate(0 0.000610352)"/>
</clipPath>
</defs>
</svg>
